<?xml version="1.0" encoding="utf-8"?>
<!-- Generator: Adobe Illustrator 25.4.1, SVG Export Plug-In . SVG Version: 6.00 Build 0)  -->
<svg version="1.1" id="Layer_1" xmlns="http://www.w3.org/2000/svg" xmlns:xlink="http://www.w3.org/1999/xlink" x="0px" y="0px"
	 viewBox="0 0 612 792" style="enable-background:new 0 0 612 792;" xml:space="preserve">
<g>
	<path d="M228.1,224.1c2.7,0,8.7,1,18.1,3.1c2.9,1,5.3,2.5,7.1,4.3c2.4,0,3.5,2.6,3.4,7.8c0,0.7-0.1,1.5-0.3,2.3l-0.2,1
		c-1.1,5.2-6.3,11.2-15.7,17.8c-0.5,0-2.1,1.3-4.9,3.9c-4,2.4-7.2,4.1-9.7,5.1l0,0.2l7.7,4.1c1.9,2.1,3.9,3.9,6.2,5.7
		c0.9,2.4,1.3,4.1,1,5.1l-0.2,1.4c-0.2,0.7-1.1,1.7-2.8,2.9c-0.3,1.2-1.8,2.8-4.6,4.9c-4.9,3.9-11.9,7.4-21.1,10.4l-7.2,2
		c-1.4-0.1-2.6-0.2-3.7-0.2c-1.7,0.1-5.3,1.3-10.7,3.5c-0.8,0-2,1.6-3.3,4.7h-0.2c-0.3,0-0.5-0.7-0.7-2l-0.4-0.2
		c-3.8,5.6-5.8,9-6,10c-0.4,0.6-0.7,0.9-1,1h-0.4l0.1-0.4c0.3-1.6,1.6-4.5,3.8-8.8l0.4-1c-0.5,0-3.5,0.6-9.2,1.8l-3.3-0.8h-0.4
		L161,315h-1.2l0.1-0.4c0.2-0.3,1.2-0.8,2.8-1.6l0-0.2l-0.3-0.2h-0.2c-4.1,0.7-6.7,1-7.6,1H153c-3.8-0.3-5.8-0.4-6-0.4l-1.4,0.2
		c-0.5-0.3-0.9-0.4-1.1-0.4l0-0.2c0.2-0.8,4.2-1.3,12.1-1.6c0.7,0,2.8-0.7,6.1-2.1c2.7-0.4,5-1.3,7-2.7c0.7-0.7,4-1.7,9.8-2.9
		c0-0.1,0.7-0.4,2.1-1l0.1-0.4c-0.6-0.1-0.9-0.3-0.9-0.6c2.8-0.9,4.3-1.8,4.5-2.7h-0.4c-0.5,0.3-0.8,0.4-1,0.4l0.2-1.2
		c0.3-1.3,2.4-5.8,6.3-13.5c0.7-1.4,1.1-2.4,1.3-3.1c-0.2-0.9-0.2-1.6-0.1-2c2-4.5,3-7.1,3.2-7.6h-0.6c-0.9,0-1.3-0.5-1.1-1.4
		l0.2-0.4c-1.7,0-2.5-0.4-2.3-1.2c2.3-0.5,3.5-0.8,3.6-1.2c-4.7-0.7-7-1.4-6.8-2c0-0.1,0.1-0.2,0.2-0.2l0.7-0.4h0.4
		c1.5,0,3.1,0.1,4.6,0.2c2.2-0.2,3.4-0.4,3.5-0.8l-0.2-0.6l0-0.4c0.1,0,0.3-0.1,0.8-0.2l1.3,0.2c0.4-0.5,0.6-0.9,0.7-1.2
		c0.2-1.8,0.4-3,0.5-3.5c1-1.4,1.7-3.2,2.3-5.3l1-1l0.1-1.4l0.1-0.6c1-3.8,2-5.7,3.1-5.7c0-0.2,1.3-0.7,3.7-1.8
		c3-3.1,5.1-4.7,6.2-4.7c0.5,0,1-0.4,1.4-1.2c0.1-1.6-0.4-2.3-1.6-2.3l-1-0.2c-0.2,0.9-0.7,1.4-1.5,1.4h-1c-0.3,0-0.5-0.5-0.4-1.6
		l0.1-0.4l0.5-0.6v-0.2c-4.9-0.1-8-0.3-9.2-0.6l0-0.2l2.7-1.6l-0.4-0.2h-1.8c-2.7,0-5.4,0.8-7.9,2.3c-0.7,0.4-2.2,0.8-4.3,1.2
		c-1.3,0.8-2.2,1.2-2.8,1.2l-0.1-0.4l0.1-0.6c2.9-1.5,4.9-2.4,6.1-2.7c4-3,9-4.5,15-4.5c0.6-0.1,2-0.7,4.1-1.8h10
		c0.7,0,1.1-0.2,1.3-0.6c-0.5,0-0.7-0.2-0.7-0.6C226.4,224.3,227.2,224.1,228.1,224.1z M161.1,314.2l0,0.4h0.6l0-0.4H161.1z
		 M184.4,266.3h1l0,1c0,0.2-0.3,0.4-0.7,0.6h-1l0-0.8C183.9,266.6,184.2,266.3,184.4,266.3z M187.7,271c1,0,1.6,0.3,1.8,1l-0.2,0.8
		c-0.8,0.8-1.5,1.2-2.2,1.2h-0.2c-0.5,0-0.6-0.7-0.5-2.1C187,271.3,187.4,271,187.7,271z M194,263.2h0.4v1l0,0.2
		c-0.1,0.3-0.2,0.4-0.5,0.4h-1l0.1-1.4L194,263.2z M206.8,278.6c-3.5,7-5.8,10.5-7.1,10.5c-1.6,1.3-2.8,3.8-3.6,7.6l7.9-2.3
		c3.8-0.9,5.9-2.1,6.2-3.5c0.6-0.4,2.4-1,5.3-1.8c2.7-1.8,5.8-2.7,9.2-2.7c-0.7-1.3-3.4-2-8.2-2c-1.1,0-2.7-0.9-4.9-2.7
		c-0.8,0-2.2-0.9-4.1-2.7L206.8,278.6z M216.1,258.7l0,0.2h0.2c0.3-0.1,0.5-0.2,0.6-0.2l0-0.2h-0.2
		C216.4,258.6,216.2,258.7,216.1,258.7z M228.1,236.1h-1.4c-0.7,0-1.6-0.1-2.9-0.2c0.6,2.1,0.4,5.8-0.8,11.1c-1,3.2-2.9,6.3-5.5,9.2
		c-0.2,0-0.6,0.7-1.2,2h0.2c2.4-0.3,4.5-0.8,6.2-1.6c0.3-0.4,1.8-1,4.5-1.8c3.5-2.6,6-4.5,7.6-5.5h2.1c1.6,0,3.6-2.3,6.2-6.8l0-0.2
		c0.4-1.9-0.3-3.3-2.2-4.1c-0.8,0-1.6-0.7-2.5-2.1c-2.8-0.5-5.2-0.8-7.2-0.8h-0.4C230.7,235.3,229.8,235.5,228.1,236.1z
		 M219.7,235.3c0.2,0.6,0.6,0.9,1.1,1.2l0.2-1L219.7,235.3z M227.4,224.7l-0.1,0.4h0.6l0.1-0.4H227.4z"/>
	<path d="M274,222.9h0.2c-0.1,0.7-0.5,2.1-1.2,4.1c-0.1,0.4,0.1,1.1,0.5,2.1c-0.5,1.9-0.8,2.9-0.8,3.1c0,1.7-0.7,6.4-2.2,14.1
		c-1.3,2.7-3.6,6.4-6.8,11.1c-0.4,0.6-1.2,3.1-2.4,7.6c-1.7,1-2.6,2.2-2.9,3.5c-0.1,1.1-0.2,1.8-0.2,2c-1.3,2.6-2.4,5.2-3.1,8
		c-2.8,4.8-4.4,7.9-4.7,9.4c-1.1,2.2-1.7,3.5-1.8,3.7l-0.2,1.2c-1,1-1.7,1.9-2.1,2.5c0.3,0.7,0.3,1.2,0.2,1.6
		c-2.3,5.7-3.9,8.6-4.7,8.6c-2.1,1.5-3.5,3.3-3.9,5.5c-0.6,0.9-1.1,1.5-1.8,1.8c-0.3,0-0.3-0.7-0.1-2c-0.1,0-0.3-0.1-0.5-0.2
		c-0.2,0.8-2.3,4.2-6.4,10c-0.2,1.1-0.8,1.9-1.7,2.5h-0.4l0-0.2c0.4-1.7,2-5.1,4.9-10.4l0.2-0.8c0.1-0.3,0-0.6,0-0.8
		c1.1-2.1,1.7-3.5,1.9-4.1c-0.1-1.6-0.2-2.3-0.3-2.3c1.4-3,2.3-5.3,2.6-6.8l-0.4,0.2h-0.8l0.1-0.8c1-2.1,2.3-5.4,3.9-10
		c1.6-3.2,2.5-5.5,2.8-7c-0.2,0-0.4-0.3-0.6-0.8l0-0.2c0.2-0.8,1.1-3.2,2.8-7c-0.5,0-0.7-0.3-0.6-1l0.1-0.4c1.2-2.7,2-4.9,2.4-6.6
		l0.2-1.2c0.3-1.3,0.4-2.6,0.4-3.9c0.8-1.7,2.2-3.9,4.4-6.8c0.4-0.4,0.8-1.3,1.4-2.7c-0.1-0.8-0.2-1.2-0.3-1.2
		c0.2-0.1,0.5-1,0.9-2.5l-0.3-1.4c0.1-0.6,0.9-2.2,2.2-4.9c0.2-1.1,0.3-2.1,0.3-3.1c0.2-0.8,1.4-1.9,3.6-3.3
		c0.1-0.4,2.1-2.1,5.8-5.1h1.8l1.4,0.2c0.6-1.2,1.2-1.8,1.9-1.8c0.3,0.7,0.4,1.1,0.3,1.4h0.2c0.9-2.6,1.7-3.9,2.4-3.9
		c0.3,0,0.6-0.3,0.8-0.8C273.5,223,273.7,222.9,274,222.9z M266.5,221.9h1.8l0.1,1.4l-0.2,0.8c-0.5,0.7-1,1-1.8,1
		c-0.3,0-0.6-0.5-1-1.6C265.8,222.5,266.2,221.9,266.5,221.9z M273.4,218.6h1v1l-0.1,0.4l-1,0.2h-0.6v-0.8
		C273,218.9,273.2,218.6,273.4,218.6z"/>
	<path d="M312.7,205.4c0.3,0,0.4,0.2,0.3,0.4l0,0.2c-2.5,5.2-4,8.8-4.4,10.7h6.6c2.5,0,3.9,0.4,4.2,1.2c0.5,0.3,1.2,0.4,2.1,0.4h0.4
		c3.4,0,5.7-0.6,7-1.8l1.2-0.2h0.6c1,0,2.6,0.2,4.8,0.6c0.1,0,0.9-0.1,2.5-0.2l3.6,1.8c0.8,0,1.2,0.1,1.1,0.2l1-0.2h1.2
		c1.7,0.1,2.4,0.4,2.3,0.8v0.2c-0.1,0.3-0.7,0.5-2,0.8l-0.3,0.4v0.2c9,1,13.7,1.8,14.4,2.1l-0.1,0.6c-1.1,0.3-1.9,0.4-2.2,0.4
		c-1.7,0-4.3-0.1-7.7-0.4c-3.4,0.4-6,0.6-8,0.6h-0.4c-1,1-2.9,1.6-5.6,1.6h-2.9c-1,0-1.6,0.3-1.9,0.8c0.2,0,0.3,0.2,0.4,0.6v0.2
		l-2,0.2h-1.6c-1.4,0-2.4,0.1-2.8,0.2c-1.2-0.1-2.4-0.2-3.5-0.2h-8.6c-0.5,0-1.4,0.5-2.9,1.6c-0.7,0-1.2,0.1-1.4,0.2
		c-0.7-0.1-1.3-0.2-1.7-0.2h-0.2l-1.4,0.2l-0.1,0.4c0.7,0,1,0.1,0.9,0.4c-1.2,4-2.1,6.1-2.7,6.1c-1.6,0.4-2.8,2.1-3.4,4.9
		c-0.3,1.2-1.5,2.9-3.6,5.1c-0.1,0.3-0.7,1.5-1.9,3.5l-0.2,2l-0.1,0.8c-0.3,1.5-1.3,2.5-3,3.1c-1,4.9-2.5,8.5-4.4,10.7
		c-1.3,3-2.4,4.5-3.3,4.5c-1.5,0.8-2.5,2.4-3,4.7c0,0.8,0.1,1.7,0.4,2.5c-2,4.4-3.4,6.6-4.3,6.6c-0.6,0-2.2,3.6-4.8,10.9
		c-1.9,1.3-3.2,4.1-4.1,8.2c-0.2,1-0.1,2.6,0.2,4.7l-0.1,0.4c-2.5,6.4-3.8,9.7-3.9,10c-1.8,0.9-3.1,3.7-4.1,8.2
		c-0.5,1.3-1.1,2-1.6,2l0-0.2l0-2.3c-0.6,0-1.4,1.7-2.5,5.1c-2.7,4.1-4.7,7.5-5.8,10l-0.4,0.2c-0.3,0-0.4-0.1-0.3-0.4l0.1-0.6
		c1.1-2.8,2.8-6.5,5-11.3c0-1.2,0-2,0.1-2.3c0.5-1.9,0.9-3.2,1-3.9c0-0.2-0.2-1.2-0.7-2.9l0-0.2c0.1-0.5,0.6-2,1.5-4.5l1-4.7h-0.2
		c-0.3,0-0.4,0.2-0.5,0.6h-0.4c-0.3,0-0.4-0.1-0.3-0.4c0.1-0.7,2.4-8,6.8-22.1c0-0.1-0.2-0.6-0.7-1.4l0-0.2
		c0.7-3.6,4.2-11.7,10.4-24.2c0.7-3.1,1.8-5.9,3.6-8.4c0.3-1.4,1-2.9,2.3-4.5c1.5-5.1,2.8-7.9,4-8.4l1.5-1.8l0-0.2l-0.9-0.2l0-0.2
		c0.7-1.2,1.4-2.8,2.1-4.7c-0.7,0-1.1-0.3-1.2-0.8l0.1-0.6l0.3-0.4c-0.1,0-0.2-0.1-0.1-0.2l-1,0.2h-1.4l-7.3,1.2h-1.2
		c-0.6,0-1.9-0.6-4-1.8c-1,0-2.1-0.7-3.3-2c-3.8-1-5.6-2.1-5.4-3.3c0.5-0.8,0.7-1.4,0.8-1.8l0.1-0.4c-2.2-0.5-3.3-0.9-3.2-1.4
		c0.3-0.3,1.3-0.7,2.8-1.2l0-0.2c-3.9-0.7-5.8-1.3-5.7-2l0.1-0.6c0.7,0,1-0.1,1-0.2l2.7,0.2c6.2,0,11.4-0.3,15.6-1h2
		c0.9,0,2.5,0.5,4.8,1.4c0.5,0.1,1,0.2,1.7,0.2h0.2c1.4,0,4.3-0.7,8.5-2.1c0.8,0,1.8-0.6,2.9-1.8c-0.2-0.4-0.2-0.7-0.2-1
		c0.2-0.8,0.8-1.2,1.9-1.2h1c-0.2,1,0.2,1.6,1.2,1.6l0-0.2c0.7-1,1.3-1.6,1.7-1.8h0.2l0.5,1.2c0.1,0,0.3,0.1,0.5,0.2
		c1.5-3.4,2.6-5.1,3.2-5.1c0.2,0.4,0.3,0.7,0.2,1c-0.5,1.6-0.8,2.7-0.9,3.5l0.4-0.2h0.2c0.2,0,0.3,0.2,0.4,0.6l-0.2,1h0.8
		c3.1-4.3,5.3-7.7,6.7-10.4L312.7,205.4z M251,220.4h1.2v1l-0.1,0.4l-1,0.2h-0.2c-0.3,0-0.4-0.2-0.3-0.6L251,220.4z M253.7,225.3
		h0.8c1,0,1.5,0.3,1.6,0.8l-0.2,1c-0.7,0.7-1.3,1-2,1h-0.4c-0.5-0.2-0.6-0.7-0.5-1.4L253.7,225.3z M258.2,327.5l0,0.4h0.2l0-0.4
		H258.2z M278.6,219.6l0,0.2h0.4l0-0.2H278.6z M296.9,209.5h0.6c1,0,1.5,0.3,1.6,0.8l-0.2,1c-0.3,0.9-0.8,1.4-1.5,1.4
		c-1-0.3-1.4-0.9-1.2-1.8l0.1-0.6C296.7,209.9,296.9,209.7,296.9,209.5z M301.5,210.3h1.2l0,1l0,0.4l-1,0.2h-0.4
		c0.1-0.3,0-0.6,0-0.8C301.3,210.8,301.4,210.6,301.5,210.3z M303.5,206h1.2v1l-0.1,0.4l-1,0.2h-0.4c0.1-0.3,0.1-0.6,0-0.8
		C303.4,206.5,303.5,206.3,303.5,206z"/>
	<path d="M337.3,225.6c7,0,10.7,3.3,11.1,9.8c0.1,1.3,0,3-0.3,5c-1.2,5.8-4.7,12-10.5,18.7l-0.8,0.5c-0.2,0-0.7-0.6-1.5-1.7
		c-0.8,0.7-2.2,2.1-4.2,4.3c-0.7,0.6-1.4,0.9-1.9,0.9l0-0.4l0-0.1c1.6-1.6,2.6-3,2.8-4.2h-0.3c-3.5,3.8-5.9,5.8-7.2,5.8l-0.1-0.3
		l0.1-0.6c3.6-3.2,6.6-7.3,8.7-12.3l0.1-0.5c-0.1-0.8,0-1.3,0-1.7c0.7-0.6,1.1-1.2,1.2-1.6l0.1-0.7c0.2-1.1,0.3-2.8,0.3-4.9h-0.3
		c0,0.2-0.9,1-2.5,2.5c-1.6,2-2.8,3.8-3.5,5.4c-1.2,1.3-2.7,2.2-4.3,2.5c-0.8,1-1.9,2.7-3.2,5.2c-1.5,1.6-3.3,4-5.2,7.2
		c-1.7,1.5-4.3,4.6-8,9.4c-2.6,1.3-4.1,2.4-4.3,3.4c-2,2.6-3.1,4.7-3.5,6.3l-0.5,2.1c0,0.3-0.6,1-1.6,2.3c-0.5,2.3-1.3,4-2.5,5.1
		c-0.3,1.5-1.1,2.6-2.4,3.4l0,0.2c0.7,0.5,0.8,1.4,0.5,2.9l-0.3,1.5c-0.1,0.4-0.6,1.4-1.6,3l0,0.2h0.2c1,0,2.2-0.6,3.6-1.8
		c1.8-0.4,3.9-1.5,6.3-3.4c0.8-0.6,3-1.5,6.7-2.7c6.7-4.8,11.1-7.4,13.2-7.8l-0.1,0.5c-2,1.5-3.1,2.5-3.4,3.1c0.8,0,2.8-1.1,6.1-3.2
		c3.5-1.6,6.8-3.8,9.7-6.5c2.7-1.4,4.4-2.5,5.2-3.1h0.2c0.2,0.1,0.3,0.2,0.2,0.4l-0.1,0.5c-0.6,0-3.5,2.3-8.5,7
		c-4.3,2.5-6.7,4.1-7.2,4.9c0.4,0,0.5,0.1,0.5,0.2c1.2-0.5,3-1.6,5.4-3.4c1-0.3,2.4-1.1,4.1-2.3c0.3-0.1,0.5-0.2,0.8-0.2h0.2
		l-0.1,0.7c-0.6,0-2.8,1.8-6.6,5.4c-1.2,0.6-1.9,1.2-2.1,2c-1.3,0.6-2.1,1.4-2.3,2.5c-0.2,0.8-1.2,1.8-2.9,2.7
		c-0.8,0.5-1.3,1-1.6,1.4l0,0.2l0.6,0.7l-0.1,0.3c-0.5,0.2-1.8,1.1-4,2.5c-2.6,1.1-4,2-4.2,2.7c-0.1,0.5-0.6,1.1-1.6,1.7
		c-0.2,0.9-1.2,1.6-3.1,2.1c-0.1,0.6-1.3,1.2-3.5,1.8c-1.6,1.4-3,2.3-4.3,2.5c-0.5,0-2.1-0.5-4.8-1.5c-2.3,0.6-3.9,0.9-4.9,0.9h-0.7
		c-2.3,0-4.2-1-5.7-3c0.2,0.8,0.6,1.8,1.1,3c-0.7-0.2-1.3-0.7-2-1.5c-1-1.3-1.3-2.6-1.1-3.9l0-0.2c-1.6-3.1-2-6.5-1.2-10.3l0.2-1.1
		c0.2-0.8,1.9-5.1,5.1-13c0.1-1,0.2-1.9,0.3-2.5l0.1-0.7c0.2-0.9,2-4.5,5.4-10.8c0.2-0.5,0.4-1,0.5-1.6l0-0.2
		c0.2-0.7-0.1-1.1-0.8-1.1c-1.7,2.3-3.1,3.4-4.2,3.4l-0.1-0.3c0.1-0.5,1.6-2.7,4.6-6.7c2.5-5.2,4.4-7.8,5.8-7.8
		c2.7-1.6,4.2-3.2,4.5-4.7c0.1-0.4,0.5-1.1,1.4-2.3h0.2c0.2,0.3,0.4,0.4,0.6,0.4c1.5-0.3,2.4-0.8,2.5-1.5c0.9-0.7,1.6-1.5,2.1-2.7
		c0-0.1,0.2-0.9,0.4-2.4c1.3-0.8,2.4-2.1,3.3-3.6c1.1,0,3.4-2,6.6-5.8C324.7,228.6,330.9,225.6,337.3,225.6z M285.5,274.5h0.5
		c0.3,0.1,0.4,0.5,0.3,1.1l0,0.2l-0.9,0.1h-0.5l0-0.7C285.1,274.8,285.4,274.5,285.5,274.5z M296.4,291.5l-0.1,0.3h0.2l0.1-0.3
		H296.4z M319.4,290.4l0,0.1c0.3-0.1,0.5-0.1,0.6-0.1l0-0.4h-0.1C319.5,290.1,319.4,290.2,319.4,290.4z M323.1,266.6
		c0.5,0.2,0.8,0.5,0.8,0.7l0,0.2c-0.3,0.5-0.7,0.7-1.2,0.7c-0.3-0.4-0.3-0.8-0.2-1.3C322.7,266.7,322.9,266.6,323.1,266.6z
		 M329.9,265.3h0.3c0.6,0,0.7,0.8,0.4,2.5h-0.2c-0.5,0.4-1,0.5-1.4,0.5h-0.2c-0.7-0.4-0.9-1-0.7-1.6
		C328.2,266.6,328.8,266.1,329.9,265.3z"/>
	<path d="M374.5,230.4h0.8c0.8,0.9,1.6,1.4,2.4,1.4h2c1,0,2.6,1.2,4.7,3.5h0.2c0.9-0.3,1.5-0.4,1.9-0.4c0.7,0,1.1,0.3,1.4,1
		c-0.1,0.3-0.6,1.1-1.7,2.5c1.3,2.6,1.8,4.5,1.5,5.7l0,0.4l-1,0.2h-0.4c-0.6,0-1.1-0.1-1.5-0.4c-0.7,0.2-1.1,0.6-1.2,1.2
		c1.2,1.3,2.1,2,2.9,2c0.2-0.5,0.4-0.8,0.7-0.8h1.2c1.1,0.2,1.6,0.7,1.4,1.6c0,0.2-0.5,0.8-1.5,1.8c2.3,2,2.8,6.1,1.5,12.3
		c0.7,1.3,0.9,2.2,0.7,2.9c-1.4,3.2-2.6,6.2-3.5,9.2c-0.7,1-1.5,2.7-2.2,5.1l1.4-1h0.2l0,0.2c-0.7,3.4-4.8,8.9-12.1,16.4
		c-5.9,5.1-10.4,8.1-13.5,9.2c-5.5,2.7-8.8,4.2-9.9,4.5c-1.1,0-1.7,0.1-1.8,0.2c-3.3,0-6.9-1.4-10.8-4.1c-5.3-5-6.9-12.4-4.9-22.1
		l0.2-1c0.2-0.7,0.4-1.6,0.8-2.7l0-0.2h-0.2c-1.4,2.7-2.2,4.1-2.4,4.1l-0.2-0.6l0.3-1.6l3.3-8c0.9-3.1,1.5-4.7,1.8-4.7l0.2-1
		c-0.5-1-0.7-1.5-0.8-1.6c2-4,3.1-6.2,3.1-6.4h-1c-0.3,0-0.4-0.1-0.3-0.4l0-0.2c2.2-3.5,5-6.8,8.2-10c2-1.2,3-2.2,3.2-3.1v-0.8
		c1.3-1.6,3.8-3.6,7.5-5.9c1.1-1.2,4-2.5,8.6-3.9c1.8-1.7,4.5-2.5,8.3-2.5l0.2-1c0-0.3,0.2-0.4,0.6-0.4l0-0.2L374.5,230.4z
		 M381.2,247.4l-0.3,0.4l1.6,2l-0.2,0.8c-0.5,0.1-0.8,0.2-0.8,0.2l0,0.2c0.4,0.6,0.6,1.2,0.4,2l-0.2,1h-0.8c-1-1.9-2-3.6-3-5.1
		c-1.7,0.3-2.8,0.4-3.4,0.4c-0.3,0-1.2-0.5-2.6-1.4c-0.2,0.9-2.5,3.6-6.8,8c-1.4,2.2-4,4.7-7.6,7.4c-3.6,4-5.7,7.6-6.4,10.9
		c-1.3,5.1-2.3,7.6-3.2,7.6l-1.3,1.4c0.1,0.5,0,1.9-0.3,4.1c0.7,3.6,2,5.5,3.8,5.5c1.2,0.7,2.4,1,3.7,1c0.4,0,2.7-0.7,6.9-2.1
		c2,0,3.6-0.7,4.7-2.1c1.7-1.1,3.4-3,5.3-5.9c1.1-3.5,2.1-5.8,3-6.8c3-4.1,4.7-7.2,5.1-9.2c0.5-0.9,1.4-1.8,2.7-2.7
		c0.7-1.1,1.3-2.2,1.5-3.5c0.3-1.3,0.6-3.4,0.8-6.4c0.2-0.2,0.3-0.5,0.4-0.8h0.6c0.1,0,0.5,0.5,1.2,1.6h0.2c0.3,0,0.4-0.1,0.5-0.4
		c-0.4-2.8-1.8-5.3-4.1-7.4C382.1,247.8,381.7,247.7,381.2,247.4z M361,259l-0.1,0.4c0.3,0,0.4-0.1,0.5-0.4H361z M384.2,280.8l0,0.4
		h0.2l0-0.4H384.2z"/>
	<path d="M416.5,222.9h0.2c-0.1,0.7-0.5,2.1-1.2,4.1c-0.1,0.4,0.1,1.1,0.5,2.1c-0.5,1.9-0.8,2.9-0.8,3.1c0,1.7-0.7,6.4-2.2,14.1
		c-1.3,2.7-3.6,6.4-6.8,11.1c-0.4,0.6-1.2,3.1-2.4,7.6c-1.7,1-2.6,2.2-2.9,3.5c-0.1,1.1-0.2,1.8-0.2,2c-1.3,2.6-2.4,5.2-3.1,8
		c-2.8,4.8-4.4,7.9-4.7,9.4c-1.1,2.2-1.7,3.5-1.8,3.7l-0.2,1.2c-1,1-1.7,1.9-2.1,2.5c0.3,0.7,0.3,1.2,0.2,1.6
		c-2.3,5.7-3.9,8.6-4.7,8.6c-2.1,1.5-3.5,3.3-3.9,5.5c-0.6,0.9-1.1,1.5-1.8,1.8c-0.3,0-0.3-0.7-0.1-2c-0.1,0-0.3-0.1-0.5-0.2
		c-0.2,0.8-2.3,4.2-6.4,10c-0.2,1.1-0.8,1.9-1.7,2.5h-0.4l0-0.2c0.4-1.7,2-5.1,4.9-10.4l0.2-0.8c0.1-0.3,0-0.6,0-0.8
		c1.1-2.1,1.7-3.5,1.9-4.1c-0.1-1.6-0.2-2.3-0.3-2.3c1.4-3,2.3-5.3,2.6-6.8l-0.4,0.2h-0.8l0.1-0.8c1-2.1,2.3-5.4,3.9-10
		c1.6-3.2,2.5-5.5,2.8-7c-0.2,0-0.4-0.3-0.6-0.8l0-0.2c0.2-0.8,1.1-3.2,2.8-7c-0.5,0-0.7-0.3-0.6-1l0.1-0.4c1.2-2.7,2-4.9,2.4-6.6
		l0.2-1.2c0.3-1.3,0.4-2.6,0.4-3.9c0.8-1.7,2.2-3.9,4.4-6.8c0.4-0.4,0.8-1.3,1.4-2.7c-0.1-0.8-0.2-1.2-0.3-1.2
		c0.2-0.1,0.5-1,0.9-2.5l-0.3-1.4c0.1-0.6,0.9-2.2,2.2-4.9c0.2-1.1,0.3-2.1,0.3-3.1c0.2-0.8,1.4-1.9,3.6-3.3
		c0.1-0.4,2.1-2.1,5.8-5.1h1.8l1.4,0.2c0.6-1.2,1.2-1.8,1.9-1.8c0.3,0.7,0.4,1.1,0.3,1.4h0.2c0.9-2.6,1.7-3.9,2.4-3.9
		c0.3,0,0.6-0.3,0.8-0.8C415.9,223,416.2,222.9,416.5,222.9z M408.9,221.9h1.8l0.1,1.4l-0.2,0.8c-0.5,0.7-1,1-1.8,1
		c-0.3,0-0.6-0.5-1-1.6C408.2,222.5,408.6,221.9,408.9,221.9z M415.8,218.6h1v1l-0.1,0.4l-1,0.2h-0.6v-0.8
		C415.4,218.9,415.6,218.6,415.8,218.6z"/>
	<path d="M476,199.4l0,1.6c-2.2,6.1-3.9,10.4-4.9,13.1c-0.3,1.8-0.5,3.4-0.8,4.7c-1,2.4-1.7,4.3-2,5.5l-0.2,0.8l0.1,4.1
		c-2.8,8.2-4.3,13.2-4.7,15l0,0.2h0.2c0.6-0.7,0.8-1.1,0.8-1.2h0.2c0.3,0,0.4,0.2,0.3,0.4c-2.4,6.7-4.9,12.4-7.4,17.2
		c-4.9,10.8-7.5,16.6-7.6,17.4c-0.1,0.5-0.1,1.5-0.1,3.1c-2.5,5.6-3.8,8.7-3.9,9.4l-0.6,2.9c-0.1,0.7-0.8,1.4-2.1,2.3l-0.7,3.1
		c-1.2,1-2.6,2.2-4.1,3.7c-0.8,0-1.5,0.6-2.1,1.8c-0.1,0-1.2,0.7-3.1,2h-0.4l-1.9-0.6c-1.9,0.3-2.9,0.4-3,0.4l0.2-1
		c0-0.2-0.1-0.4-0.5-0.6c-0.8,0-1.6,0.7-2.4,2.1c-0.9,1.2-1.8,1.8-2.7,1.8l-0.1-0.4l0.7-1.4c-0.5-0.2-0.7-0.4-0.6-0.6l0.1-0.8
		c0.1-0.3,0.3-0.4,0.5-0.4h0.8l0.5,0.4c1.3-2,2.1-3.4,2.3-4.3h-0.2c-0.9,0.8-1.4,1.2-1.6,1.2h-0.4c-0.3,0-0.4-0.1-0.3-0.4l0.1-0.4
		c1.5-1.7,2.4-2.8,2.5-3.3c-0.5-1.9-1.8-4.5-3.8-7.8c-0.4-1.2-0.8-3.6-1.2-7.2c-1-2.1-1.3-3.9-0.9-5.7c-0.8-3.3-1.5-5.1-2-5.5
		c-1.8,4.1-3.5,6.8-5.4,8c-1.3,0.7-2.3,2.5-2.9,5.5c-0.1,0.3,0.1,1.1,0.5,2.3c-2.5,5.1-4.4,7.6-5.6,7.6c-0.6,0-1.6,1.6-3.1,4.7
		l-1.1,0.8h-0.4v-1l0.1-0.8h-0.8c-4.6,7.4-6.9,11.6-7.1,12.5h-0.4c-0.3,0-0.4-0.1-0.3-0.4l0-0.4c1-2.2,2.9-7.2,5.8-15l-0.5-2.1
		c0.9-1.9,1.8-4,2.5-6.4h-0.2c-0.5,0.3-0.9,0.4-1.3,0.4l0-0.2c0.3-1.2,1.2-3.3,2.9-6.2c0.2-0.7,1.5-3.5,4-8.4c0.1-0.3,0-1-0.3-2.1
		l7.7-15c0.1-0.9,0.1-1.6,0.2-2.1l0.1-0.6c0.1-0.3,1.1-2.3,3.2-5.9c0.7-3.3,1.5-4.9,2.4-4.9l8-6.6l0.1-1.4l0.2-1l1-0.2
		c-0.2,0.8,0.3,1.2,1.3,1.4c0.1-0.7,0.5-1.8,1.1-3.3l-0.4-1l0.1-0.4c0.5-0.8,1.1-1.2,1.8-1.2c0.9,0,1.3,0.5,1,1.6
		c-0.6,0.9-0.9,1.5-0.9,1.8l-0.2,0.8l-0.2,2h0.4c0.2-0.5,0.4-0.8,0.7-0.8h0.6c0.1,1,0.1,1.6,0,1.8c1.5-0.8,3-2.4,4.3-4.7h0.6v1
		l0,0.2c-2.6,4.4-4.2,7.7-4.7,10c-0.1,0-0.2,0.1-0.2,0.2c0,0.7-0.1,1.3-0.2,1.8l0,0.2l-1.5,3.1c-0.1,0.4,0.5,2,1.7,4.9
		c1.8,8.2,2.1,14.7,1.1,19.7c0.5,3.2,0.8,6.5,0.8,10h0.2c3.7-8.9,6.2-13.8,7.5-14.8c1.9-1.6,4.2-6.3,7.1-14.1l0.2-1.2l0.4-3.7
		c3.5-7.5,5.4-11.6,5.6-12.3c0.3-1.6,1.8-4.1,4.5-7.6c0.8-1.8,2.3-5.4,4.2-10.7c0.5-0.8,0.9-1.2,1-1.2h0.2c0.1,0.8,0.1,1.4,0,1.8
		l-0.4,1.8c0.6,0,1.5-2.2,3-6.6c3.5-7.4,5.4-11.4,5.5-12.1C475.2,200,475.7,199.4,476,199.4z M399.7,286.5l-0.1,0.4h0.2l0.1-0.4
		H399.7z M421.9,311.5h0.8l0,1l0,0.4l-1,0.2h-0.4c0.1-0.3,0-0.6,0-0.8C421.4,311.8,421.7,311.5,421.9,311.5z M424.6,228.9h1.8
		c0.1,0.8,0.1,1.4,0,1.8l-0.1,0.6c-0.3,0.5-0.8,0.8-1.5,0.8c-0.5-0.5-0.9-0.8-1.2-0.8l0.4-1.8C423.9,229.3,424.2,229.1,424.6,228.9z
		 M428.5,308.8h1.6c0.1,1.2,0.2,1.9,0.1,2c-0.3,0.6-0.7,0.9-1.2,1.2h-0.2c-1.2,0-1.6-0.5-1.4-1.6
		C428.1,309.6,428.5,309.1,428.5,308.8z M431,224.6h0.8c0.3,0,0.4,0.4,0.3,1.2c-0.6,0.4-1.1,0.6-1.5,0.6h-0.2l0.1-0.4L431,224.6z
		 M434.7,265.8l-0.1,0.4c0.1,0.3,0.1,0.5,0,0.6h0.2l0.1-0.4c-0.1-0.3-0.1-0.5,0-0.6H434.7z M438.8,226.6h1l0,1l0,0.2
		c0,0.3-0.2,0.4-0.4,0.4h-0.8c-0.3,0-0.4-0.1-0.3-0.4l0.2-0.8C438.4,226.7,438.6,226.6,438.8,226.6z M463.7,245.1
		c-0.1,0.3-0.2,0.6-0.4,0.8h0.4l0.2-0.8H463.7z M465.9,217.4l-0.2,0.8h0.2l0.2-0.8H465.9z"/>
</g>
<g>
	<path d="M120.7,332.7c2.7,0,8.3,1.5,16.9,4.6c3.2,1,6.3,3.4,9.3,7.1c0.9,1.1,2,1.6,3.3,1.6c2.1,3.9,2.6,8,1.7,12.3
		c-1.6,4.6-4.9,9.5-10.1,14.6c-6,4.8-9.7,8.2-11.3,10.1c-4.4,2.1-7.3,3.7-8.8,5c-2.1,0.4-5.4,2.1-10,5.1c-2,1.4-5.7,2.1-11,2.1
		c-0.6,2.7-2.5,5.4-5.9,8c-0.7,0-1.6,2.1-2.8,6.2l-0.1,0.7c0.3,1.7,0.4,2.6,0.4,2.7l0,0.2c-2.5,4.9-3.8,7.8-4,8.7
		c-2.1,0.8-3.5,2.8-4.2,5.9c-0.3,1.2-1.1,2.3-2.4,3.4h-0.5c0.2-1.5,0-2.2-0.7-2.2c-0.3,1.5-2.5,5.6-6.5,12.3
		c-0.7,2.3-1.5,3.4-2.2,3.4l0-1.1l0.2-0.9c0.3-1.6,1.7-5.1,4.2-10.5l0.1-0.4c1.1-5.3,1.3-8,0.5-8c-0.1-0.2-0.1-0.6,0-1.2
		c1.2-4.2,1.9-6.8,2.1-7.7c-0.1-0.6-0.3-0.9-0.5-0.9c-0.1,0.3-0.3,0.4-0.6,0.4h-0.5l0.2-0.9c0.6-2.6,3-8.2,7.4-16.7
		c0.6-1.5,1-2.4,1-2.7c-0.2,0-0.4-0.2-0.5-0.7l0.3-1.4l0.7-2.2c-0.3,0-1.3-0.5-3.1-1.6l0.1-0.4c0.1-0.3,0.3-0.5,0.6-0.5h2.9
		c0.2-0.8-2.1-2.2-6.6-4.1l0.1-0.5c0.1-0.3,0.3-0.4,0.6-0.4h1.3c2.2,0.9,4,1.3,5.2,1.3h0.7c1.5,0,3-2.1,4.7-6.3
		c0.2-0.1,1.3-2.4,3.4-6.9c0-0.8,0.1-1.5,0.2-2.1l0.2-0.9c2.1-4.1,3.3-6.5,3.5-7.3c0.7,0,1.4-1.8,2.3-5.3c1.7-3.1,2.9-4.6,3.9-4.6
		c0.2,0,2.4-1,6.6-2.9c2.5,0,4-0.1,4.6-0.3l0-0.2c-3.9-0.6-7.5-1-10.8-1.1c-0.5-0.6-1.6-1.2-3.3-1.9c-3.8,0.3-6.6,0.4-8.5,0.4
		l-0.1-0.4l2.8-1.8l0-0.2l-1.2-0.3c-1.4,0.5-3.8,0.8-7.2,1.2c-2.8,1.8-5.7,2.7-8.5,2.7c-1.2,0.8-2.2,1.2-2.9,1.2h-0.2
		c-0.3,0-0.4-0.2-0.3-0.5l0-0.4c12.5-5.3,19.6-8,21.3-8c2.5,0,5.2-0.9,8-2.7c1.6,0,2.5-0.1,2.5-0.2l1.1,0.2c1.1,0,3.3,0.1,6.5,0.2
		c1.7-0.3,2.6-0.4,2.7-0.4l0.1-0.4c-0.7,0-0.9-0.2-0.8-0.7l0-0.2L120.7,332.7z M76.1,381.8h1.2l0,1.1l-0.1,0.4l-1.3,0.2h-0.5
		l0.1-1.6L76.1,381.8z M78.1,388.2h0.2c1.6,0.2,2.2,0.8,2,2.1l-0.1,0.4c-1.7,0.5-2.6,0.8-2.6,0.9c-1,0-1.4-0.5-1.1-1.6l0-0.2
		C76.7,389,77.2,388.5,78.1,388.2z M96.6,343.2l0,0.2H97l0-0.2H96.6z M106.9,347.1h1.7l0,1.1l0,0.2c-0.2,0-0.6,0.2-1.1,0.5h-0.7
		l-0.2-1.1C106.7,347.5,106.8,347.2,106.9,347.1z M108.3,393.5l0,0.2h0.2c0.4-0.2,0.6-0.2,0.8-0.2l0-0.2h-0.2
		C108.7,393.4,108.5,393.5,108.3,393.5z M125.9,346.2l-0.6,1.6l-1.1,5.2c0,0.2,0,0.2,0.2,0.2c-2.5,5.8-4.4,8.6-5.7,8.6
		c-2.4,2.2-4.3,5.3-5.7,9.4c-0.1,0.6-0.6,2-1.3,4.1c4.5-1.6,7.8-2.8,10-3.9c2.8-3.5,5.6-5.3,8.3-5.3c3.1-1.6,5-4.2,5.8-8
		c0.6-2.7-0.8-5.4-4.1-8C132.1,348.3,130.2,347,125.9,346.2z M120.9,333.4c0,0.3,0.1,0.4,0.4,0.4l0.1-0.4H120.9z"/>
	<path d="M174.6,339.2h1.5c4.5,0.4,6.6,0.9,6.5,1.5c0.7,0.6,1.8,1.2,3.4,1.9c0.5,1.1,1.9,2.5,4.1,4.2c0.6,1.1,0.8,2.3,0.6,3.4
		c-0.2,0.9-0.4,2.3-0.7,4.2l-2,5.7c-0.7,1.2-1.5,1.9-2.4,1.9h-1.3c-0.1,0-0.7,0.6-1.6,1.9h-0.1c-0.4,0-0.5-0.4-0.5-1.3h-0.2
		c-0.4,0-1.1,1.3-2.1,3.8c-0.7,0.6-1,0.9-1.1,0.9h-0.2v-0.9c0.2-0.7,0.4-1.6,0.8-2.8l-0.7-0.2c0.1-0.5,0.5-1,1.3-1.5
		c0.2-2.4-0.1-3.6-0.7-3.6c0-0.2-0.4-1.7-1.4-4.5c0.2-0.8,0-1.4-0.5-1.7c-3.5,0.3-6.1,0.8-7.8,1.5c-3.2,1.7-5.4,3.1-6.4,4.3
		c-1.6,2.1-2.5,3.7-2.6,4.5l0,0.2c0.1,0.9,0.1,1.4,0,1.5c-0.5,1.3-0.8,2.2-0.9,2.6c0.5,0,0.6,0.8,0.2,2.4c0.9,1.2,1.5,2.7,1.6,4.3
		c0.9,0.6,1.4,0.9,1.3,1.1l0,0.2l-0.5,1.3c0.8,1,2.1,2.2,4,3.6c4.5,8.1,6.6,12.6,6.4,13.5c0.9,4,1,7.8,0.2,11.5
		c-0.8,3.8-2.8,6.4-5.9,7.9c-0.7,0.5-2,2.2-4,5.3c-2.7,2.7-5.7,4.1-8.8,4.1c-1.2,0.8-2.3,1.2-3.3,1.2c-1-0.1-1.9-0.2-2.6-0.2h-1.7
		l-3.8,0.9h-0.2c-0.7-0.7-1.4-1.1-2.2-1.1l-2.8,0.5c-4.2-0.3-6.2-1.3-5.9-2.8c0.1-0.5-1.1-1.2-3.5-2.1h-0.6c-0.3,0-0.5,0.1-0.8,0.2
		c-1.4-0.6-2.5-2.1-3.4-4.3l0.4-1.3l0.1-0.4c0-0.2,0-1.3-0.2-3.4l0.1-0.6h0.8c-0.1,0.5,0.1,0.7,0.4,0.7l0.4-0.1c0.4-2,0.6-5,0.6-9
		c0.2-0.3,0.3-0.5,0.3-0.6h0.3c0.2,0,0.3,0.9,0.5,2.8h0.2v-0.9l0.3-1.5h0.3c0.6,2.2,1,3.4,1.2,3.4l0-0.2c0.2-3.3,0.4-5.3,0.5-6
		c0.7-3.1,2.5-7.4,5.6-13h0.6l0.3,0.2c-0.1,0.5-1.4,3.6-3.8,9.2c-0.3,0.6-0.5,1.5-0.8,2.8c-0.4,2,0.2,5.1,2,9.4
		c0.2,0.3,1.2,0.9,2.8,1.7c0.3,1,0.9,1.5,1.6,1.5h0.9l-0.2,0.9l-0.3,0.4c1.2,0.9,2.5,1.3,3.9,1.3h0.2l0-0.2
		c-0.7-0.1-1.3-0.6-1.6-1.5v-0.2c0.1-0.3,0.3-0.4,0.5-0.4c1.5,0.8,2.5,1.2,2.8,1.2c0.7,0.2,2.1,0.4,4.1,0.5l0.4-0.2
		c0.1,0,0.2,0.1,0.1,0.2c3.7,0,6-0.6,6.8-1.9c1.3-0.8,2.1-2.1,2.5-4l0.3-1.5c0.1-0.6,0.2-2,0.3-4.2c0.4-0.9,0.8-1.4,1-1.5
		c-0.1-1.9-1.7-4.8-4.9-8.8c-0.4,0-0.6,0-0.6-0.1c-0.6,0-1.3,0.9-2.2,2.6h-0.2c-0.3-0.8-0.5-1.2-0.7-1.2H151c-0.4,0.8-1,2.4-1.8,4.7
		h-0.7c-0.1-0.6,0-2.5,0.5-5.9c-1.1-1.1-1.6-2-1.5-2.6l1.3-0.9c0.1-0.6-0.6-1.7-2.1-3.4c-0.4-4.5-1.1-6.8-2.1-6.8
		c-0.4-0.9-0.6-1.8-0.4-2.6c0.2,0,0.4-0.1,0.4-0.3v-0.2c0-0.9-0.4-2.1-1.1-3.6c-0.1-2,0-3.5,0.1-4.3c1.6-5,2.7-7.5,3.5-7.5
		c0.4-0.4,0.9-1.4,1.6-3.2c0.7-0.8,1.2-1.9,1.5-3l0.2-1.3c3.5-3.5,5.9-5.3,7.4-5.3c0.3,0,1.7-0.6,4.2-1.9c0.7,0,1,0,1,0.1l-0.1,0.6
		c-0.2,0-0.4,0.2-0.7,0.6c0,0.2,0.1,0.3,0.3,0.3h0.6C167.5,340.7,171.4,339.2,174.6,339.2z M127.2,403.7l-0.1,0.5
		c0.2,3.3,0.9,4.9,2,4.9l0-0.1c-1.1-1.5-1.7-3.3-1.7-5.3H127.2z M127.6,401.6l-0.1,0.4h0.2l0.1-0.4H127.6z M147.4,382.2l0,0.2h0.4
		l0-0.2H147.4z M149.9,396.7c0.5,0.2,0.7,0.4,0.6,0.6l-0.2,0.7H149l0.2-1.1C149.4,396.9,149.6,396.8,149.9,396.7z M154.5,391.8
		c1,0,1.4,0.7,1.2,2.1c-0.5,0.4-1,0.5-1.4,0.5H154c-0.4,0-0.5-0.6-0.4-1.7C153.6,392.6,153.9,392.3,154.5,391.8z M166.2,354.4
		l-0.5,0.5h0.2l0.5-0.5H166.2z M178.8,369h0.4c0.2,0,0.3,0.2,0.4,0.6c0,0.2-0.3,0.4-0.9,0.7h-0.2c-0.2,0-0.4-0.2-0.5-0.5l0-0.2
		C178.2,369.4,178.4,369.2,178.8,369z M184.3,364.7c0.9,0.4,1.3,0.9,1.2,1.7c-0.4,0.6-0.7,0.9-0.9,1h-1.3v-1l0.2-0.9
		C183.4,365.3,183.7,365.1,184.3,364.7z"/>
	<path d="M235.1,335.9h0.2l-0.1,0.4l-2,3.9c-0.4,1.9-1.4,3.9-3,6.1c-0.5,2.3-2,4.5-4.5,6.6c-3.6,6.9-6.6,12-9.1,15.2
		c-3.1,2.3-5.5,4.9-7.1,7.6c-0.5,0-1.6,2-3.2,5.9c-1.8,3.6-3.5,5.5-5.3,5.5c-0.7,0.8-2.1,3.5-4.5,8.2c-1.2,1.2-2.5,3.3-3.9,6.4
		c-1.2,0.9-2,2.2-2.4,4.1l-0.2,1.2c0,0.3-0.2,0.4-0.4,0.4H189c0.1-0.4,0-0.6-0.3-0.6c-0.6,0-1.1,0.9-1.6,2.7c-0.6,4.2-1,6.5-1,6.8
		l-0.3,1.6c-0.1,0.3-0.2,0.4-0.5,0.4c-0.3,0-0.4-2-0.3-5.9c-0.1,0-0.2-0.2-0.1-0.6c-0.9,0.9-2.1,1.9-3.8,2.9c-1.7,2-3.4,4.8-5.1,8.4
		c-0.1,0.9-0.2,1.6-0.3,2.1l0,0.4c-0.1,0.6-1.7,3.2-4.7,7.6c-1.3,2.6-2.5,3.9-3.4,3.9c-0.9,0.4-2.1,1.9-3.5,4.5
		c-1.6,2.7-2.7,4.1-3.4,4.1l-0.1-0.4l0-0.2c0.2-0.9,0.5-1.6,0.8-2.1l-0.3-0.2c-0.2,0-2.1,2.5-5.5,7.4c-1.2,1.7-2.7,3.1-4.2,4.3
		c-0.9,1.7-1.6,2.5-2.1,2.5c-0.3,0-0.4-0.1-0.3-0.4l0-0.4c0.9-1,2.3-3.1,4.1-6.4c2.3-2.3,3.7-4.7,4.3-7.2c1.5-2,2.3-3.5,2.4-4.3
		c0.2-0.9,0.3-1.8,0.2-2.5c2.8-4.6,4.3-7.8,4.7-9.6l-0.3-0.2c-0.1,0.3-0.2,0.4-0.5,0.4c-0.3,0-0.4-0.1-0.3-0.4
		c0.2-1,2.4-4.7,6.6-11.1c1.5-2.7,3.9-6.4,7.1-11.1c0-0.7,0.1-1.3,0.2-1.8l0-0.4c0.1-0.5,1-2,2.7-4.5l0.4-1c-0.2,0-0.5-1.1-1-3.3
		c-0.4-0.6-0.6-1.2-0.4-1.8l0.1-0.4l2-3.7c0.9-1,1.4-1.8,1.4-2.1l0.1-0.4l0.1-9.8c0.4-1.9,0.1-3.1-1-3.7c0.2-4.4-0.1-6.6-0.9-6.6
		c0.3-2.5,0.3-3.7-0.2-3.7l0.5-1.4l0-0.4c-0.4-2.2-0.6-3.5-0.5-3.9l0-0.2c0.1-0.2,1.3-1.9,3.6-4.9c2-3.3,3.6-4.9,4.7-4.9h2.1
		c0.5-1.1,1.1-1.8,1.8-2.1h0.2c0.3,0.7,0.7,1.1,1.1,1.2c1.2-3.5,2.1-5.3,2.5-5.3h0.2c0.4,0,0.3,1.5-0.1,4.5c0,1.2-0.1,2.9-0.3,5.1
		c0.9,0.7,1.1,2.5,0.4,5.5l-0.1,0.6c-1.2,2.7-1.9,4.3-2,4.9c-0.1,0.4,0.2,1.9,0.8,4.5l-0.2,1c-0.5,0-0.9,0.4-1.4,1.2l0.8,4.3
		L195,371c-0.1,0.4-0.6,1.3-1.4,2.7c0.3,0,0.5,0.5,0.6,1.6h0.2c0.1-0.7,1.3-2.5,3.5-5.5c0.2-1,1.3-2.7,3.4-5.1
		c1.2-3.4,2.6-5.8,4.1-7.2c1.5-1.8,4.2-4,7.9-6.6c-0.7,0-0.9-0.1-0.9-0.4l0-0.2c0.4-0.4,0.8-1,1.4-2c-0.6-0.2-0.8-0.6-0.7-1.2
		l2.4-4.1l3.2-1.4c0.1-0.5,2-1.1,5.7-2l2-2l0.4-0.2c0.8,0.3,1.3,0.7,1.3,1.2l-0.1,0.4l-0.4,1l1.9-1.4h0.6c-0.2,0.9,0,1.5,0.6,1.8
		c0.8-0.9,1.9-2.3,3.1-4.3C234.3,336,234.7,335.9,235.1,335.9z M161.4,444.5l-0.1,0.4h0.2l0.1-0.4H161.4z M190.5,338.8
		c0.8,0,1.2,0.3,1.4,1l-0.1,0.4c-0.2,1-0.6,1.6-1.2,1.8h-0.8c-0.7-0.7-1.1-1.2-1-1.8C189,339.3,189.6,338.8,190.5,338.8z
		 M196.1,334.7h1.2v1l-0.1,0.4l-1,0.2h-0.6v-1C195.8,335.3,196,335.1,196.1,334.7z M215.9,367.3c-0.1,0.2-0.3,0.6-0.6,1h0.2l0.5-0.8
		l0-0.2H215.9z M228,333.3h0.6c1.2,0,1.6,0.5,1.4,1.6c-0.1,0.5-0.6,1-1.5,1.6h-1c0-0.2-0.1-0.7-0.4-1.6
		C227.7,334,228,333.5,228,333.3z M235.2,331.6h0.8c0.2,0,0.3,0.2,0.3,0.4l-0.2,1l-1,0.2l-0.4-0.8l0.1-0.4
		C234.8,331.7,235,331.6,235.2,331.6z"/>
	<path d="M266,335.2c7,0,10.7,3.3,11.1,9.8c0.1,1.3,0,3-0.3,5c-1.2,5.8-4.7,12-10.5,18.7l-0.8,0.5c-0.2,0-0.7-0.6-1.5-1.7
		c-0.8,0.7-2.2,2.1-4.2,4.3c-0.7,0.6-1.4,0.9-1.9,0.9l0-0.4l0-0.1c1.6-1.6,2.6-3,2.8-4.2h-0.3c-3.5,3.8-5.9,5.8-7.2,5.8l-0.1-0.3
		l0.1-0.6c3.6-3.2,6.6-7.3,8.7-12.3l0.1-0.5c-0.1-0.8,0-1.3,0-1.7c0.7-0.6,1.1-1.2,1.2-1.6l0.1-0.7c0.2-1.1,0.3-2.8,0.3-4.9h-0.3
		c0,0.2-0.9,1-2.5,2.5c-1.6,2-2.8,3.8-3.5,5.4c-1.2,1.3-2.7,2.2-4.3,2.5c-0.8,1-1.9,2.7-3.2,5.2c-1.5,1.6-3.3,4-5.2,7.2
		c-1.7,1.5-4.3,4.6-8,9.4c-2.6,1.3-4.1,2.4-4.3,3.4c-2,2.6-3.1,4.7-3.5,6.3l-0.5,2.1c0,0.3-0.6,1-1.6,2.3c-0.5,2.3-1.3,4-2.5,5.1
		c-0.3,1.5-1.1,2.6-2.4,3.4l0,0.2c0.7,0.5,0.8,1.4,0.5,2.9l-0.3,1.5c-0.1,0.4-0.6,1.4-1.6,3l0,0.2h0.2c1,0,2.2-0.6,3.6-1.8
		c1.8-0.4,3.9-1.5,6.3-3.4c0.8-0.6,3-1.5,6.7-2.7c6.7-4.8,11.1-7.4,13.2-7.8l-0.1,0.5c-2,1.5-3.1,2.5-3.4,3.1c0.8,0,2.8-1.1,6.1-3.2
		c3.5-1.6,6.8-3.8,9.7-6.5c2.7-1.4,4.4-2.5,5.2-3.1h0.2c0.2,0.1,0.3,0.2,0.2,0.4l-0.1,0.5c-0.6,0-3.5,2.3-8.5,7
		c-4.3,2.5-6.7,4.1-7.2,4.9c0.4,0,0.5,0.1,0.5,0.2c1.2-0.5,3-1.6,5.4-3.4c1-0.3,2.4-1.1,4.1-2.3c0.3-0.1,0.5-0.2,0.8-0.2h0.2
		l-0.1,0.7c-0.6,0-2.8,1.8-6.6,5.4c-1.2,0.6-1.9,1.2-2.1,2c-1.3,0.6-2.1,1.4-2.3,2.5c-0.2,0.8-1.2,1.8-2.9,2.7
		c-0.8,0.5-1.3,1-1.6,1.4l0,0.2l0.6,0.7l-0.1,0.3c-0.5,0.2-1.8,1.1-4,2.5c-2.6,1.1-4,2-4.2,2.7c-0.1,0.5-0.6,1.1-1.6,1.7
		c-0.2,0.9-1.2,1.6-3.1,2.1c-0.1,0.6-1.3,1.2-3.5,1.8c-1.6,1.4-3,2.3-4.3,2.5c-0.5,0-2.1-0.5-4.8-1.5c-2.3,0.6-3.9,0.9-4.9,0.9h-0.7
		c-2.3,0-4.2-1-5.7-3c0.2,0.8,0.6,1.8,1.1,3c-0.7-0.2-1.3-0.7-2-1.5c-1-1.3-1.3-2.6-1.1-3.9l0-0.2c-1.6-3.1-2-6.5-1.2-10.3l0.2-1.1
		c0.2-0.8,1.9-5.1,5.1-13c0.1-1,0.2-1.9,0.3-2.5l0.1-0.7c0.2-0.9,2-4.5,5.4-10.8c0.2-0.5,0.4-1,0.5-1.6l0-0.2
		c0.2-0.7-0.1-1.1-0.8-1.1c-1.7,2.3-3.1,3.4-4.2,3.4l-0.1-0.3c0.1-0.5,1.6-2.7,4.6-6.7c2.5-5.2,4.4-7.8,5.8-7.8
		c2.7-1.6,4.2-3.2,4.5-4.7c0.1-0.4,0.5-1.1,1.4-2.3h0.2c0.2,0.3,0.4,0.4,0.6,0.4c1.5-0.3,2.4-0.8,2.5-1.5c0.9-0.7,1.6-1.5,2.1-2.7
		c0-0.1,0.2-0.9,0.4-2.4c1.3-0.8,2.4-2.1,3.3-3.6c1.1,0,3.4-2,6.6-5.8C253.4,338.2,259.7,335.2,266,335.2z M214.3,384.1h0.5
		c0.3,0.1,0.4,0.5,0.3,1.1l0,0.2l-0.9,0.1h-0.5l0-0.7C213.9,384.4,214.1,384.1,214.3,384.1z M225.1,401.1l-0.1,0.3h0.2l0.1-0.3
		H225.1z M248.1,400l0,0.1c0.3-0.1,0.5-0.1,0.6-0.1l0-0.4h-0.1C248.3,399.7,248.1,399.8,248.1,400z M251.9,376.2
		c0.5,0.2,0.8,0.5,0.8,0.7l0,0.2c-0.3,0.5-0.7,0.7-1.2,0.7c-0.3-0.4-0.3-0.8-0.2-1.3C251.5,376.3,251.7,376.2,251.9,376.2z
		 M258.7,374.9h0.3c0.6,0,0.7,0.8,0.4,2.5h-0.2c-0.5,0.4-1,0.5-1.4,0.5h-0.2c-0.7-0.4-0.9-1-0.7-1.6
		C257,376.2,257.6,375.7,258.7,374.9z"/>
	<path d="M337.9,323.6c0.3,0,0.4,0.2,0.3,0.4l-0.2,0.8c-1.2,2.2-2.2,5.2-3,8.8l-0.7,3.3c0.4,0.4,0.6,0.8,0.5,1.2
		c0,0.1-0.4,0.8-1.3,2.3l-0.2,1c-0.3,1.6-1.3,4.7-3,9.4c-0.3,1.8-0.5,3.4-0.8,4.7c-0.3,1.3-3.2,5.9-8.8,13.7l-0.3,1.6l0,1.2
		c-1.3,3.5-2.4,5.3-3.3,5.3c-1,0.5-1.6,1.2-1.8,2.1h1.2c0.5,0,0.7,0.5,0.4,1.6h1.2c0.1,0.8,0.1,1.4,0,1.8l-0.1,0.6
		c-0.9,0.3-1.5,0.4-1.9,0.4h-1c0.1-0.2,0-0.5-0.2-0.8l0.1-0.6l0.3-0.4h-0.6c-0.3,0-0.9,1.2-1.8,3.7c0.9,0,1.7,0.6,2.3,1.8
		c0,0.3-0.7,0.4-2,0.4l0,0.2c1.1,0,2.5,0.1,4.4,0.4l-0.1,0.6c-0.1,0.4-2.3,1-6.8,1.8c-1.3,1.7-2.9,4.6-5,8.6c-3,2.3-4.6,4-4.8,5.3
		c-0.9,2.4-1.4,3.8-1.6,4.1c0.2,0.9,0.3,1.8,0.2,2.7l-3.7,6.2c-0.4,1.8-1.4,2.9-3.3,3.5c-0.6,0.4-1.7,2.3-3.4,5.9
		c-0.9,1-1.5,1.6-1.7,1.6c-0.4,0-0.4-0.8,0-2.5c-0.9,0.1-1.5,0.8-1.8,2.1l-6.4,9.8c-0.7,2.1-1.5,3.1-2.4,3.1l-0.1-0.4l0-0.2
		c1.4-3.5,3.4-7.7,6-12.7c0-0.7,0.1-1.3,0.2-1.8c0.9-1.9,1.4-3,1.4-3.1l0.1-0.4c0.1-0.4,0-1.3-0.2-2.7l0-0.2c2.1-5.2,3.3-8,3.4-8.6
		h-0.2l-0.6,0.4h-0.4c-0.3,0-0.4-0.1-0.3-0.4c1.2-2.8,4-8.1,8.3-16c0.5-0.4,0.9-1.2,1.1-2.5l0.1-0.4c0.1-1-0.3-1.6-1.2-1.6
		c-1.3,0.7-2.6,1-3.8,1h-0.8c-0.2-1-0.7-1.6-1.4-1.6l-3.9,1h-0.8c-0.3,0-1.4-0.3-3.1-1c-0.3,1.2-1.2,3-2.9,5.3
		c-2.8,5.6-4.8,8.4-6.1,8.4c-1,0.7-2,2.4-3.1,5.3c-0.3,0.7-0.5,1.4-0.7,2.1c0.1,1.3,0.1,2.1,0,2.5c-2.2,3.6-3.4,5.7-3.5,6.4
		c-0.9,2.1-1.9,3.1-3,3.1c-0.6,0.5-1.6,2.4-3,5.9c-1,0.9-1.5,1.4-1.7,1.4h-0.2l0.1-1.4l0.2-1h-0.8c-0.4,1.7-2.8,4.9-7.3,9.6
		c-1,2-2,2.9-2.8,2.9l0-0.2c0.3-1.6,2.2-4.5,5.8-8.8c0.3-0.6,1.1-3.2,2.4-7.8c-0.5-0.9-0.6-1.5-0.5-2c1.1-2.2,1.8-4.1,2.1-5.7
		c0.5-1.6,0.7-2.5,0.7-2.5h-0.2c-0.4,0.3-0.6,0.4-0.6,0.4h-0.2l-0.4-0.2c3.7-8.3,6.9-14.4,9.4-18.2l0.2-1.2c0.1-0.4,0-0.9-0.3-1.4
		c1.6-3.4,2.4-5.1,2.5-5.3c-3-0.7-4.4-1.4-4.3-2l0-0.2c1.1-0.3,1.7-0.7,1.8-1.2l-7.6-3.7c-1.8,0-2.7-0.5-2.6-1.6l0.4-0.2
		c2.8,0.7,4.4,1,4.7,1c0.3-0.7,0.8-1,1.6-1h0.2c1,0,1.5,0.4,1.3,1.2c-0.2,0.8,0.4,1.2,1.7,1.2h0.6c0.3,0,0.7-0.8,1.3-2.5
		c-1.2-0.4-1.8-1-1.6-1.8c1-0.2,1.5-0.5,1.6-0.8c-0.1-0.2-1.4-0.9-4.1-2.1l-0.2-0.6c0.5-0.3,0.9-0.4,1.2-0.4
		c2.8,0.4,4.9,0.6,6.2,0.6h1.8c1.7-0.7,2.8-1,3.3-1l0,0.2c0.4-0.1,0.8-0.3,1.2-0.8v-1c0.1-0.6,1-2.2,2.6-4.9c0.2-1,0.8-2.1,1.9-3.3
		c0.9-4.4,3-7.5,6.3-9.4c1.4-1.1,3.6-3.4,6.6-7c0.1,0,0.5-0.1,1.3-0.4c1,0.4,1.8,0.6,2.4,0.6c0.8-1.7,1.7-2.5,2.7-2.5
		c0,1.2,0,2-0.1,2.3h0.2c2.2-3.6,3.8-5.5,4.7-5.5l0.1,0.4l-0.1,0.6c-1.9,4.3-3.5,8.2-4.6,11.7c-0.1,1.9-0.3,3.2-0.4,3.9l-0.2,1
		c-0.3,1.3-2.5,4.7-6.6,10.2c-1.7,2.4-2.8,4.9-3.3,7.2c2,0,3.6-0.6,4.8-1.8c4.6,0.3,6.9,0.7,6.7,1.4h0.2c0.3-1.2,1-1.8,2.1-1.8
		c1.3,0,2.1-0.5,2.3-1.6c0-0.2,0.2-0.6,0.6-1.2c0.1-0.9,0.1-1.6,0.2-2.1l0.2-1c0-0.1,0.5-1,1.3-2.5l-0.2-0.6l0.1-0.6
		c2-4,3.1-6.6,3.4-7.8h-1.2c0.1-0.4,0-0.7-0.1-1.2c0.6-2.7,1.5-4.1,2.8-4.1c1.7-1.2,2.8-3.2,3.4-6.1c-0.2-0.4-0.2-0.8-0.1-1.2l0-0.2
		l2.1-4.7l0.7-3.1c0.2-1.1,2-2.6,5.4-4.5c1-1.4,2.4-2.6,4.3-3.5h0.2c0.9,0,1.8,0.2,2.8,0.6c0.7-1.2,1.5-1.8,2.3-1.8
		c0,0.7,0.1,1.2,0.4,1.6c0.4,0,1.1-0.9,2-2.7C336.9,324.3,337.6,323.6,337.9,323.6z M256.4,412.5l-0.1,0.4h0.2l0.1-0.4H256.4z
		 M257.3,429.1l0,0.4h0.2l0-0.4H257.3z M258.4,373.6h0.8l0,1v0.2c-0.1,0.3-0.2,0.4-0.5,0.4h-1c0.1-0.3,0-0.6,0-0.8
		C257.9,373.8,258.2,373.6,258.4,373.6z M287.2,409.9l-0.1,0.4h0.2l0.1-0.4H287.2z M287.8,427.1l-0.1,0.4h0.4l0.1-0.4H287.8z
		 M296.9,339c1.2,0,1.6,0.5,1.4,1.6c-0.3,1.2-1,1.8-2.1,1.8c-0.7-0.7-0.9-1.5-0.7-2.3C296.3,339.3,296.7,339,296.9,339z
		 M303.7,336.5h0.8c0,0.3,0.1,0.4,0.3,0.4c-0.2,0.7-0.5,1.1-1.1,1.4h-0.6c0-0.2,0-0.5-0.2-0.8l0.1-0.4
		C303.1,336.9,303.3,336.7,303.7,336.5z M318.8,384.9h1v1l-0.1,0.4l-1,0.2h-0.4v-1l0-0.2C318.4,385,318.6,384.9,318.8,384.9z
		 M321,385.9h0.6c0.4,0,0.5,0.3,0.4,0.8c-0.1,0.2-0.4,0.5-1,1c-0.6-0.3-0.8-0.5-0.8-0.8l0.1-0.4C320.3,386.3,320.5,386.1,321,385.9z
		 M325.9,360.9l-0.1,0.4c0.3,0,0.4-0.1,0.5-0.4H325.9z M330.5,321.8h0.6c1,0,1.5,0.3,1.6,0.8l-0.1,0.6c-0.3,1.2-0.9,1.8-2,1.8h-0.4
		c-0.4-0.9-0.6-1.6-0.5-2C330.2,322.4,330.5,322,330.5,321.8z M337.7,319.1h0.6c0.2,0,0.4,0.3,0.6,0.8l-0.1,0.6
		c-0.2,0-0.5,0.1-0.9,0.4h-0.6c0.1-0.5,0.1-0.8-0.2-0.8C337.5,319.6,337.6,319.3,337.7,319.1z"/>
	<path d="M357.1,340h0.8c0.8,0.9,1.6,1.4,2.4,1.4h2c1,0,2.6,1.2,4.7,3.5h0.2c0.9-0.3,1.5-0.4,1.9-0.4c0.7,0,1.1,0.3,1.4,1
		c-0.1,0.3-0.6,1.1-1.7,2.5c1.3,2.6,1.8,4.5,1.5,5.7l0,0.4l-1,0.2h-0.4c-0.6,0-1.1-0.1-1.5-0.4c-0.7,0.2-1.1,0.6-1.2,1.2
		c1.2,1.3,2.1,2,2.9,2c0.2-0.5,0.4-0.8,0.7-0.8h1.2c1.1,0.2,1.6,0.7,1.4,1.6c0,0.2-0.5,0.8-1.5,1.8c2.3,2,2.8,6.1,1.5,12.3
		c0.7,1.3,0.9,2.2,0.7,2.9c-1.4,3.2-2.6,6.2-3.5,9.2c-0.7,1-1.5,2.7-2.2,5.1l1.4-1h0.2l0,0.2c-0.7,3.4-4.8,8.9-12.1,16.4
		c-5.9,5.1-10.4,8.1-13.5,9.2c-5.5,2.7-8.8,4.2-9.9,4.5c-1.1,0-1.7,0.1-1.8,0.2c-3.3,0-6.9-1.4-10.8-4.1c-5.3-5-6.9-12.4-4.9-22.1
		l0.2-1c0.2-0.7,0.4-1.6,0.8-2.7l0-0.2h-0.2c-1.4,2.7-2.2,4.1-2.4,4.1l-0.2-0.6l0.3-1.6l3.3-8c0.9-3.1,1.5-4.7,1.8-4.7l0.2-1
		c-0.5-1-0.7-1.5-0.8-1.6c2-4,3.1-6.2,3.1-6.4h-1c-0.3,0-0.4-0.1-0.3-0.4l0-0.2c2.2-3.5,5-6.8,8.2-10c2-1.2,3-2.2,3.2-3.1v-0.8
		c1.3-1.6,3.8-3.6,7.5-5.9c1.1-1.2,4-2.5,8.6-3.9c1.8-1.7,4.5-2.5,8.3-2.5l0.2-1c0-0.3,0.2-0.4,0.6-0.4l0-0.2L357.1,340z M363.9,357
		l-0.3,0.4l1.6,2l-0.2,0.8c-0.5,0.1-0.8,0.2-0.8,0.2l0,0.2c0.4,0.6,0.6,1.2,0.4,2l-0.2,1h-0.8c-1-1.9-2-3.6-3-5.1
		c-1.7,0.3-2.8,0.4-3.4,0.4c-0.3,0-1.2-0.5-2.6-1.4c-0.2,0.9-2.5,3.6-6.8,8c-1.4,2.2-4,4.7-7.6,7.4c-3.6,4-5.7,7.6-6.4,10.9
		c-1.3,5.1-2.3,7.6-3.2,7.6l-1.3,1.4c0.1,0.5,0,1.9-0.3,4.1c0.7,3.6,2,5.5,3.8,5.5c1.2,0.7,2.4,1,3.7,1c0.4,0,2.7-0.7,6.9-2.1
		c2,0,3.6-0.7,4.7-2.1c1.7-1.1,3.4-3,5.3-5.9c1.1-3.5,2.1-5.8,3-6.8c3-4.1,4.7-7.2,5.1-9.2c0.5-0.9,1.4-1.8,2.7-2.7
		c0.7-1.1,1.3-2.2,1.5-3.5c0.3-1.3,0.6-3.4,0.8-6.4c0.2-0.2,0.3-0.5,0.4-0.8h0.6c0.1,0,0.5,0.5,1.2,1.6h0.2c0.3,0,0.4-0.1,0.5-0.4
		c-0.4-2.8-1.8-5.3-4.1-7.4C364.8,357.4,364.3,357.3,363.9,357z M343.7,368.6l-0.1,0.4c0.3,0,0.4-0.1,0.5-0.4H343.7z M366.9,390.4
		l0,0.4h0.2l0-0.4H366.9z"/>
	<path d="M397.4,335.5c2.4,0,7.6,1.4,15.4,4.2c2.9,0.9,5.7,3.1,8.5,6.4c0.8,1,1.8,1.5,3,1.5c1.9,3.6,2.4,7.3,1.6,11.2
		c-1.4,4.2-4.5,8.6-9.2,13.3c-5.4,4.4-8.8,7.4-10.3,9.1c-4,1.9-6.6,3.4-8,4.5c-1.9,0.3-4.9,1.9-9.1,4.6c-1.8,1.2-5.2,1.9-10,1.9
		c-0.6,2.5-2.3,4.9-5.3,7.3c-0.6,0-1.5,1.9-2.5,5.6l-0.1,0.6c0.3,1.5,0.4,2.3,0.3,2.5l0,0.2c-2.2,4.5-3.5,7.1-3.6,7.9
		c-2,0.8-3.2,2.6-3.8,5.4c-0.2,1.1-0.9,2.1-2.1,3.1h-0.4c0.2-1.4-0.1-2.1-0.7-2.1c-0.3,1.4-2.2,5.1-5.9,11.2c-0.7,2.1-1.4,3.1-2,3.1
		l0-1l0.1-0.8c0.3-1.4,1.6-4.6,3.8-9.6l0.1-0.4c1-4.9,1.1-7.3,0.4-7.3c-0.1-0.2,0-0.6,0-1.1c1.1-3.8,1.8-6.2,2-7
		c-0.1-0.6-0.3-0.8-0.5-0.8c-0.1,0.3-0.2,0.4-0.5,0.4H358l0.2-0.8c0.5-2.4,2.8-7.5,6.7-15.1c0.6-1.3,0.9-2.2,1-2.5
		c-0.2,0-0.4-0.2-0.5-0.6l0.2-1.3l0.6-2.1c-0.2,0-1.2-0.5-2.8-1.5l0.1-0.4c0.1-0.3,0.3-0.4,0.5-0.4h2.6c0.2-0.7-1.8-2-6-3.7l0.1-0.4
		c0.1-0.3,0.3-0.4,0.5-0.4h1.1c2.1,0.8,3.6,1.2,4.8,1.2h0.6c1.3,0,2.8-1.9,4.3-5.8c0.2,0,1.2-2.1,3.1-6.2c0-0.7,0.1-1.4,0.2-1.9
		l0.2-0.8c1.9-3.7,3-6,3.1-6.6c0.6,0,1.3-1.6,2.1-4.8c1.5-2.8,2.7-4.2,3.6-4.2c0.1,0,2.1-0.9,6-2.7c2.2,0,3.6-0.1,4.2-0.2l0-0.2
		c-3.5-0.6-6.8-0.9-9.8-1c-0.5-0.5-1.5-1-3-1.7c-3.5,0.3-6.1,0.4-7.8,0.4l-0.1-0.4l2.5-1.7l0-0.2l-1.1-0.2c-1.3,0.4-3.5,0.8-6.6,1.1
		c-2.6,1.7-5.2,2.5-7.8,2.5c-1.1,0.7-2,1-2.6,1h-0.2c-0.3,0-0.4-0.1-0.3-0.4l0.1-0.4c11.3-4.9,17.8-7.3,19.3-7.3
		c2.3,0,4.7-0.8,7.3-2.5c1.5,0,2.2-0.1,2.2-0.2l1,0.2c1,0,3,0.1,5.9,0.2c1.6-0.3,2.4-0.4,2.5-0.4l0.1-0.4c-0.6,0-0.8-0.2-0.8-0.6
		l0-0.2L397.4,335.5z M356.8,380.2h1.1v1l0,0.4l-1.2,0.2h-0.4l0.1-1.5L356.8,380.2z M358.7,386h0.2c1.4,0.2,2,0.8,1.8,1.9l0,0.4
		c-1.6,0.5-2.4,0.7-2.4,0.8c-0.9,0-1.2-0.5-1-1.4l0-0.2C357.4,386.8,357.8,386.3,358.7,386z M375.5,345.1l0,0.2h0.4l0-0.2H375.5z
		 M384.7,348.6h1.6v1l0,0.2c-0.2,0-0.6,0.1-1,0.4h-0.6l-0.2-1C384.6,349,384.7,348.8,384.7,348.6z M386.1,390.8l0,0.2h0.2
		c0.3-0.2,0.6-0.2,0.7-0.2l0-0.2h-0.2C386.5,390.7,386.3,390.8,386.1,390.8z M402.1,347.8l-0.5,1.5l-1,4.8c0,0.1,0,0.2,0.2,0.2
		c-2.2,5.2-4,7.9-5.2,7.9c-2.1,2-3.9,4.8-5.2,8.5c-0.1,0.6-0.5,1.8-1.2,3.7c4.1-1.4,7.1-2.6,9.1-3.5c2.6-3.2,5.1-4.8,7.6-4.8
		c2.8-1.4,4.6-3.9,5.3-7.3c0.5-2.5-0.7-4.9-3.7-7.2C407.7,349.8,406,348.5,402.1,347.8z M397.5,336.2c0,0.3,0.1,0.4,0.3,0.4l0.1-0.4
		H397.5z"/>
	<path d="M459.4,325.8l-0.1,0.4l-2.1,6.8c-0.5,5.2-0.5,7.8,0.1,7.8c0.1,1.4-0.2,3.9-0.7,7.5c-1.7,4-2.7,7-3.1,8.7
		c-0.7,2.5-1,3.9-1.1,4.3c0.3,2.3,0.4,3.9,0.2,4.9l-0.3,1.4c-0.2,0.7-0.9,1.7-2.2,3L450,371c-0.2,0.9-0.4,3.2-0.6,7
		c0,0.5-0.5,3.4-1.5,8.5c-0.7,2.5-1.2,4.1-1.4,4.9c0,0.2,0.4,0.7,1.3,1.4v0.9l2.6,0.7c0.5,0.3,2.1,0.6,4.9,0.8l5,0.6
		c1.1,0.7-3,1.2-12.4,1.8l3.2,0.5l2.9,0.4c-7.4,1-11.1,1.9-11.3,2.7l-0.5,2.1c-0.6,2.7-0.5,4.8,0.2,6.4c0.1,0.2,0.1,0.5,0,0.9
		l-0.3,1.4c-0.2,0.7-0.6,2-1.2,4c-0.3,2.1-0.6,3.3-0.7,3.9c0,0.3-0.6,1.2-1.8,2.6c-0.3,2-0.6,3.5-0.8,4.5l-0.5,2.4
		c-0.1,0.2-0.2,0.3-0.4,0.3h-0.2c-0.2,0-0.3-0.5-0.3-1.6l-0.4-0.3c-0.3,0.4-0.5,0.9-0.6,1.4c-0.1,0.5-0.3,1.5-0.5,3.1
		c-2.5,5.3-3.9,8.4-4.1,9.2l-0.4,0.2H430c-0.2,0-0.3-0.1-0.3-0.3c0.4-1.6,1.2-4.5,2.6-8.5c0.2-1,0.4-3.2,0.5-6.4
		c0.3-1.3-0.1-2.5-1-3.5c0.6-6.2,0.7-9.2,0.2-9.2c0,0.1-0.1,0.3-0.3,0.7h-0.3c-0.4-0.1-0.5-1.1-0.3-2.8l0.7-3.1
		c0.3-1.5,0.7-3.1,1.2-4.9l0.2-2.4c-2.1,0.8-3.6,1.2-4.5,1.2h-0.3c0.1-0.5-0.2-0.9-1.1-1c-2.7,1.4-6.4,2.1-11,2.1h-0.5
		c-1.1,2-1.8,3.4-2,4.3c-0.1,0.2-0.1,0.9-0.1,2.1c-2.5,3.3-4.2,5.7-4.9,7.5c-3.2,2.3-4.9,4-5.1,5c-0.9,2.2-1.8,3.3-2.8,3.3l0.1-0.5
		l0.2-1.7h-0.3c-2.8,4.3-4.7,7.3-5.7,9.2c-0.3,0.1-1,1.1-2,3.1l-0.4,0.1h-0.3l0.1-0.7c0-0.2,1.5-3.4,4.3-9.6
		c1.5-3.4,2.3-5.4,2.4-5.9l0-0.2c0.1-0.2,0-1,0-2.2c2-3.6,3.3-6.3,4-8l0-0.3H403c-0.4,0.2-0.8,0.3-1.1,0.3c0.3-1.3,1.1-2.9,2.5-4.7
		c-0.2,0-0.3-0.1-0.3-0.2l-0.4,0.2h-1.1c-1.8-0.8-2.8-1.2-3.2-1.2h-1.6c-0.3,0-0.5,0-0.7,0.1c-0.6-0.1-0.8-0.3-0.8-0.5l0.1-0.3
		c0.5,0,0.9-0.3,1.4-0.8l0.1-0.4h-1.6c-1,0-3.2-0.2-6.4-0.5h-2.6l0.1-0.3c0.1-0.7,3.1-1.1,9-1.2c2.9-0.7,4.4-1.4,4.5-2
		c0.1-0.6,1.5-1,4.3-1.2l0.8-0.7l0-0.1l-0.2-0.5c0.1-0.3,1.8-0.6,5.3-1c1.1-1.6,1.8-2.9,2.2-3.9l-0.3-0.9l0.1-0.5
		c0.2-1,2.7-4.7,7.3-11.2c0.8-1.7,2.5-4.4,5-8c0.4-2.1,1.2-3.7,2.2-4.8h-0.1c-1.5,1.7-2.7,2.6-3.6,2.6c-0.1-0.2-0.1-0.4,0-0.5
		c3-3.9,4.7-6.6,5-8c0.4-1.8,1.7-3.7,4-5.6c0.6,0,1.4-0.8,2.4-2.4c0.9,0,1.5-0.4,1.7-1.2c-0.2-0.4-0.2-0.7-0.1-1
		c0.1-0.5,0.9-1.6,2.5-3.3c0.2-1,1.2-1.7,3.1-2.2c2.6-2.7,4.1-5.1,4.5-7.3c0.7-1.1,2-2.4,3.8-3.8c1.1,0.3,1.7,0.5,2,0.5
		c1-2.3,1.7-3.5,2.3-3.5h0.3l-0.2,1.8l-0.2,0.9h0.5C457.2,327.7,458.5,325.8,459.4,325.8z M406.6,394.9l-0.1,0.3h0.2l0.1-0.3H406.6z
		 M423.2,369.7h0.7c0,0.2,0,0.4,0.2,0.7c-0.4,0.5-0.7,0.8-0.9,0.9h-0.5c0-0.2,0-0.4-0.2-0.7l0-0.3
		C422.5,370,422.8,369.8,423.2,369.7z M425.6,391.1h0.5c2.9-0.2,4.9-0.6,6.1-1.4c0-0.2,0.5-0.3,1.3-0.3c0.1,0,0.1,0,0.1,0.1
		c0.6-0.1,1-0.4,1.1-1l0.1-0.7c0.2-0.8,0.2-1.5,0-1.9c1-3.5,1.9-7.3,2.7-11.3c0.1-0.2,0.1-0.7,0.2-1.8c-0.2,0-0.7,0.9-1.6,2.8
		c-0.7,0.8-1.7,1.4-3,1.8l-3.8,7.8C427.7,388,426.5,389.9,425.6,391.1z M431.5,412.8l0,0.2h0.3l0-0.2H431.5z M436.9,428.5l-0.1,0.3
		h0.2l0.1-0.3H436.9z M451.8,391.6h0.5c0.8,0,1.1,0.5,0.9,1.6c-0.3,0.6-0.6,0.8-1,0.8l-1.6,0.1c0-0.2,0-0.4-0.2-0.7l0.1-0.5
		C451.2,392,451.6,391.6,451.8,391.6z M452.7,324.8c1.2,0,1.7,0.2,1.7,0.5c-0.1,0.3,0,0.5,0,0.5c-0.4,1.2-0.9,1.8-1.4,1.8
		c-0.7-0.3-1.1-0.7-1.3-1.4C452.1,325.2,452.4,324.8,452.7,324.8z M455.1,350.2l-0.1,0.7h0.2l0.1-0.7H455.1z M459.2,322h0.3l0,0.9
		l0,0.1c-0.1,0.3-0.2,0.4-0.5,0.4h-0.9l0-0.9l0.1-0.3L459.2,322z"/>
	<path d="M500.3,315c0.3,0,0.4,0.2,0.3,0.4l0,0.2c-2.5,5.2-4,8.8-4.4,10.7h6.6c2.5,0,3.9,0.4,4.2,1.2c0.5,0.3,1.2,0.4,2.1,0.4h0.4
		c3.4,0,5.7-0.6,7-1.8l1.2-0.2h0.6c1,0,2.6,0.2,4.8,0.6c0.1,0,0.9-0.1,2.5-0.2l3.6,1.8c0.8,0,1.2,0.1,1.1,0.2l1-0.2h1.2
		c1.7,0.1,2.4,0.4,2.3,0.8v0.2c-0.1,0.3-0.7,0.5-2,0.8l-0.3,0.4v0.2c9,1,13.7,1.8,14.4,2.1l-0.1,0.6c-1.1,0.3-1.9,0.4-2.2,0.4
		c-1.7,0-4.3-0.1-7.7-0.4c-3.4,0.4-6,0.6-8,0.6h-0.4c-1,1-2.9,1.6-5.6,1.6h-2.9c-1,0-1.6,0.3-1.9,0.8c0.2,0,0.3,0.2,0.4,0.6v0.2
		l-2,0.2h-1.6c-1.4,0-2.4,0.1-2.8,0.2c-1.2-0.1-2.4-0.2-3.5-0.2h-8.6c-0.5,0-1.4,0.5-2.9,1.6c-0.7,0-1.2,0.1-1.4,0.2
		c-0.7-0.1-1.3-0.2-1.7-0.2h-0.2l-1.4,0.2l-0.1,0.4c0.7,0,1,0.1,0.9,0.4c-1.2,4-2.1,6.1-2.7,6.1c-1.6,0.4-2.8,2.1-3.4,4.9
		c-0.3,1.2-1.5,2.9-3.6,5.1c-0.1,0.3-0.7,1.5-1.9,3.5l-0.2,2l-0.1,0.8c-0.3,1.5-1.3,2.5-3,3.1c-1,4.9-2.5,8.5-4.4,10.7
		c-1.3,3-2.4,4.5-3.3,4.5c-1.5,0.8-2.5,2.4-3,4.7c0,0.8,0.1,1.7,0.4,2.5c-2,4.4-3.4,6.6-4.3,6.6c-0.6,0-2.2,3.6-4.8,10.9
		c-1.9,1.3-3.2,4.1-4.1,8.2c-0.2,1-0.1,2.6,0.2,4.7l-0.1,0.4c-2.5,6.4-3.8,9.7-3.9,10c-1.8,0.9-3.1,3.7-4.1,8.2
		c-0.5,1.3-1.1,2-1.6,2l0-0.2l0-2.3c-0.6,0-1.4,1.7-2.5,5.1c-2.7,4.1-4.7,7.5-5.8,10l-0.4,0.2c-0.3,0-0.4-0.1-0.3-0.4l0.1-0.6
		c1.1-2.8,2.8-6.5,5-11.3c0-1.2,0-2,0.1-2.3c0.5-1.9,0.9-3.2,1-3.9c0-0.2-0.2-1.2-0.7-2.9l0-0.2c0.1-0.5,0.6-2,1.5-4.5l1-4.7h-0.2
		c-0.3,0-0.4,0.2-0.5,0.6h-0.4c-0.3,0-0.4-0.1-0.3-0.4c0.1-0.7,2.4-8,6.8-22.1c0-0.1-0.2-0.6-0.7-1.4l0-0.2
		c0.7-3.6,4.2-11.7,10.4-24.2c0.7-3.1,1.8-5.9,3.6-8.4c0.3-1.4,1-2.9,2.3-4.5c1.5-5.1,2.8-7.9,4-8.4l1.5-1.8l0-0.2l-0.9-0.2l0-0.2
		c0.7-1.2,1.4-2.8,2.1-4.7c-0.7,0-1.1-0.3-1.2-0.8l0.1-0.6l0.3-0.4c-0.1,0-0.2-0.1-0.1-0.2l-1,0.2h-1.4l-7.3,1.2h-1.2
		c-0.6,0-1.9-0.6-4-1.8c-1,0-2.1-0.7-3.3-2c-3.8-1-5.6-2.1-5.4-3.3c0.5-0.8,0.7-1.4,0.8-1.8l0.1-0.4c-2.2-0.5-3.3-0.9-3.2-1.4
		c0.3-0.3,1.3-0.7,2.8-1.2l0-0.2c-3.9-0.7-5.8-1.3-5.7-2l0.1-0.6c0.7,0,1-0.1,1-0.2l2.7,0.2c6.2,0,11.4-0.3,15.6-1h2
		c0.9,0,2.5,0.5,4.8,1.4c0.5,0.1,1,0.2,1.7,0.2h0.2c1.4,0,4.3-0.7,8.5-2.1c0.8,0,1.8-0.6,2.9-1.8c-0.2-0.4-0.2-0.7-0.2-1
		c0.2-0.8,0.8-1.2,1.9-1.2h1c-0.2,1,0.2,1.6,1.2,1.6l0-0.2c0.7-1,1.3-1.6,1.7-1.8h0.2l0.5,1.2c0.1,0,0.3,0.1,0.5,0.2
		c1.5-3.4,2.6-5.1,3.2-5.1c0.2,0.4,0.3,0.7,0.2,1c-0.5,1.6-0.8,2.7-0.9,3.5l0.4-0.2h0.2c0.2,0,0.3,0.2,0.4,0.6l-0.2,1h0.8
		c3.1-4.3,5.3-7.7,6.7-10.4L500.3,315z M438.6,330h1.2v1l-0.1,0.4l-1,0.2h-0.2c-0.3,0-0.4-0.2-0.3-0.6L438.6,330z M441.3,334.9h0.8
		c1,0,1.5,0.3,1.6,0.8l-0.2,1c-0.7,0.7-1.3,1-2,1h-0.4c-0.5-0.2-0.6-0.7-0.5-1.4L441.3,334.9z M445.8,437.1l0,0.4h0.2l0-0.4H445.8z
		 M466.2,329.2l0,0.2h0.4l0-0.2H466.2z M484.5,319.1h0.6c1,0,1.5,0.3,1.6,0.8l-0.2,1c-0.3,0.9-0.8,1.4-1.5,1.4
		c-1-0.3-1.4-0.9-1.2-1.8l0.1-0.6C484.3,319.5,484.5,319.3,484.5,319.1z M489.1,319.9h1.2l0,1l0,0.4l-1,0.2h-0.4
		c0.1-0.3,0-0.6,0-0.8C488.9,320.4,489,320.2,489.1,319.9z M491.1,315.6h1.2v1l-0.1,0.4l-1,0.2h-0.4c0.1-0.3,0.1-0.6,0-0.8
		C491,316.1,491.1,315.9,491.1,315.6z"/>
	<path d="M549.3,323.6c0.3,0,0.4,0.2,0.3,0.4l-0.2,0.8c-1.2,2.2-2.2,5.2-3,8.8l-0.7,3.3c0.4,0.4,0.6,0.8,0.5,1.2
		c0,0.1-0.4,0.8-1.3,2.3l-0.2,1c-0.3,1.6-1.3,4.7-3,9.4c-0.3,1.8-0.5,3.4-0.8,4.7c-0.3,1.3-3.2,5.9-8.8,13.7l-0.3,1.6l0,1.2
		c-1.3,3.5-2.4,5.3-3.3,5.3c-1,0.5-1.6,1.2-1.8,2.1h1.2c0.5,0,0.7,0.5,0.4,1.6h1.2c0.1,0.8,0.1,1.4,0,1.8l-0.1,0.6
		c-0.9,0.3-1.5,0.4-1.9,0.4h-1c0.1-0.2,0-0.5-0.2-0.8l0.1-0.6l0.3-0.4h-0.6c-0.3,0-0.9,1.2-1.8,3.7c0.9,0,1.7,0.6,2.3,1.8
		c0,0.3-0.7,0.4-2,0.4l0,0.2c1.1,0,2.5,0.1,4.4,0.4l-0.1,0.6c-0.1,0.4-2.3,1-6.8,1.8c-1.3,1.7-2.9,4.6-5,8.6c-3,2.3-4.6,4-4.8,5.3
		c-0.9,2.4-1.4,3.8-1.6,4.1c0.2,0.9,0.3,1.8,0.2,2.7l-3.7,6.2c-0.4,1.8-1.4,2.9-3.3,3.5c-0.6,0.4-1.7,2.3-3.4,5.9
		c-0.9,1-1.5,1.6-1.7,1.6c-0.4,0-0.4-0.8,0-2.5c-0.9,0.1-1.5,0.8-1.8,2.1l-6.4,9.8c-0.7,2.1-1.5,3.1-2.4,3.1l-0.1-0.4l0-0.2
		c1.4-3.5,3.4-7.7,6-12.7c0-0.7,0.1-1.3,0.2-1.8c0.9-1.9,1.4-3,1.4-3.1l0.1-0.4c0.1-0.4,0-1.3-0.2-2.7l0-0.2c2.1-5.2,3.3-8,3.4-8.6
		h-0.2l-0.6,0.4h-0.4c-0.3,0-0.4-0.1-0.3-0.4c1.2-2.8,4-8.1,8.3-16c0.5-0.4,0.9-1.2,1.1-2.5l0.1-0.4c0.1-1-0.3-1.6-1.2-1.6
		c-1.3,0.7-2.6,1-3.8,1h-0.8c-0.2-1-0.7-1.6-1.4-1.6l-3.9,1h-0.8c-0.3,0-1.4-0.3-3.1-1c-0.3,1.2-1.2,3-2.9,5.3
		c-2.8,5.6-4.8,8.4-6.1,8.4c-1,0.7-2,2.4-3.1,5.3c-0.3,0.7-0.5,1.4-0.7,2.1c0.1,1.3,0.1,2.1,0,2.5c-2.2,3.6-3.4,5.7-3.5,6.4
		c-0.9,2.1-1.9,3.1-3,3.1c-0.6,0.5-1.6,2.4-3,5.9c-1,0.9-1.5,1.4-1.7,1.4H468l0.1-1.4l0.2-1h-0.8c-0.4,1.7-2.8,4.9-7.3,9.6
		c-1,2-2,2.9-2.8,2.9l0-0.2c0.3-1.6,2.2-4.5,5.8-8.8c0.3-0.6,1.1-3.2,2.4-7.8c-0.5-0.9-0.6-1.5-0.5-2c1.1-2.2,1.8-4.1,2.1-5.7
		c0.5-1.6,0.7-2.5,0.7-2.5h-0.2c-0.4,0.3-0.6,0.4-0.6,0.4h-0.2l-0.4-0.2c3.7-8.3,6.9-14.4,9.4-18.2l0.2-1.2c0.1-0.4,0-0.9-0.3-1.4
		c1.6-3.4,2.4-5.1,2.5-5.3c-3-0.7-4.4-1.4-4.3-2l0-0.2c1.1-0.3,1.7-0.7,1.8-1.2l-7.6-3.7c-1.8,0-2.7-0.5-2.6-1.6l0.4-0.2
		c2.8,0.7,4.4,1,4.7,1c0.3-0.7,0.8-1,1.6-1h0.2c1,0,1.5,0.4,1.3,1.2c-0.2,0.8,0.4,1.2,1.7,1.2h0.6c0.3,0,0.7-0.8,1.3-2.5
		c-1.2-0.4-1.8-1-1.6-1.8c1-0.2,1.5-0.5,1.6-0.8c-0.1-0.2-1.4-0.9-4.1-2.1l-0.2-0.6c0.5-0.3,0.9-0.4,1.2-0.4
		c2.8,0.4,4.8,0.6,6.2,0.6h1.8c1.7-0.7,2.8-1,3.3-1l0,0.2c0.4-0.1,0.8-0.3,1.2-0.8v-1c0.1-0.6,1-2.2,2.6-4.9c0.2-1,0.8-2.1,1.9-3.3
		c0.9-4.4,3-7.5,6.3-9.4c1.4-1.1,3.6-3.4,6.6-7c0.1,0,0.5-0.1,1.3-0.4c1,0.4,1.8,0.6,2.4,0.6c0.8-1.7,1.7-2.5,2.7-2.5
		c0,1.2,0,2-0.1,2.3h0.2c2.2-3.6,3.8-5.5,4.7-5.5l0.1,0.4l-0.1,0.6c-1.9,4.3-3.5,8.2-4.6,11.7c-0.1,1.9-0.3,3.2-0.4,3.9l-0.2,1
		c-0.3,1.3-2.5,4.7-6.6,10.2c-1.7,2.4-2.8,4.9-3.3,7.2c2,0,3.6-0.6,4.8-1.8c4.6,0.3,6.9,0.7,6.7,1.4h0.2c0.3-1.2,1-1.8,2.1-1.8
		c1.3,0,2.1-0.5,2.3-1.6c0-0.2,0.2-0.6,0.6-1.2c0.1-0.9,0.1-1.6,0.2-2.1l0.2-1c0-0.1,0.5-1,1.3-2.5l-0.2-0.6l0.1-0.6
		c2-4,3.1-6.6,3.4-7.8h-1.2c0.1-0.4,0-0.7-0.1-1.2c0.6-2.7,1.5-4.1,2.8-4.1c1.7-1.2,2.8-3.2,3.4-6.1c-0.2-0.4-0.2-0.8-0.1-1.2l0-0.2
		l2.1-4.7l0.7-3.1c0.2-1.1,2-2.6,5.4-4.5c1-1.4,2.4-2.6,4.3-3.5h0.2c0.9,0,1.8,0.2,2.8,0.6c0.7-1.2,1.5-1.8,2.3-1.8
		c0,0.7,0.1,1.2,0.4,1.6c0.4,0,1.1-0.9,2-2.7C548.3,324.3,549,323.6,549.3,323.6z M467.7,412.5l-0.1,0.4h0.2l0.1-0.4H467.7z
		 M468.7,429.1l0,0.4h0.2l0-0.4H468.7z M469.7,373.6h0.8l0,1v0.2c-0.1,0.3-0.2,0.4-0.5,0.4h-1c0.1-0.3,0-0.6,0-0.8
		C469.3,373.8,469.5,373.6,469.7,373.6z M498.6,409.9l-0.1,0.4h0.2l0.1-0.4H498.6z M499.2,427.1l-0.1,0.4h0.4l0.1-0.4H499.2z
		 M508.3,339c1.2,0,1.6,0.5,1.4,1.6c-0.3,1.2-1,1.8-2.1,1.8c-0.7-0.7-0.9-1.5-0.7-2.3C507.7,339.3,508.1,339,508.3,339z
		 M515.1,336.5h0.8c0,0.3,0.1,0.4,0.3,0.4c-0.2,0.7-0.5,1.1-1.1,1.4h-0.6c0-0.2,0-0.5-0.2-0.8l0.1-0.4
		C514.5,336.9,514.7,336.7,515.1,336.5z M530.2,384.9h1v1l-0.1,0.4l-1,0.2h-0.4v-1l0-0.2C529.8,385,530,384.9,530.2,384.9z
		 M532.3,385.9h0.6c0.4,0,0.5,0.3,0.4,0.8c-0.1,0.2-0.4,0.5-1,1c-0.6-0.3-0.8-0.5-0.8-0.8l0.1-0.4
		C531.7,386.3,531.9,386.1,532.3,385.9z M537.3,360.9l-0.1,0.4c0.3,0,0.4-0.1,0.5-0.4H537.3z M541.9,321.8h0.6c1,0,1.5,0.3,1.6,0.8
		l-0.1,0.6c-0.3,1.2-0.9,1.8-2,1.8h-0.4c-0.4-0.9-0.6-1.6-0.5-2C541.6,322.4,541.8,322,541.9,321.8z M549.1,319.1h0.6
		c0.2,0,0.4,0.3,0.6,0.8l-0.1,0.6c-0.2,0-0.5,0.1-0.9,0.4h-0.6c0.1-0.5,0.1-0.8-0.2-0.8C548.8,319.6,549,319.3,549.1,319.1z"/>
</g>
</svg>
