<?xml version="1.0" encoding="utf-8"?>
<!-- Generator: Adobe Illustrator 25.4.1, SVG Export Plug-In . SVG Version: 6.00 Build 0)  -->
<svg version="1.1" id="Layer_1" xmlns="http://www.w3.org/2000/svg" xmlns:xlink="http://www.w3.org/1999/xlink" x="0px" y="0px"
	 viewBox="0 0 612 792" style="enable-background:new 0 0 612 792;" xml:space="preserve">
<g id="layer1" transform="translate(1028.5 -486.78)">
	<path id="path2954" d="M-722.4,904.2c2.1,0,2.3-0.1,6.1,4.8c2.2,2.9,7,9,9.6,12.7l38.2-0.1c4.8-0.2,5.3-0.8,7.3-2.2
		c3.6-2.6,7-7,14.9-19.3c2.4-3.7,5.4-8.5,6.8-10.5c2-3.3,1.3-3.8,6.6-4.9c-3.9,9.6-8.8,20.9-12.2,26c-6.5,9.9-16.9,20.5-37.6,27.2
		c16-2.8,21.1-7.7,31.8-16.4c-7.3,15-17.4,28.5-26.7,42.2c21-22.4,41.2-47.2,52-76.3c1.9-5.7,4-13.5,3.7-13.8c-4,4.4-8.8,9.4-19,9.6
		c-15.5,0.4-27.4-4.4-38.6-12.8c-1.2,0.9-2.6,1.6-2.6,3.4c0,1.6,1.8,3.5,5.3,5.5c5.8,3.3,20.7,7.1,27.5,7.1c0.9,0,1.6,0.1,1.6,0.2
		s-4,5.2-8.9,11.3c-7.5,9.3-9.1,11.1-10.1,11.5c-2.5,0.9-16.5,0.3-24-1c-3.6-0.6-5.2-1.3-7.1-3c-3.5-3.6-6.2-8-9.7-11.4
		c-4,1.5-8.2,3-14.8,3.1c-5.2,0.1-10-1.3-14.8-3.1c-3.6,3.4-6.2,7.8-9.7,11.4c-1.9,1.7-3.5,2.4-7.1,3c-7.5,1.3-21.5,1.8-24,1
		c-1.1-0.4-2.7-2.2-10.1-11.5c-4.9-6.1-8.9-11.2-8.9-11.3c0-0.1,0.7-0.2,1.6-0.2c6.8,0,21.7-3.9,27.5-7.1c3.5-2,5.3-3.8,5.3-5.5
		c0-1.8-1.5-2.5-2.6-3.4c-11.2,8.4-23.1,13.2-38.6,12.8c-10.2-0.2-15-5.2-19-9.6c-0.2,0.2,1.9,8.1,3.7,13.8
		c10.8,29.1,30.9,53.9,52,76.3c-9.4-13.7-19.5-27.2-26.7-42.2c10.7,8.7,15.8,13.6,31.8,16.4c-20.6-6.6-31-17.2-37.6-27.2
		c-3.3-5-8.3-16.4-12.2-26c5.4,1.1,4.6,1.6,6.6,4.9c1.3,2,4.4,6.7,6.8,10.5c7.9,12.4,11.3,16.7,14.9,19.3c2,1.4,2.5,2,7.3,2.2
		l38.2,0.1c2.6-3.7,7.4-9.8,9.6-12.7C-724.7,904.1-724.5,904.2-722.4,904.2L-722.4,904.2z M-786.2,758.2
		c-13.3,0.1-25.4,7.7-31.5,27.8c10.8-5.7,24.8-5.6,36.8-1.5c16,5.5,29.6,18.1,41.5,34.5c-1.3-9.5-5.3-19.4-7.8-24.5
		c2.3,0.4,5.6,1.5,7.1-0.3c1.6-1.9,0.3-3.9-1.2-5.5c-12.5-13.1-29.4-21.6-47.6-22.3c11.8-0.5,26.6,1.4,39.8,6.7
		C-760.1,764.5-773.7,758.1-786.2,758.2L-786.2,758.2z M-658.6,758.2c-12.5-0.1-26.2,6.3-37,14.9c13.2-5.3,28-7.2,39.8-6.7
		c-18.2,0.7-35.1,9.2-47.6,22.3c-1.5,1.6-2.8,3.6-1.2,5.5c1.4,1.8,4.7,0.6,7.1,0.3c-2.5,5.1-6.5,15-7.8,24.5
		c11.8-16.4,25.5-29,41.5-34.5c12-4.1,25.9-4.2,36.8,1.5C-633.1,765.9-645.2,758.4-658.6,758.2L-658.6,758.2z M-778.5,806.5
		c-6,0.1-11,0.9-14.8,2.6c-7.5,3.2-12,15.7-18.7,16.4c-6,0.6-9.5-7.7-12-12.2c1.6,5,4.3,10.2,7.6,13.8c-3.5,2.2-7.1,4.4-9.7,7.6
		c4.5-3.1,9-6.1,13.2-5.6c-5,2.7-12,6.5-15.5,12.7c5.9-5.8,13.1-11.1,21.7-10.7c2.5,0.1,3.2,0.3,6.3,1.8c7.6,4.4,16,4.5,24.4,4.4
		v-5.2c-6,0-12-0.8-17.9-1.9c-2.5-0.6-6.7-2.6-7.6-3.6c-0.6-0.6-0.6-0.8,0.2-2.5c1.9-4.6,5.1-8.3,9.1-10.7c4.8-3,10.6-3.6,16.2-3.4
		c0,0,0,0,0.1,0v-3.5c0,0-0.1,0-0.1,0c-0.4,0-0.9,0-1.3,0C-777.7,806.5-778.1,806.5-778.5,806.5L-778.5,806.5L-778.5,806.5z
		 M-667.5,806.5c-0.4,0-0.9,0-1.3,0c0,0-0.1,0-0.1,0v3.5c0,0,0,0,0.1,0c5.6-0.2,11.3,0.4,16.2,3.4c4,2.5,7.1,6.1,9.1,10.7
		c0.7,1.8,0.8,1.9,0.2,2.5c-0.9,0.9-5.1,3-7.6,3.6c-5.9,1.2-11.9,1.9-17.9,1.9v5.2c8.4,0.1,16.8,0,24.4-4.4c3-1.4,3.8-1.6,6.3-1.8
		c8.6-0.5,15.8,4.8,21.7,10.7c-3.4-6.2-10.5-10-15.5-12.7c4.2-0.5,8.7,2.5,13.2,5.6c-2.5-3.2-6.2-5.5-9.7-7.6
		c3.4-3.6,6-8.8,7.6-13.8c-2.5,4.4-6,12.8-12,12.2c-6.7-0.7-11.3-13.1-18.7-16.4c-3.8-1.6-8.8-2.5-14.8-2.6
		C-666.7,806.5-667.1,806.5-667.5,806.5L-667.5,806.5L-667.5,806.5z M-772,807v3.4c9,1.4,19.3,6.6,21.7,11.3
		c-7-4.9-15.2-8.8-23.8-8.7c-5.6,0.1-12.7,1.5-18.2,4.6c-2.8,1.5-6.7,5-6.8,6.1c-0.3,4.2,18.6,6.5,25.3,6.2
		c7.9-0.3,15.9-0.7,22.9-4.2c-4,5.4-13.5,6.2-21.2,6.5v5.1c12.1-0.7,26.9-6.1,26.8-13.2C-745.3,813.3-763.5,808.4-772,807L-772,807z
		 M-672.7,807c-8.5,1.4-26.7,6.3-26.8,17.1c-0.1,7.1,14.8,12.5,26.8,13.2v-5.1c-7.7-0.2-17.2-1-21.2-6.5c7,3.5,15,3.8,22.9,4.2
		c6.8,0.3,25.6-2,25.3-6.2c-0.1-1.1-4-4.5-6.8-6.1c-5.5-3-12.5-4.5-18.2-4.6c-8.7-0.1-16.8,3.8-23.8,8.7c2.4-4.8,12.7-9.9,21.7-11.3
		L-672.7,807L-672.7,807z M-735.8,812.6c0,21-3.3,35.7-16.6,51.8c-3,3.6-6.5,7.5-6.6,12.4c-0.1,3.7,1.6,7,3.8,10.2
		c-1.3-3.1-2.2-6.2-1.8-9.6c0.3-3,2.4-5.1,8.5-11.1c5.9-5.8,7-7.2,8.1-6c0.5,0.5,0.4,3.5-0.3,8.8c-1,7.7-0.6,13,1,16.2
		c1.7,3.3,6.1,6.1,12.2,7.5c1.3,0.3,3.2,0.4,5.1,0.4s3.8-0.1,5.1-0.4c6-1.4,10.5-4.1,12.2-7.5c1.6-3.2,2-8.5,1-16.2
		c-0.7-5.3-0.7-8.3-0.3-8.8c1.1-1.2,2.2,0.2,8.1,6c6.1,6,8.2,8.1,8.5,11.1c0.4,3.4-0.5,6.5-1.8,9.6c2.2-3.2,3.9-6.5,3.8-10.2
		c-0.2-4.9-3.7-8.8-6.6-12.4c-13.3-16.1-16.6-30.8-16.6-51.8c-2.3,11-2,27.6-1.6,41.8c0.3,9,1,14.9,1.9,20.3c0.9,5.2,0.8,9.1-1,10.6
		c-3.4,2.8-8.2,3.8-12.8,3.8c-4.6,0-9.3-1-12.8-3.8c-1.8-1.5-1.9-5.4-1-10.6c0.9-5.4,1.7-11.3,1.9-20.3
		C-733.8,840.2-733.5,823.6-735.8,812.6L-735.8,812.6z M-747,886.4c-0.5,0-1,0.1-1.4,0.2c-0.8,0.2-0.9,1.5,0.1,2.8
		c1.1,1.3,2.3,2,4.9,2.6c2.5,0.6,3.9,0.6,4.1-0.2C-738.7,888.8-743.6,886.3-747,886.4L-747,886.4z M-697.7,886.4
		c-3.5-0.1-8.4,2.4-7.7,5.4c0.2,0.8,1.6,0.8,4.1,0.2c2.6-0.6,3.8-1.3,4.9-2.6c1-1.3,0.9-2.5,0.1-2.8
		C-696.8,886.5-697.3,886.4-697.7,886.4L-697.7,886.4z M-749.8,923.1c-0.6,0.5-1.4,1-1,1.7c0.5,0.8,5.2,1.9,11.9,2.2
		c10.9,0.5,21.9,0.7,32.8,0c6.7-0.4,11.5-1.5,11.9-2.2c0.4-0.7-0.4-1.2-1-1.7H-749.8L-749.8,923.1z M-736,943.8
		c4.2,4.9,6.6,7.5,6.5,11.2c0,7-3.1,7.8-2.8,19c0.3,9,1.7,14.8,2.5,20.5c2,13.5,4.3,13.7,7.3,13.7s5.3-0.2,7.3-13.7
		c0.8-5.7,2.3-11.5,2.5-20.5c0.3-11.2-2.7-12-2.8-19c0-3.7,2.4-6.3,6.5-11.2H-736z"/>
</g>
<g>
	<path d="M149,461.1c1.2,2.4,2.4,8.4,3.8,18.1c0.5,3.5,0,7.8-1.6,12.8c-0.5,1.5-0.4,2.8,0.1,4c-2.3,4.3-5.3,7.4-9.1,9.3
		c-4.4,1.5-9.8,1.5-16.2,0.2c-6.5-2.3-10.9-3.6-13.1-3.8c-3.6-2.6-6.2-4.2-7.9-4.7c-1.2-1.6-4-3.6-8.5-5.8c-2-0.9-4.2-3.8-6.5-8.6
		c-2.4,1.2-5.4,1.1-9-0.2c-0.3-0.6-2.4-0.1-6.2,1.4l-0.6,0.3c-1.2,1.3-1.9,2-2,2.1l-0.2,0.1c-5.1,0.9-8,1.5-8.7,1.9
		c-1.6-1.4-3.8-1.4-6.6,0c-1.1,0.5-2.3,0.5-3.8,0l-0.2-0.4c1.3-0.7,1.8-1.4,1.5-2.1c-1.4,0.7-5.6,1.3-12.7,2
		c-2.2,0.8-3.4,0.8-3.7,0.2l0.9-0.7l0.8-0.4c1.4-0.7,4.8-1.7,10.3-2.9l0.4-0.2c4.8-2.4,7-3.9,6.7-4.6c0.1-0.2,0.5-0.4,1-0.7
		c3.9-1.6,6.3-2.6,7.1-3c0.5-0.5,0.6-0.8,0.5-1.1c-0.3,0.1-0.5,0-0.6-0.2l-0.2-0.4l0.8-0.4c2.4-1.2,7.9-2.5,16.6-3.9
		c1.5-0.4,2.3-0.6,2.7-0.8c-0.1-0.2,0-0.5,0.3-0.9l1.3-0.6l2.1-0.8c-0.1-0.2-0.1-1.4,0-3.7l0.4-0.2c0.3-0.1,0.5,0,0.7,0.2l1.3,2.6
		c0.7-0.4,0.9-3.2,0.4-8.4l0.4-0.2c0.3-0.1,0.5,0,0.6,0.2l0.6,1.1c0.3,2.6,0.7,4.4,1.2,5.5l0.3,0.6c0.6,1.3,3,1.4,7.2,0.3
		c0.1,0.1,2.5-0.3,7-1.3c0.7-0.5,1.3-0.8,1.8-1.1l0.8-0.4c4.2-0.7,6.7-1.2,7.3-1.5c0.3,0.6,2.1,0.2,5.3-1.2c3.2-0.5,5-0.3,5.4,0.6
		c0.1,0.1,1.8,1.5,5.3,4.1c1.1,2.2,1.9,3.6,2.3,4l0.2-0.1c-1.2-3.9-2.5-7.3-3.9-10.4c0.2-0.8,0.2-2.2,0.1-4.1
		c-1.9-3.2-3.3-5.7-4.1-7.3l0.3-0.4l2.7,1.4l0.2-0.1l-0.3-1.3c-1-1-2.4-2.9-4.1-5.8c-2.7-1.4-4.7-3.4-5.9-5.9
		c-1.2-0.6-1.9-1.3-2.2-1.9l-0.1-0.2c-0.1-0.3-0.1-0.5,0.2-0.7l0.4-0.2c9.8,7.8,15.1,12.5,15.8,14.1c1.1,2.2,3,4.1,5.7,5.5
		c0.7,1.4,1.1,2.1,1.3,2l0.3,1.2c0.5,1.1,1.4,3.1,2.7,6c1,1.3,1.5,2,1.5,2.1l0.4-0.2c-0.3-0.6-0.2-0.9,0.2-1.1l0.2-0.1L149,461.1z
		 M85.6,457.9l0.1,0.2c0.6,1.5,0.3,2.5-0.8,3.1l-0.4,0.2c-1.2-1.2-1.8-1.8-1.9-1.7c-0.4-0.9-0.2-1.5,0.8-2l0.2-0.1
		C84.3,457.1,84.9,457.3,85.6,457.9z M89.8,452l0.5,1.1l-0.9,0.8l-0.4,0.2l-0.8-1l-0.2-0.4l1.3-0.9L89.8,452z M94.7,488.3l-0.2,0.1
		l0.1,0.2c0.3,0.2,0.5,0.4,0.5,0.5l0.2-0.1l-0.1-0.2C94.9,488.6,94.7,488.5,94.7,488.3z M140.4,474.2l-1.6,0.4l-4.7,2.3
		c-0.1,0.1-0.2,0.2-0.1,0.4c-5.7,1.4-8.9,1.5-9.5,0.3c-2.8-0.7-6.1-0.4-10,0.9c-0.6,0.3-1.9,0.7-3.9,1.4c3.2,3,5.7,5.2,7.5,6.5
		c4.1,0.4,6.7,1.7,7.9,4.2c2.6,1.8,5.6,1.8,9,0.2c2.5-1.2,4-4.1,4.6-8.7C141.4,481.2,141.7,478.6,140.4,474.2z M129.9,446.1
		l-0.2,0.1l0.2,0.4l0.2-0.1L129.9,446.1z M131.3,457.7l0.8,1.5l-0.9,0.7l-0.2,0.1c-0.1-0.2-0.4-0.5-0.9-0.7l-0.3-0.6l0.8-0.9
		C130.9,457.8,131.2,457.8,131.3,457.7z M148.5,461.6c-0.2,0.2-0.3,0.4-0.2,0.6l0.4-0.2L148.5,461.6z"/>
	<path d="M174.4,509.6l1,1.2c2.6,3.7,3.7,5.8,3.3,6.2c0.1,1,0.4,2.4,1,4.1c-0.3,1.3-0.3,3.4,0.1,6.4c-0.3,1.4-0.9,2.5-1.7,3.2
		c-0.7,0.6-1.7,1.5-3,2.8l-4.8,3.1c-1.2,0.5-2.1,0.4-2.7-0.4l-0.9-1c-0.1-0.1-0.8,0-2.2,0.3l-0.1-0.1c-0.2-0.3-0.1-0.8,0.5-1.5
		l-0.1-0.1c-0.3-0.3-1.5,0.2-3.7,1.4c-0.8,0-1.2,0-1.3-0.1l-0.1-0.1l0.6-0.8c0.5-0.4,1.3-1,2.3-1.7l-0.4-0.7c0.4-0.3,1-0.4,1.8-0.2
		c1.6-1.8,2.1-3,1.7-3.5c0.2-0.1,0.8-1.7,1.9-4.7c0.6-0.5,0.9-1.1,0.7-1.8c-2.5-2.5-4.5-4-6-4.7c-3.1-1.1-5.4-1.6-6.8-1.4
		c-2.4,0.5-3.9,1.1-4.6,1.7l-0.1,0.1c-0.5,0.8-0.8,1.2-0.9,1.2c-1.2,0.7-1.9,1.1-2.3,1.4c0.3,0.4-0.1,1.1-1.4,2.1
		c-0.1,1.7-0.7,3.3-1.7,4.7c0.2,1.1,0.3,1.8,0.1,1.9l-0.1,0.1l-1.1,0.7c-0.1,1.4,0,3.4,0.4,5.9c-2.2,10-3.6,15.3-4.2,15.8
		c-1.9,3.9-4.2,7.1-7,9.5c-2.9,2.5-5.8,3.1-8.7,2c-0.7-0.1-2.7,0.3-5.8,1.3c-3.5,0.1-6.2-1-8.3-3.4c-1.3-0.3-2.2-0.8-2.9-1.5
		c-0.6-0.9-1.1-1.6-1.6-2.1l-1.1-1.3l-3.1-2.1l-0.1-0.1c0-1.1-0.2-2-0.7-2.6l-2.2-1.7c-2.5-3.5-3.2-5.7-2.1-6.7
		c0.4-0.3,0.1-1.8-1-4.4l-0.4-0.4c-0.2-0.2-0.4-0.3-0.6-0.4c-0.5-1.5-0.4-3.6,0.4-6.1l1.1-0.7l0.3-0.3c0.1-0.1,0.8-1.1,2-2.9
		l0.4-0.4l0.5,0.6c-0.3,0.3-0.4,0.6-0.2,0.9l0.4,0.2c1.5-1.3,3.5-3.6,6-6.9c0.3-0.1,0.5-0.1,0.6-0.2l0.2,0.3c0.1,0.1-0.4,1-1.4,2.7
		l0.1,0.1l0.6-0.8l1.2-1l0.2,0.3c-1,2.3-1.4,3.5-1.3,3.6l0.1-0.1c2.2-2.5,3.5-4,4.1-4.5c2.3-2,6.2-4.1,11.7-6.3l0.4,0.4l0.1,0.4
		c-0.4,0.3-3.1,1.9-8.2,4.6c-0.5,0.3-1.3,0.8-2.3,1.7c-1.5,1.3-3,4.3-4.6,9.1c0,0.4,0.2,1.6,0.8,3.6c-0.4,1.1-0.4,1.9,0.1,2.4
		l0.6,0.7l-0.7,0.6l-0.4,0.1c0.2,1.6,0.8,3,1.7,4l0.1,0.1l0.1-0.1c-0.4-0.7-0.4-1.5-0.1-2.4l0.1-0.1c0.2-0.1,0.4-0.1,0.6,0
		c0.5,1.8,0.9,2.8,1.1,3.1c0.3,0.7,1.1,1.9,2.3,3.5l0.4,0.2c0.1,0.1,0.1,0.2,0,0.3c2.4,2.8,4.3,4.1,5.6,3.7c1.3,0.4,2.7-0.1,4.1-1.3
		l1.2-1c0.4-0.4,1.4-1.4,2.8-3.1c0.9-0.4,1.4-0.6,1.6-0.4c1.1-1.6,1.9-5.3,2.3-10.9c-0.3-0.3-0.3-0.5-0.3-0.5
		c-0.4-0.4-1.4-0.3-3.1,0.4l-0.1-0.1c0.3-0.8,0.4-1.3,0.3-1.5l-0.1-0.1c-0.8,0.4-2.2,1.2-4.1,2.5l-0.5-0.6c0.3-0.6,1.6-2,3.9-4.4
		c-0.1-1.7,0.2-2.8,0.7-3.3l1.4,0.3c0.4-0.4,0.7-1.8,0.7-4.3c2.5-4,3.5-6.4,2.8-7.2c0.3-1.1,0.8-1.9,1.4-2.4c0.1,0.2,0.3,0.2,0.5,0
		l0.1-0.1c0.5-0.8,1-2.1,1.5-3.7c1.2-1.7,2.1-2.8,2.8-3.4c4.1-2.9,6.4-4,7-3.4c0.5,0,1.5-0.4,3-1.4c1-0.2,1.9-0.6,2.8-1.4l1-0.9
		c4.4-0.2,7.1,0.2,8.1,1.3c0.2,0.2,1.5,0.8,3.9,1.7c0.4,0.5,0.6,0.8,0.5,0.8l-0.4,0.4c-0.1-0.1-0.4-0.2-0.8-0.1
		c-0.2,0.2-0.2,0.3,0,0.5l0.4,0.4C168.8,505.5,172.3,507.2,174.4,509.6z M103.4,525.9l-0.4,0.3c-1.9,2.8-2.5,4.6-1.7,5.5l0.1-0.1
		c0.2-2.1,1-3.9,2.2-5.6L103.4,525.9z M105,524.6l-0.3,0.3l0.1,0.1l0.3-0.3L105,524.6z M122.5,537.5c0.2,0.5,0.2,0.8,0,0.9l-0.6,0.5
		l-0.9-1l0.9-0.7C122.1,537.3,122.2,537.4,122.5,537.5z M128.6,537.1c0.7,0.8,0.5,1.7-0.5,2.6c-0.6-0.1-1-0.3-1.3-0.7l-0.2-0.3
		c-0.2-0.3,0-0.8,0.8-1.7C127.5,537,127.9,537,128.6,537.1z M129.9,523.9l-0.1,0.1l0.3,0.3l0.1-0.1L129.9,523.9z M158.5,537.1
		l0.3,0.3c0.1,0.1,0.1,0.4-0.1,0.8c-0.1,0.1-0.5,0.1-1-0.1l-0.1-0.1c-0.1-0.1-0.1-0.4,0-0.8l0.1-0.1
		C157.9,536.9,158.1,537,158.5,537.1z M159.4,515.7l-0.7,0.1l0.1,0.1l0.7-0.1L159.4,515.7z M164.7,537.8c0.4,1,0.3,1.7-0.3,2.2
		c-0.6,0.2-1,0.2-1.2,0.1l-0.9-1l0.6-0.8l0.7-0.6C163.8,537.6,164.2,537.6,164.7,537.8z"/>
	<path d="M222.9,544.7l0.2,0.1l-0.2,0.3l-3.3,2.4c-1.1,1.5-2.8,2.8-5,3.8c-1.4,1.8-3.5,3-6.5,3.5c-5.8,4.3-10.4,7.2-13.8,8.8
		c-3.5,0.4-6.4,1.3-8.9,2.9c-0.4-0.3-2.1,0.9-5,3.6c-2.9,2.4-5.1,3-6.5,2c-0.9,0.4-3.2,2-7.1,5c-1.5,0.4-3.4,1.6-5.9,3.7
		c-1.4,0.1-2.6,0.9-3.7,2.4l-0.7,0.9c-0.2,0.2-0.3,0.2-0.5,0.1l-0.3-0.2c0.2-0.3,0.2-0.5,0-0.7c-0.4-0.3-1.2,0.2-2.4,1.6
		c-2.3,3.5-3.5,5.4-3.7,5.7l-0.9,1.3c-0.2,0.2-0.3,0.2-0.5,0.1c-0.3-0.2,0.5-2.1,2.2-5.6c-0.1-0.1,0-0.3,0.2-0.6
		c-1.1,0.3-2.5,0.5-4.3,0.5c-2.2,0.9-4.8,2.5-7.7,4.8c-0.4,0.8-0.8,1.4-1.1,1.8l-0.2,0.3c-0.4,0.5-2.7,1.9-7,4.3
		c-2.2,1.6-3.6,2.2-4.4,1.6c-0.8-0.2-2.4,0.5-4.7,2.1c-2.4,1.6-3.9,2.2-4.5,1.8l0.1-0.4l0.1-0.2c0.5-0.7,1.1-1.2,1.6-1.5l-0.2-0.4
		c-0.2-0.1-2.7,1.1-7.5,3.7c-1.7,0.8-3.4,1.3-5.2,1.5c-1.4,1.1-2.3,1.4-2.8,1.1c-0.2-0.2-0.2-0.3-0.1-0.5l0.2-0.3
		c1.1-0.4,3.1-1.6,6-3.6c2.8-0.8,5-2.1,6.5-4.2c2-1,3.3-1.9,3.8-2.5c0.6-0.8,1-1.5,1.2-2.3c4.2-2.6,6.8-4.6,7.9-6.1l-0.2-0.4
		c-0.2,0.2-0.3,0.2-0.5,0.1c-0.2-0.2-0.2-0.3-0.1-0.5c0.6-0.8,3.9-2.9,10.1-6.4c2.4-1.7,5.8-3.7,10.4-6.2c0.3-0.7,0.6-1.2,0.9-1.5
		l0.2-0.3c0.3-0.4,1.7-1.3,4.1-2.6l0.7-0.7c-0.1-0.1,0.1-1.3,0.6-3.7c-0.1-0.8,0.1-1.4,0.4-1.9l0.2-0.3l3.1-2.3
		c1.1-0.5,1.8-0.8,2.1-1.1l0.2-0.3l4.2-9c1.1-1.5,1.4-2.8,0.8-4c2-4,2.7-6.3,2.1-6.7c1.3-2.1,1.8-3.3,1.4-3.6l1-1l0.2-0.3
		c0.6-2.3,1-3.6,1.2-4l0.1-0.2c0.1-0.2,1.8-1,4.9-2.4c3-1.8,5-2.4,5.9-1.7l1.7,1.3c0.9-0.7,1.7-1,2.4-0.9l0.2,0.1
		c-0.1,0.9,0.1,1.5,0.4,1.8c2.5-2.5,3.9-3.7,4.2-3.4l0.2,0.1c0.3,0.2-0.4,1.6-2,4.1c-0.5,1.1-1.3,2.6-2.4,4.6c0.4,1.2-0.2,3-2,5.3
		l-0.3,0.5c-2.1,1.8-3.4,2.9-3.7,3.4c-0.3,0.3-0.7,1.9-1.3,4.7l-0.6,0.8c-0.4-0.3-0.9-0.2-1.6,0.2l-1.1,4.5l-0.5,0.6
		c-0.2,0.3-1,0.9-2.3,1.7c0.3,0.2,0.2,0.8-0.1,1.8l0.2,0.1c0.4-0.5,2.1-1.5,5.1-3c0.6-0.8,2.2-1.7,4.9-2.7c2.4-2.4,4.5-3.8,6.3-4.3
		c2-0.7,5-1.2,9.1-1.5c-0.5-0.4-0.7-0.7-0.6-0.9l0.1-0.2c0.4-0.1,1.1-0.4,1.9-1c-0.4-0.6-0.4-1.1-0.1-1.5l3.7-2.4l3.2,0.6
		c0.3-0.4,2.1,0.1,5.4,1.6l2.4-0.6l0.4,0.1c0.6,0.7,0.7,1.4,0.6,1.9l-0.2,0.3l-0.7,0.7l2.1-0.2l0.5,0.3c-0.6,0.8-0.6,1.4-0.3,2
		c1.1-0.3,2.5-1.1,4.3-2.2C222.3,544.4,222.6,544.5,222.9,544.7z M117.8,602.1l-0.2,0.3l0.2,0.1l0.2-0.3L117.8,602.1z M185.8,521
		c0.6,0.5,0.9,1,0.7,1.7l-0.2,0.3c-0.6,0.8-1.2,1.1-1.7,1l-0.6-0.5c-0.3-1.1-0.4-1.8-0.1-2.2C184.5,520.5,185.1,520.5,185.8,521z
		 M192,520.5l0.9,0.7l-0.4,0.9l-0.2,0.3l-0.9-0.4l-0.5-0.3l0.4-0.9C191.6,520.9,191.8,520.8,192,520.5z M194.2,562.6
		c-0.1,0.2-0.4,0.4-0.9,0.6l0.2,0.1l0.8-0.4l0.1-0.2L194.2,562.6z M218.3,538.2l0.5,0.3c0.9,0.7,1.1,1.5,0.5,2.3
		c-0.3,0.4-0.9,0.6-1.9,0.6l-0.8-0.6c0.1-0.1,0.2-0.7,0.3-1.7C217.7,538.6,218.2,538.3,218.3,538.2z M224.9,540.8l0.6,0.5
		c0.2,0.2,0.2,0.4,0.1,0.5l-0.6,0.8l-0.9-0.4l0-1l0.2-0.3C224.5,540.7,224.7,540.7,224.9,540.8z"/>
	<path d="M252,554.4c6.4,2.6,9.3,7.3,8.6,14c-0.2,1.3-0.6,3-1.3,4.9c-2.2,5.3-6.5,10.3-13.1,14.8l-0.9,0.2c-0.2-0.1-0.5-0.8-1-2.2
		c-0.9,0.4-2.4,1.3-4.6,2.8c-0.8,0.3-1.4,0.4-1.9,0.2l0-0.4l0.1-0.1c1.8-1,2.9-2,3.4-3.1l-0.3-0.1c-4,2.5-6.5,3.6-7.7,3.1l-0.1-0.4
		l0.2-0.5c3.9-1.8,7.4-4.8,10.3-9l0.2-0.5c0.1-0.8,0.2-1.4,0.3-1.7c0.8-0.4,1.2-0.7,1.4-1.2l0.3-0.7c0.4-1.1,0.8-2.7,1.2-4.8
		l-0.3-0.1c-0.1,0.2-1,0.7-2.8,1.6c-1.9,1.4-3.3,2.8-4.2,4.1c-1.4,0.9-2.9,1.2-4.5,0.9c-0.9,0.7-2.2,2-4,4c-1.7,1-3.7,2.8-6.1,5.3
		c-1.8,0.8-4.9,3-9.1,6.5c-2.7,0.3-4.2,0.9-4.6,1.8c-2.3,1.9-3.8,3.6-4.4,5.1l-0.8,2c-0.1,0.2-0.7,0.8-1.9,1.7
		c-0.9,2.2-2,3.6-3.2,4.2c-0.6,1.4-1.5,2.2-2.8,2.5l-0.1,0.2c0.5,0.7,0.5,1.8,0,3.1l-0.6,1.4c-0.1,0.4-0.8,1.2-2,2.5l-0.1,0.2
		l0.2,0.1c0.9,0.4,2.2,0.2,3.7-0.5c1.7,0.3,3.9-0.1,6.5-1c0.8-0.3,3.1-0.4,6.7-0.2c7.1-2.3,11.7-3.2,13.6-2.8l-0.2,0.5
		c-2.1,0.8-3.3,1.4-3.7,1.8c0.8,0.3,2.8,0,6.2-0.9c3.6-0.3,7-1.3,10.2-2.9c2.8-0.4,4.6-0.8,5.4-1.1l0.2,0.1c0.2,0.1,0.2,0.3,0.2,0.5
		l-0.2,0.5c-0.6-0.2-3.6,1.1-9.2,3.9c-4.4,0.9-7,1.6-7.5,2.2c0.3,0.1,0.5,0.3,0.4,0.4c1.2,0,3.1-0.5,5.6-1.4c1,0.1,2.4-0.2,4.2-0.8
		c0.3,0,0.5,0,0.8,0.1l0.2,0.1l-0.3,0.7c-0.5-0.2-2.9,0.8-7.1,3c-1.2,0.1-2,0.5-2.3,1.2c-1.3,0.1-2.2,0.6-2.6,1.7
		c-0.3,0.8-1.4,1.3-3.2,1.6c-0.8,0.2-1.4,0.5-1.7,0.8l-0.1,0.2l0.4,1l-0.1,0.3c-0.5,0-1.9,0.4-4.1,1.1c-2.7,0.1-4.1,0.5-4.4,1.1
		c-0.2,0.5-0.8,0.8-1.8,1.1c-0.3,0.8-1.4,1.1-3.3,1c-0.2,0.5-1.4,0.7-3.5,0.5c-1.7,0.8-3.2,1.2-4.5,0.9c-0.4-0.2-1.8-1.3-4.1-3.3
		c-2.2-0.2-3.8-0.5-4.7-0.9l-0.7-0.3c-2.1-0.9-3.7-2.6-4.7-5.2c0,0.9,0.2,2.1,0.5,3.4c-0.6-0.5-1.1-1.2-1.6-2.3
		c-0.7-1.7-0.8-3.1-0.3-4.3l0.1-0.2c-0.9-3.7-0.7-7.3,0.7-10.8l0.4-1c0.3-0.8,2.7-4.5,7.1-11.1c0.3-1,0.5-1.8,0.8-2.4l0.3-0.7
		c0.3-0.8,2.7-3.8,6.9-8.9c0.3-0.4,0.6-0.8,0.8-1.4l0.1-0.2c0.3-0.7,0.1-1.1-0.6-1.4c-2,1.6-3.5,2.3-4.5,1.9l0-0.4
		c0.2-0.4,2-2.1,5.5-5c3.3-4.3,5.5-6.1,6.8-5.6c2.7-0.6,4.4-1.6,5-3.1c0.1-0.3,0.7-0.9,1.7-1.8l0.2,0.1c0.2,0.4,0.3,0.6,0.5,0.6
		c1.4,0.2,2.3,0.1,2.5-0.5c0.9-0.3,1.8-0.9,2.5-1.9c0-0.1,0.3-0.8,0.8-2.3c1.4-0.4,2.6-1.2,3.7-2.4c1.1,0.4,3.5-0.7,7.2-3.3
		C239.8,552.7,246.1,552,252,554.4z M195.2,584.2l0.5,0.2c0.3,0.3,0.3,0.7,0.1,1.2l-0.1,0.2l-0.9-0.2l-0.5-0.2l0.1-0.7
		C194.8,584.3,195.1,584.1,195.2,584.2z M202.2,605.4l-0.1,0.3l0.2,0.1l0.1-0.3L202.2,605.4z M223.7,613l-0.1,0.1
		c0.2,0,0.4,0,0.6,0.1l0.1-0.4l-0.1-0.1C223.9,612.7,223.8,612.7,223.7,613z M231.5,590.4c0.4,0.4,0.6,0.8,0.6,1l-0.1,0.2
		c-0.4,0.3-0.8,0.4-1.3,0.2c-0.2-0.5-0.2-1,0-1.4C231.1,590.3,231.4,590.3,231.5,590.4z M238.1,591.7l0.3,0.1
		c0.5,0.2,0.5,1.1-0.1,2.7l-0.2-0.1c-0.6,0.2-1,0.2-1.4,0l-0.2-0.1c-0.5-0.7-0.6-1.3-0.4-1.9C236.2,592.3,236.8,592,238.1,591.7z"/>
	<path d="M321,553.2c0.3,0.1,0.4,0.2,0.3,0.4l-0.1,0.8c-1,2.2-1.7,5-2.1,8.6l-0.3,3.3c0.5,0.5,0.7,0.9,0.7,1.2c0,0.1-0.3,0.8-1,2.3
		l-0.1,1c-0.2,1.6-0.8,4.7-1.9,9.2c-0.1,1.8-0.2,3.4-0.3,4.7c-0.1,1.3-2.5,5.7-7.2,13l-0.2,1.6l0.1,1.2c-0.9,3.4-1.8,5.1-2.7,5
		c-1,0.4-1.5,1.1-1.6,2l1.2,0.1c0.5,0.1,0.7,0.6,0.6,1.6l1.2,0.1c0.2,0.9,0.2,1.5,0.2,1.8l-0.1,0.6c-0.9,0.2-1.5,0.2-1.8,0.2l-1-0.1
		c0-0.2-0.1-0.5-0.3-0.8l0.1-0.6l0.2-0.4l-0.6-0.1c-0.3,0-0.8,1.2-1.3,3.6c0.9,0.1,1.8,0.8,2.5,2c0,0.3-0.7,0.3-2,0.2l0,0.2
		c1.1,0.1,2.5,0.4,4.4,0.8l-0.1,0.6c0,0.4-2.2,0.8-6.6,1.1c-1.1,1.6-2.4,4.4-4,8.2c-2.7,2-4.1,3.6-4.2,4.9c-0.6,2.4-1,3.7-1.2,4
		c0.3,0.9,0.5,1.9,0.5,2.8l-3,6c-0.2,1.7-1.1,2.8-2.9,3.2c-0.6,0.3-1.5,2.2-2.7,5.6c-0.8,1-1.3,1.4-1.5,1.4c-0.4,0-0.5-0.9-0.3-2.6
		c-0.9,0-1.4,0.7-1.6,2l-5.3,9.3c-0.4,2-1.1,3-2.1,2.9l-0.2-0.4l0-0.2c1-3.4,2.5-7.5,4.6-12.3c-0.1-0.7-0.1-1.3,0-1.8
		c0.7-1.9,1.1-2.9,1.1-3l0-0.4c0-0.4-0.1-1.3-0.5-2.8l0-0.2c1.6-5,2.4-7.8,2.4-8.4l-0.2,0l-0.6,0.3l-0.4,0c-0.3,0-0.4-0.2-0.3-0.4
		c0.9-2.7,3.1-7.8,6.5-15.4c0.4-0.3,0.7-1.2,0.8-2.5l0-0.4c0-1-0.5-1.6-1.4-1.7c-1.2,0.5-2.4,0.7-3.6,0.6l-0.8-0.1
		c-0.3-1.1-0.8-1.7-1.6-1.7l-3.8,0.6l-0.8-0.1c-0.3,0-1.4-0.5-3.2-1.3c-0.1,1.2-0.9,2.9-2.3,5.1c-2.2,5.4-3.9,8-5.1,7.9
		c-0.9,0.6-1.7,2.3-2.5,5c-0.2,0.7-0.3,1.4-0.4,2.1c0.3,1.3,0.4,2.2,0.3,2.6c-1.8,3.4-2.7,5.5-2.8,6.2c-0.7,2-1.5,3-2.6,2.9
		c-0.5,0.4-1.3,2.3-2.3,5.7c-0.9,0.8-1.4,1.2-1.5,1.2l-0.2,0l-0.1-1.4l0.1-1l-0.8-0.1c-0.2,1.7-2.2,4.7-6.2,9
		c-0.8,1.9-1.6,2.8-2.4,2.7l0-0.2c0.2-1.6,1.8-4.4,4.8-8.3c0.2-0.6,0.7-3.2,1.6-7.7c-0.6-0.9-0.8-1.6-0.8-2c0.9-2.1,1.4-3.9,1.5-5.5
		c0.3-1.6,0.4-2.4,0.5-2.5l-0.2,0c-0.3,0.2-0.6,0.3-0.6,0.3l-0.2,0l-0.4-0.2c2.8-8.1,5.2-13.9,7.3-17.5l0.1-1.2
		c0-0.4-0.1-0.9-0.4-1.4c1.2-3.2,1.9-4.9,1.9-5.1c-3-1.1-4.5-1.9-4.5-2.4l0-0.2c1.1-0.2,1.6-0.6,1.7-1l-8-4.5
		c-1.8-0.2-2.7-0.8-2.8-1.9l0.4-0.2c2.8,0.9,4.4,1.4,4.8,1.5c0.3-0.6,0.7-0.9,1.5-0.8l0.2,0c1,0.1,1.5,0.5,1.4,1.3s0.5,1.2,1.8,1.4
		l0.6,0.1c0.3,0,0.6-0.8,1-2.4c-1.3-0.5-1.8-1.2-1.8-1.9c0.9-0.1,1.4-0.3,1.4-0.6c-0.1-0.2-1.5-1.1-4.2-2.6l-0.3-0.6
		c0.4-0.2,0.8-0.3,1.2-0.3c2.8,0.7,4.9,1.1,6.2,1.2l1.7,0.2c1.6-0.5,2.7-0.7,3.2-0.7l0,0.2c0.4,0,0.7-0.3,1.1-0.7l-0.1-1
		c0.1-0.6,0.7-2.1,2.1-4.7c0.1-1,0.6-2,1.5-3.2c0.4-4.4,2.2-7.3,5.2-8.9c1.2-1,3.2-3.1,5.8-6.5c0.1,0,0.5-0.1,1.2-0.3
		c1.1,0.5,1.9,0.8,2.5,0.8c0.6-1.6,1.4-2.4,2.4-2.3c0.1,1.3,0.2,2,0.1,2.4l0.2,0c1.8-3.5,3.2-5.2,4.1-5.1l0.2,0.4l-0.1,0.6
		c-1.5,4.1-2.6,7.9-3.3,11.4c0.1,1.9,0.1,3.2,0,3.9l-0.1,1c-0.1,1.3-2,4.5-5.5,9.6c-1.4,2.3-2.2,4.6-2.5,7c2,0.2,3.6-0.2,4.6-1.3
		c4.6,0.7,6.9,1.4,6.9,2.1l0.2,0c0.1-1.2,0.8-1.7,1.9-1.6c1.3,0.1,2-0.3,2.1-1.4c0-0.2,0.2-0.6,0.5-1.1c0-0.9,0-1.6,0-2.2l0.1-1
		c0-0.1,0.4-0.9,1-2.4l-0.3-0.6l0.1-0.6c1.6-3.8,2.4-6.4,2.5-7.6l-1.2-0.1c0-0.4-0.1-0.8-0.3-1.2c0.3-2.7,1.1-4,2.4-3.9
		c1.5-1,2.5-3,2.8-5.8c-0.2-0.4-0.3-0.8-0.3-1.2l0-0.2l1.6-4.5l0.3-3.1c0.1-1.1,1.8-2.5,4.9-4c0.8-1.4,2.1-2.4,3.9-3.1l0.2,0
		c0.9,0.1,1.9,0.4,2.9,0.9c0.6-1.1,1.3-1.6,2.1-1.5c0.1,0.7,0.3,1.3,0.6,1.6c0.4,0,1-0.8,1.6-2.6C320,553.8,320.7,553.2,321,553.2z
		 M247.3,595.9l0.8,0.1l0.1,1l0,0.2c0,0.3-0.2,0.4-0.4,0.3l-1-0.1c0-0.3,0-0.6-0.1-0.8C246.9,596.1,247.1,595.9,247.3,595.9z
		 M249.5,635.2l0,0.4l0.2,0l0-0.4L249.5,635.2z M252.3,652.2l0,0.4l0.2,0l0-0.4L252.3,652.2z M279.9,635.8l0,0.4l0.2,0l0-0.4
		L279.9,635.8z M281.9,564.7c1.2,0.1,1.7,0.7,1.6,1.7c-0.2,1.2-0.9,1.7-1.9,1.6c-0.7-0.8-1-1.6-0.9-2.5
		C281.3,565,281.7,564.7,281.9,564.7z M282.4,653.3l0,0.4l0.4,0l0-0.4L282.4,653.3z M288.4,562.8l0.8,0.1c0,0.3,0.1,0.4,0.3,0.4
		c-0.1,0.7-0.4,1.1-0.9,1.3l-0.6-0.1c0-0.2-0.1-0.5-0.3-0.8l0-0.4C287.7,563.1,288,563,288.4,562.8z M308.7,613.6l1,0.1l0.1,1l0,0.4
		l-1,0.1l-0.4,0l-0.1-1l0-0.2C308.3,613.7,308.5,613.5,308.7,613.6z M310.9,614.8l0.6,0.1c0.4,0,0.6,0.3,0.5,0.8
		c0,0.2-0.3,0.5-0.9,0.9c-0.6-0.3-0.9-0.6-0.9-0.9l0-0.4C310.3,615.1,310.5,614.9,310.9,614.8z M313.4,550.6l0.6,0.1
		c1,0.1,1.6,0.4,1.7,1l-0.1,0.6c-0.1,1.2-0.7,1.7-1.7,1.6l-0.4,0c-0.6-1-0.8-1.7-0.8-2C313.1,551.2,313.3,550.8,313.4,550.6z
		 M313.1,589.9l0,0.4c0.3,0,0.4-0.1,0.4-0.3L313.1,589.9z M320.2,548.6l0.6,0.1c0.2,0,0.4,0.3,0.7,0.9l-0.1,0.6
		c-0.2,0-0.5,0.1-0.8,0.3l-0.6-0.1c0.1-0.5,0-0.8-0.3-0.8C320.1,549.1,320.2,548.8,320.2,548.6z"/>
	<path d="M342.4,563.6l0.8-0.1c1.2,0.7,2.1,1,2.9,0.9l1.9-0.3c1-0.2,3,0.7,6,2.5l0.2,0c0.8-0.4,1.3-0.6,1.7-0.7
		c0.7-0.1,1.2,0.1,1.7,0.7c0.1,0.3-0.2,1.2-0.7,2.7c2.3,2.2,3.5,3.9,3.7,5.1l0.1,0.4l-0.9,0.4l-0.4,0.1c-0.5,0.1-1.1,0.1-1.6-0.1
		c-0.6,0.3-0.9,0.7-0.8,1.3c1.6,1,2.8,1.5,3.6,1.3c0-0.5,0.1-0.8,0.4-0.9l1.2-0.2c1.2,0,1.9,0.4,2,1.2c0,0.2-0.2,0.9-0.8,1.9
		c3,1.5,5.1,5.3,6.2,11.4c1.1,1.1,1.7,2,1.9,2.6c-0.2,3.2-0.2,6.3,0.1,9.3c-0.3,1.1-0.4,2.8-0.3,5.2l1-1.2l0.2,0l0,0.2
		c0.6,3.3-1.3,9.2-5.6,17.7c-3.9,5.9-7.1,9.5-9.7,11.1c-4.4,3.5-7.1,5.5-8.1,6c-1.1,0.2-1.6,0.4-1.7,0.5c-3.2,0.6-7.3-0.1-12.3-2
		c-7.2-3.8-11.6-10.5-13.3-20l-0.2-1c-0.1-0.7-0.2-1.6-0.3-2.7l0-0.2l-0.2,0c-0.3,2.8-0.6,4.3-0.8,4.3l-0.5-0.5l-0.3-1.5l0.1-8.2
		c-0.3-3.1-0.3-4.7-0.1-4.8l-0.2-1c-0.8-0.9-1.3-1.3-1.4-1.3c0.4-4.1,0.6-6.4,0.6-6.7l-1,0.2c-0.3,0-0.4-0.1-0.5-0.3l0-0.2
		c0.9-3.7,2.3-7.3,4.2-10.9c1.5-1.5,2.1-2.7,2-3.5l-0.3-0.7c0.6-1.8,2.4-4.1,5.1-6.9c0.7-1.3,3-3,7-5.2c1.1-1.9,3.5-3.2,7.2-3.9
		l-0.2-1c0-0.3,0.1-0.4,0.5-0.5l0-0.2L342.4,563.6z M355.6,578.5l-0.1,0.4l2.3,1.6l0.1,0.8c-0.4,0.2-0.7,0.3-0.7,0.3l0,0.2
		c0.6,0.5,1,1,1.1,1.8l0.2,1l-0.8,0.1c-1.7-1.6-3.3-3-4.9-4.3c-1.6,0.5-2.6,0.9-3.2,1c-0.3,0.1-1.4-0.2-3.1-0.8
		c0.1,0.9-1.1,3.9-3.6,8.8c-0.6,2.4-2.1,5.1-4.7,8.4c-2,4.4-2.7,8.2-2.1,11.5c0.7,5,0.6,7.6-0.2,7.8l-0.7,1.5
		c0.3,0.4,0.7,1.8,1.3,3.9c2.1,3.3,4,4.8,5.8,4.5c1.4,0.4,2.8,0.5,4,0.3c0.4-0.1,2.4-1.2,6-3.2c2-0.4,3.3-1.3,3.9-2.9
		c1.2-1.3,2.2-3.5,3-6.5c-0.3-3.5-0.2-5.9,0.3-7c1.3-4.4,1.8-7.6,1.5-9.6c0.1-0.9,0.7-2,1.6-3.1c0.3-1.1,0.4-2.3,0.2-3.6
		c-0.2-1.2-0.8-3.3-1.7-6.2c0.1-0.2,0.1-0.5,0.1-0.8l0.6-0.1c0.1,0,0.7,0.4,1.8,1.3l0.2,0c0.3,0,0.4-0.2,0.3-0.5
		c-1.5-2.6-3.7-4.7-6.9-6.3C356.6,578.8,356.1,578.7,355.6,578.5z M340.1,593l0.1,0.4c0.3,0,0.4-0.2,0.3-0.5L340.1,593z
		 M371.5,609.6l0.1,0.4l0.2,0l-0.1-0.4L371.5,609.6z"/>
	<path d="M378.3,547.4c2.2-1,7.7-2,16.5-3c3.2-0.4,7.1,0.2,11.7,1.8c1.3,0.5,2.5,0.5,3.6,0c3.9,2.2,6.6,5,8.3,8.5
		c1.2,4,1.2,9-0.2,14.8c-2.3,5.8-3.5,9.8-3.8,11.8c-2.5,3.2-4,5.6-4.5,7.1c-1.5,1-3.3,3.6-5.5,7.5c-0.9,1.8-3.6,3.7-8,5.7
		c1,2.2,0.9,5-0.4,8.2c-0.6,0.3-0.2,2.1,1.1,5.7l0.3,0.6c1.2,1.1,1.8,1.8,1.8,1.9l0.1,0.2c0.7,4.6,1.2,7.3,1.5,8
		c-1.3,1.4-1.3,3.4-0.2,6c0.5,1,0.4,2.2-0.1,3.5l-0.4,0.2c-0.7-1.2-1.3-1.7-1.9-1.4c0.6,1.3,1.1,5.1,1.5,11.6c0.7,2,0.7,3.1,0.1,3.4
		l-0.6-0.9l-0.3-0.8c-0.6-1.3-1.4-4.4-2.4-9.4l-0.2-0.4c-2-4.4-3.4-6.5-4.1-6.1c-0.2-0.2-0.4-0.5-0.6-0.9c-1.3-3.6-2.2-5.8-2.5-6.6
		c-0.4-0.4-0.8-0.6-1-0.5c0.1,0.2,0,0.4-0.2,0.5l-0.4,0.2l-0.3-0.8c-1-2.2-2-7.3-3.1-15.2c-0.3-1.3-0.5-2.2-0.6-2.4
		c-0.2,0.1-0.5,0-0.8-0.3l-0.5-1.2l-0.7-1.9c-0.2,0.1-1.3,0.1-3.4-0.1l-0.2-0.4c-0.1-0.3,0-0.5,0.2-0.6l2.4-1.1
		c-0.3-0.7-2.9-0.9-7.7-0.5l-0.2-0.4c-0.1-0.2,0-0.4,0.2-0.5l1-0.5c2.4-0.2,4-0.5,5.1-1l0.6-0.3c1.2-0.6,1.3-2.7,0.4-6.6
		c0.1-0.1-0.2-2.2-1-6.4c-0.4-0.6-0.7-1.2-1-1.6l-0.3-0.8c-0.5-3.9-0.9-6.1-1.2-6.7c0.5-0.2,0.2-1.8-1-4.8c-0.3-2.9-0.1-4.5,0.7-4.9
		c0.1-0.1,1.4-1.6,3.9-4.7c2-0.9,3.3-1.6,3.7-2l-0.1-0.2c-3.5,1-6.7,2.1-9.6,3.3c-0.7-0.2-2-0.2-3.7-0.1c-3,1.7-5.3,2.8-6.8,3.5
		l-0.3-0.3l1.3-2.4l-0.1-0.2l-1.1,0.2c-0.9,0.9-2.7,2.1-5.3,3.6c-1.4,2.4-3.2,4.2-5.5,5.3c-0.6,1-1.2,1.7-1.8,1.9l-0.2,0.1
		c-0.3,0.1-0.5,0-0.6-0.2l-0.2-0.4c7.4-8.7,11.7-13.4,13.1-14c2.1-0.9,3.8-2.6,5.1-5.1c1.3-0.6,2-1,1.9-1.1l1.1-0.3
		c0.9-0.4,2.8-1.2,5.5-2.3c1.3-0.9,1.9-1.3,2-1.4l-0.2-0.4c-0.5,0.2-0.9,0.2-1-0.2l-0.1-0.2L378.3,547.4z M364.2,564.4l0.1,0.2
		l0.4-0.2l-0.1-0.2L364.2,564.4z M368.6,600.9l1-0.4l0.6,0.8l0.2,0.4l-0.9,0.7l-0.4,0.2l-0.8-1.3L368.6,600.9z M373.8,604.9l0.2-0.1
		c1.4-0.5,2.3-0.2,2.8,0.8l0.2,0.4c-1.1,1-1.7,1.6-1.7,1.7c-0.8,0.4-1.4,0.1-1.8-0.7l-0.1-0.2C373.1,606.1,373.3,605.5,373.8,604.9z
		 M374.8,563.4l1.4-0.7l0.6,0.9l0.1,0.2c-0.2,0.1-0.4,0.4-0.6,0.8l-0.6,0.3l-0.8-0.7C374.9,563.7,374.8,563.5,374.8,563.4z
		 M378.8,547.8c0.1,0.2,0.3,0.3,0.6,0.2l-0.2-0.4L378.8,547.8z M390,555.5l0.4,1.4l2,4.4c0.1,0.1,0.2,0.1,0.3,0.1
		c1.1,5.2,1.2,8.1,0.1,8.6c-0.7,2.5-0.6,5.6,0.5,9.2c0.2,0.5,0.6,1.7,1.1,3.6c2.8-2.9,4.9-5.1,6.1-6.7c0.4-3.7,1.8-6.1,4-7.1
		c1.7-2.3,1.8-5.1,0.3-8.2c-1-2.2-3.6-3.7-7.8-4.4C396.4,554.7,394,554.4,390,555.5z M401.7,597.4l0.1,0.2l0.2-0.1
		c0.2-0.3,0.4-0.4,0.5-0.5l-0.1-0.2l-0.2,0.1C402,597.2,401.9,597.3,401.7,597.4z"/>
	<path d="M415.7,510.9c0.9-0.7,1.5-0.9,1.7-0.7c0.2,0.3,0.3,0.4,0.4,0.3c0.6,1,0.7,1.7,0.3,2c-0.8,0.3-1.5,0.2-2.1-0.1
		C415.6,511.6,415.5,511.1,415.7,510.9z M418.7,505.1l0.3-0.2l0.7,0.6l0.1,0.1c0.2,0.2,0.1,0.4-0.1,0.5l-0.7,0.5l-0.7-0.6l-0.2-0.3
		L418.7,505.1z M421.9,507.4l0.2,0.3l3.7,5.8c3.7,3.7,5.7,5.4,6.2,5.1c1.1,0.9,2.9,2.6,5.3,5.3c1.9,3.7,3.3,6.2,4.4,7.6
		c1.4,2,2.3,3.2,2.5,3.5c2.1,1.3,3.4,2.3,4,3.1l0.8,1.1c0.5,0.6,0.7,1.7,0.6,3.3l0.3,0.4c0.5,0.7,2.2,2.3,5,5
		c0.4,0.3,2.2,2.5,5.5,6.5c1.3,2.1,2.3,3.4,2.7,4.1c0.1,0.2,0.8,0.2,2.1,0.1l0.7,0.6l2.6-1.1c0.6-0.1,2.1-0.9,4.4-2.5l4.4-2.7
		c1.4-0.3-1.4,2.7-8.4,8.8l2.9-1.6l2.7-1.5c-5,5.2-7.3,8.1-6.8,8.7l1.3,1.7c1.6,2.1,3.4,3.5,5.2,4.1c0.2,0.1,0.5,0.3,0.7,0.6
		l0.8,1.1c0.4,0.5,1.2,1.7,2.2,3.4c1.3,1.6,2.2,2.5,2.5,2.9c0.2,0.2,0.4,1.2,0.6,2.8c1.3,1.5,2.3,2.6,3,3.5l1.5,1.9
		c0.1,0.2,0.1,0.3-0.1,0.5l-0.2,0.1c-0.2,0.1-0.7-0.1-1.5-0.8l-0.6,0.1c0.1,0.5,0.3,0.9,0.6,1.3c0.3,0.4,1,1.2,2,2.4
		c2.2,5,3.5,7.9,4,8.6l-0.1,0.4l-0.2,0.1c-0.2,0.1-0.3,0.1-0.5-0.1c-1-1.3-2.6-3.7-4.7-7.2c-0.6-0.8-2.2-2.3-4.7-4.5
		c-0.8-1-2-1.6-3.5-1.6c-4.3-4.4-6.7-6.5-7.1-6.2c0,0.1,0.1,0.3,0.3,0.7l-0.3,0.2c-0.4,0.2-1.2-0.4-2.4-1.6l-1.9-2.5
		c-0.9-1.2-1.9-2.5-2.9-4l-1.8-1.7c-1,1.8-1.8,3-2.6,3.6l-0.3,0.2c-0.3-0.4-0.9-0.4-1.7,0c-1,2.6-3.4,5.3-7,8.2l-0.4,0.3
		c0.7,2,1.3,3.4,1.8,4.1c0.1,0.2,0.6,0.6,1.6,1.4c0.6,3.7,1.3,6.3,2,7.9c-0.7,3.5-0.7,5.6-0.1,6.5c1,2,1.2,3.3,0.4,3.9l-0.3-0.4
		l-1.2-1.3l-0.3,0.2c1.1,4.5,2,7.7,2.8,9.6c-0.2,0.3,0.1,1.4,0.9,3.3l-0.2,0.4l-0.3,0.2l-0.4-0.5c-0.1-0.2-1.5-3.1-4.1-8.9
		c-1.5-3.2-2.4-5-2.7-5.4l-0.1-0.2c-0.1-0.2-0.7-0.7-1.8-1.4c-1.3-3.6-2.4-6.1-3.1-7.7l-0.2-0.3l-0.2,0.1c-0.2,0.4-0.4,0.7-0.6,0.9
		c-0.8-1-1.4-2.6-1.7-4.7c-0.2,0.1-0.3,0.2-0.4,0.1l-0.1,0.4l-0.8,0.7c-2,0.6-3.2,1-3.5,1.2l-1.2,1c-0.2,0.2-0.4,0.3-0.4,0.5
		c-0.5,0.3-0.9,0.3-1,0.1l-0.2-0.3c0.4-0.3,0.5-0.8,0.4-1.4l-0.2-0.3l-1.2,1c-0.8,0.6-2.6,1.9-5.4,3.6l-2.1,1.6L424,601
		c-0.4-0.5,1.6-2.7,6.1-6.4c1.7-2.3,2.3-3.6,2-4c-0.4-0.5,0.5-1.6,2.4-3.5l0.1-1l-0.1-0.1l-0.6-0.2c-0.2-0.2,0.9-1.5,3.4-3.9
		c-0.4-1.7-0.9-3-1.3-3.9l-0.9-0.4l-0.3-0.4c-0.6-0.8-1.6-4.7-3.1-11.8c-0.7-1.6-1.4-4.4-2.3-8.3c-1.3-1.7-2-3.2-2-4.6l-0.1,0.1
		c0.2,2-0.1,3.3-0.7,3.9c-0.2-0.1-0.4-0.2-0.5-0.3c-0.7-4.4-1.4-7.2-2.3-8.3c-1.1-1.4-1.5-3.5-1.2-6.1c0.5-0.4,0.5-1.4,0-3.1
		c0.7-0.6,0.9-1.2,0.4-1.8c-0.4-0.1-0.7-0.3-0.9-0.6c-0.3-0.4-0.5-1.6-0.7-3.7c-0.6-0.8-0.4-1.9,0.7-3.4c-0.1-3.4-0.8-5.9-2.2-7.6
		c-0.4-1.1-0.4-2.7,0-4.8c1.1-0.4,1.7-0.8,2-0.9c-1-2.1-1.3-3.3-0.9-3.7l0.3-0.2l1.2,1.3l0.5,0.7l0.4-0.3
		C421.6,510,421.1,508,421.9,507.4z M427.8,558.6l0.5-0.4c0.1,0.1,0.3,0.2,0.7,0.3c0.1,0.6,0.1,0.9,0,1.1l-0.4,0.3
		c-0.1-0.2-0.4-0.3-0.7-0.3l-0.2-0.3C427.6,559.2,427.6,559,427.8,558.6z M434.5,585.4l0.2,0.3l0.2-0.1l-0.2-0.3L434.5,585.4z
		 M437.6,526.1l0.4,0.5l0.2-0.1l-0.4-0.5L437.6,526.1z M446.5,571.1l0.4-0.3c2.1-1.9,3.4-3.4,3.7-4.6c-0.1-0.2,0.1-0.5,0.8-1.1
		c0.1-0.1,0.1-0.1,0.2,0c0.4-0.4,0.4-0.9,0.1-1.3l-0.4-0.5c-0.5-0.7-1-1.1-1.4-1.3c-2-2.9-4.2-5.9-6.7-9.1c-0.1-0.1-0.5-0.5-1.2-1.3
		c-0.1,0.1,0.2,1,0.9,2.8c0.1,0.9-0.2,1.9-1,3l3.2,7.4C445.7,567.7,446.2,569.8,446.5,571.1z M467.5,555.3l0.4-0.3
		c0.6-0.5,1.3-0.3,1.9,0.5c0.2,0.6,0.2,0.9-0.2,1.2l-1.2,1c-0.1-0.1-0.3-0.2-0.7-0.3l-0.3-0.4C467.4,555.9,467.4,555.4,467.5,555.3z
		 M468.2,581.7l0.1,0.2l0.3-0.2l-0.1-0.2L468.2,581.7z M484.8,588.7l0.2,0.3l0.2-0.1l-0.2-0.3L484.8,588.7z"/>
	<path d="M410.5,526.8l0.8-0.9l0.9,0.5l0.3,0.3l-0.5,0.9l-0.1,0.1c-0.2,0.2-0.4,0.2-0.7-0.1L410.5,526.8z M437.8,473
		c0.2-0.2,0.4-0.2,0.6,0l0.1,0.1c3,4.5,5.2,7.4,6.6,8.7l4.4-5c1.6-1.9,2.9-2.7,3.8-2.6c0.5-0.2,1.1-0.7,1.7-1.4l0.3-0.3
		c2.2-2.5,3.3-4.6,3.1-6.1l0.6-1l0.4-0.4c0.6-0.7,1.9-1.8,3.7-3.3c0,0,0.6-0.7,1.5-2l3.9-1.8c0.5-0.6,0.8-0.8,0.9-0.8l0.5-0.9
		l0.8-0.9c1.2-1.2,1.9-1.7,2.3-1.4l0.1,0.1c0.2,0.2,0,0.8-0.6,1.8l0.2,0.4l0.1,0.1c6.8-6.2,10.7-9.4,11.4-9.7l0.4,0.4
		c-0.5,1-0.9,1.6-1.1,1.9c-1.1,1.3-3,3.2-5.5,5.6c-1.9,2.7-3.5,4.8-4.7,6.2l-0.3,0.3c0.2,1.3-0.5,3-2.3,5l-1.9,2.2
		c-0.7,0.8-0.9,1.4-0.6,1.8c0.1-0.1,0.4-0.2,0.8-0.1l0.1,0.1l-1.1,1.6l-1,1.2c-0.9,1.1-1.5,1.8-1.7,2.2c-0.9,0.8-1.7,1.7-2.5,2.5
		l-5.7,6.4c-0.3,0.3-0.5,1.3-0.5,2.9c-0.5,0.6-0.7,0.9-0.8,1.2c-0.6,0.5-1,0.8-1.3,1.2l-0.1,0.1l-0.8,1.2l0.3,0.3
		c0.4-0.5,0.7-0.6,0.9-0.5c2.8,2.9,4,4.6,3.6,5c-0.7,1.5,0,3.1,2.1,5c0.9,0.8,1.6,2.6,2.1,5.3c0.2,0.2,0.8,1.3,1.9,3.2l1.6,1.1
		l0.6,0.5c1.1,1,1.4,2.2,0.8,3.8c3.7,3.2,5.9,6.1,6.6,8.7c1.8,2.5,2.4,4,1.8,4.7c-0.2,1.5,0.5,3.1,2.2,4.6c0.7,0.5,1.6,0.8,2.5,0.9
		c2.7,3.7,3.7,5.9,3,6.6c-0.4,0.4,1.8,3.5,6.5,9.1c0,2.1,1.5,4.4,4.6,7.2c0.8,0.7,2.2,1.4,4.3,2.2l0.3,0.3c4,5.1,6.1,7.7,6.3,7.9
		c-0.3,1.8,1.2,4.2,4.6,7.2c0.8,1,1.1,1.8,0.7,2.2l-0.1-0.1l-2.1-1.1c-0.4,0.4,0.6,1.9,2.9,4.4c1.9,4.1,3.5,7.2,5,9.4l-0.1,0.4
		c-0.2,0.2-0.4,0.2-0.6,0l-0.4-0.4c-1.7-2.2-4-5.4-6.8-9.4c-1.1-0.6-1.8-1-2-1.3c-1.4-1.4-2.3-2.3-2.8-2.7c-0.2-0.2-1.2-0.5-3.1-0.9
		l-0.1-0.1c-0.4-0.3-1.4-1.5-3-3.4l-3.5-3.1l-0.1,0.1c-0.2,0.2-0.1,0.4,0.2,0.7l-0.3,0.3c-0.2,0.2-0.4,0.2-0.6,0
		c-0.5-0.5-5.6-5.9-15.1-16.2c-0.1-0.1-0.7-0.1-1.7-0.2l-0.1-0.1c-2.7-2.4-7.6-9-14.7-20c-2.3-2-4-4.3-5.1-6.9c-1-0.9-1.8-2.2-2.5-4
		c-3.5-3.7-5.2-6.1-4.9-7.2l-0.5-2l-0.1-0.1l-0.8,0.6l-0.1-0.1c-0.6-1.1-1.6-2.4-2.7-4c-0.5,0.5-0.9,0.7-1.5,0.5l-0.4-0.4l-0.2-0.4
		c-0.1,0.1-0.2,0.1-0.3,0l-0.5,0.9l-0.9,1l-3.8,6l-0.8,0.9c-0.4,0.4-1.8,1.1-4.2,2.1c-0.7,0.8-2,1.3-3.9,1.5
		c-3.4,2.3-5.6,3.1-6.5,2.3c-0.5-0.8-0.8-1.2-1.1-1.5l-0.3-0.3c-1.9,1.4-3,2-3.4,1.7c-0.1-0.4,0.2-1.3,0.8-2.7l-0.1-0.1
		c-3.2,2.6-5,3.7-5.5,3.3l-0.4-0.4c0.4-0.5,0.6-0.8,0.5-0.9l2-1.9c4.1-4.7,7.3-8.7,9.5-12.2l1.3-1.5c0.6-0.7,2-1.6,4.4-2.9
		c0.4-0.3,0.9-0.7,1.3-1.2l0.1-0.1c0.9-1.1,2.2-3.6,3.7-7.4c0.5-0.6,0.7-1.6,0.4-3.1c-0.5-0.1-0.8-0.2-1-0.4
		c-0.6-0.5-0.5-1.2,0.2-1.9l0.6-0.7c0.8,0.7,1.5,0.6,2.2-0.1l-0.1-0.1c-0.4-1-0.5-1.7-0.4-2.2l0.1-0.1l1.4,0.2
		c0.1-0.1,0.3-0.2,0.5-0.3c-2-2.8-2.8-4.5-2.4-5c0.5,0.1,0.8,0.2,1,0.4c1.1,1.1,1.9,2,2.5,2.5l0.1-0.4l0.1-0.1
		c0.1-0.1,0.4-0.2,0.8-0.1l0.7,0.6l0.5-0.6c-1.8-4.5-3.4-7.9-4.8-10.2L437.8,473z M416.6,527.2l0.5-0.6c0.7-0.8,1.2-1,1.7-0.8
		l0.7,0.6c0.1,0.8,0,1.5-0.4,2l-0.3,0.3c-0.5,0.2-1,0.1-1.5-0.3L416.6,527.2z M427.9,505.7l0.1,0.1l0.3-0.3l-0.1-0.1L427.9,505.7z
		 M431,486.8l0.4-0.4c0.7-0.8,1.2-1,1.7-0.8l0.7,0.6c0.6,0.7,0.7,1.3,0.3,1.8c-0.9,0.6-1.7,0.6-2.4,0l-0.4-0.4
		C431.3,487.2,431.2,487,431,486.8z M432.3,480.1l0.8-0.9l0.9,0.5l0.3,0.3l-0.5,0.9l-0.3,0.3c-0.2-0.2-0.5-0.3-0.7-0.4
		C432.6,480.5,432.5,480.3,432.3,480.1z M434.7,483.8l0.8-0.9l0.9,0.5l0.3,0.3l-0.5,0.9l-0.3,0.3c-0.2-0.2-0.5-0.3-0.7-0.4
		C435.1,484.3,434.9,484,434.7,483.8z M510.5,575.1l0.3,0.3l0.1-0.1l-0.3-0.3L510.5,575.1z"/>
	<path d="M461.3,442.4l0.3-0.5c0.5-0.9,1-1.3,1.5-1.2l0.5,0.3c1,0.6,1.3,1.3,0.8,2.2l-0.2,0.3c-1.1,0.1-1.9,0.1-2.2-0.1
		C461.7,442.8,461.4,442.4,461.3,442.4z M462.1,435.2l0.3-0.5c0.1-0.2,0.4-0.3,1.1-0.3l0.5,0.3c-0.1,0.2-0.1,0.5,0,0.9l-0.3,0.5
		c-0.5-0.2-0.7-0.3-0.9,0C462.5,435.6,462.3,435.3,462.1,435.2z M462.1,476.8c0.6-1,1.3-1.3,2.2-0.8c1,0.6,1.2,1.4,0.7,2.4
		c-1,0.3-1.9,0.3-2.6-0.1C462.1,477.5,462,477,462.1,476.8z M462.9,470.1l0.4-0.7c0.2,0.1,0.4,0.1,0.5-0.2c0.6,0.3,0.9,0.8,0.8,1.3
		l-0.3,0.5c-0.2-0.1-0.5-0.1-0.9,0l-0.3-0.2C462.9,470.8,462.8,470.5,462.9,470.1z M466.6,436.3c0.2-0.2,0.3-0.3,0.5-0.2l0.7,0.4
		c1.6,1.8,4,3.5,7.2,5.2l2.9,1.6c0.6-0.3,1.1-0.3,1.4-0.1c0.1,0,0.6,0.6,1.7,1.8l0.9,0.5c1.4,0.8,4,2.5,7.8,5.3
		c1.7,0.8,3.1,1.4,4.2,2.1c1.2,0.6,4.2,4.5,9.2,11.7l1.4,0.7l1.1,0.4c2.8,2.1,4,3.6,3.6,4.4c0,1,0.4,1.8,1.2,2.2l0.6-1
		c0.2-0.5,0.8-0.4,1.7,0.1l0.6-1c0.9,0.2,1.4,0.3,1.7,0.5l0.5,0.3c-0.2,0.9-0.3,1.4-0.5,1.7l-0.5,0.9c-0.2-0.1-0.5-0.1-0.9,0
		l-0.5-0.3l-0.2-0.4l-0.3,0.5c-0.2,0.3,0.8,1.2,2.8,2.6c0.5-0.8,1.4-1.3,2.9-1.6c0.2,0.1,0,0.8-0.6,1.9l0.2,0.1
		c0.5-0.9,1.3-2.2,2.5-3.8l0.5,0.3c0.4,0.2-0.1,2.4-1.5,6.5c1.1,1.6,3.1,3.9,6.1,6.9c0.8,3.3,1.8,5.2,2.9,5.8c1.9,1.5,3,2.4,3.2,2.6
		c1,0.1,1.9,0.3,2.8,0.6l4.4,5c1.5,0.8,2.2,2.1,1.9,3.9c0.1,0.6,1.5,2.2,4.1,4.7c0.6,1.1,0.8,1.7,0.7,1.9c-0.2,0.3-1,0.1-2.5-0.7
		c-0.4,0.8,0.1,1.6,1.2,2.2l6.5,8.4c1.7,1.2,2.4,2.2,1.9,3l-0.4,0l-0.2-0.1c-2.8-2.3-6-5.2-9.6-9c-0.7-0.2-1.2-0.5-1.6-0.7
		c-1.4-1.4-2.2-2.1-2.4-2.2l-0.3-0.2c-0.3-0.2-1.2-0.4-2.8-0.6l-0.2-0.1c-4-3.4-6.3-5.2-6.8-5.5L528,506l0.1,0.7l-0.2,0.3
		c-0.1,0.2-0.3,0.3-0.5,0.2c-2.1-1.9-6-5.9-11.7-11.9c-0.2-0.5-0.8-1.1-2-1.7l-0.3-0.2c-1-0.4-1.7-0.2-2.1,0.6
		c0,1.3-0.2,2.5-0.8,3.6l-0.4,0.7c-1.1-0.1-1.9,0.1-2.2,0.8l-0.9,3.7l-0.4,0.7c-0.2,0.3-1,1.1-2.4,2.5c1.1,0.6,2.4,1.9,3.8,4.1
		c4.1,4.1,5.9,6.7,5.3,7.8c0.2,1.1,1.4,2.5,3.7,4.2c0.6,0.5,1.2,0.9,1.8,1.2c1.3,0.3,2.1,0.5,2.5,0.7c2.5,3,4,4.6,4.6,5
		c1.6,1.4,2.2,2.6,1.6,3.6c0.2,0.7,1.6,2.1,4.3,4.3c0.4,1.1,0.6,1.7,0.5,1.9l-0.1,0.2l-1.3-0.5l-0.9-0.5l-0.4,0.7
		c1.5,0.8,3.4,3.9,5.9,9.2c1.4,1.5,1.9,2.6,1.5,3.3l-0.2-0.1c-1.4-0.8-3.4-3.3-5.9-7.6c-0.5-0.4-2.6-1.9-6.5-4.4
		c-1.1,0.2-1.8,0.1-2.2-0.1c-1.6-1.6-3.1-2.8-4.5-3.6c-1.4-0.9-2.1-1.4-2.1-1.4l-0.1,0.2c0.1,0.4,0.1,0.6,0.1,0.7l-0.1,0.2l-0.4,0.2
		c-6.4-5.7-10.8-10.2-13.3-13.5l-1-0.6c-0.4-0.2-0.9-0.2-1.5-0.1c-2.5-2.4-3.8-3.6-4-3.7c-2.2,2.4-3.5,3.4-4,3.2l-0.2-0.1
		c0.2-1.1,0.1-1.7-0.3-1.9l-7.3,5.6c-0.9,1.6-1.8,2.2-2.8,1.8l0-0.4c2-2.3,3-3.5,3.2-3.8c-0.5-0.5-0.5-1-0.2-1.7l0.1-0.2
		c0.5-0.9,1.1-1.2,1.8-0.8c0.7,0.4,1.3,0,2-1.2l0.3-0.5c0.1-0.3-0.5-0.9-1.9-1.9c-1,1-1.8,1.2-2.5,0.9c0.2-0.9,0.2-1.4,0-1.6
		c-0.3,0-1.6,1-4,2.9l-0.7,0.1c0-0.5,0-0.9,0.2-1.2c1.7-2.3,2.9-4.1,3.5-5.2l0.8-1.5c0.2-1.7,0.4-2.7,0.6-3.2l0.2,0.1
		c0.1-0.3,0-0.8-0.2-1.2l-1-0.3c-0.5-0.3-1.7-1.5-3.5-3.7c-0.9-0.5-1.6-1.3-2.4-2.6c-3.9-2.1-5.9-4.9-6.2-8.3
		c-0.4-1.5-1.6-4.1-3.7-7.8c0-0.1,0.1-0.5,0.2-1.2c0.9-0.8,1.5-1.5,1.7-2c-1.3-1.2-1.7-2.2-1.2-3.1c1.2,0.4,2,0.6,2.2,0.8l0.1-0.2
		c-2.5-3-3.5-4.9-3.1-5.7l0.4,0l0.5,0.3c3.2,3,6.3,5.5,9.3,7.5c1.8,0.7,3,1.2,3.6,1.5l0.9,0.5c1.1,0.6,3.4,3.5,6.8,8.8
		c1.6,2.2,3.4,3.9,5.5,5c1-1.8,1.2-3.4,0.6-4.8c2.5-4,4-5.8,4.6-5.5l0.1-0.2c-1-0.6-1.3-1.4-0.7-2.4c0.6-1.1,0.5-2-0.4-2.5
		c-0.2-0.1-0.5-0.4-0.8-0.9c-0.8-0.3-1.5-0.6-2-0.9l-0.9-0.5c-0.1-0.1-0.7-0.7-1.9-1.9l-0.7,0.1l-0.5-0.3c-2.9-2.9-4.9-4.7-6-5.3
		l-0.6,1c-0.3-0.2-0.7-0.2-1.2-0.2c-2.4-1.3-3.3-2.5-2.7-3.7c-0.3-1.8-1.8-3.4-4.3-4.8c-0.5,0-0.9,0-1.2-0.2l-0.2-0.1l-3.6-3.3
		l-2.7-1.5c-1-0.5-1.6-2.6-1.8-6.1c-0.9-1.3-1.4-2.8-1.4-4.8l0.1-0.2c0.4-0.8,1.1-1.6,1.9-2.3c-0.8-1-1-1.8-0.6-2.6
		c0.7,0.2,1.3,0.2,1.7,0.1c0.2-0.4-0.4-1.2-1.7-2.5C466.8,437.4,466.5,436.6,466.6,436.3z M477.5,520.8l0.4-0.7l1,0.3l0.2,0.1
		c0.2,0.1,0.3,0.3,0.2,0.5l-0.5,0.9c-0.3-0.1-0.5-0.2-0.8-0.2C477.6,521.3,477.4,521,477.5,520.8z M497.4,457.8l0.3,0.2
		c0.1-0.2,0.1-0.4-0.2-0.5L497.4,457.8z M514.7,533.9l0.3,0.2l0.1-0.2l-0.3-0.2L514.7,533.9z M517.5,471l0.5-0.9l1,0.3l0.3,0.2
		l-0.3,1l-0.2,0.3l-1-0.3l-0.2-0.1C517.5,471.3,517.4,471.2,517.5,471z M519.5,469.4l0.3-0.5c0.2-0.3,0.5-0.4,1-0.1
		c0.2,0.1,0.3,0.5,0.5,1.2c-0.5,0.4-0.9,0.6-1.2,0.5l-0.3-0.2C519.6,470.1,519.5,469.8,519.5,469.4z M526.9,506.1l0.3,0.2l0.1-0.2
		l-0.3-0.2L526.9,506.1z M531.4,537.9l0.3,0.2l0.1-0.2l-0.3-0.2L531.4,537.9z M544,510.5l0.3,0.2l0.2-0.3l-0.3-0.2L544,510.5z"/>
</g>
<g>
	<path d="M150.1,164.4c2.2-1.5,8-4.2,17.3-7.9c3.2-0.9,6.2-1.2,9-0.9c2-1.4,4.9-0.1,8.6,3.6c0.5,0.5,1,1.1,1.5,1.8l0.5,0.8
		c2.9,4.3,3,11.5,0.1,21.4c-0.4,0.3-0.8,2.1-1.2,5.5c-1.5,4-2.9,7-4.3,9l0.1,0.2l9.4-1.4c3,0.4,6.1,0.6,9.3,0.5
		c2.6,1.2,4.1,2.2,4.6,3l0.8,1.1c0.4,0.6,0.4,1.8-0.1,3.6c0.7,1,0.6,3-0.2,6c-1.2,5.5-4.5,11.9-9.9,19.2l-4.6,5.5
		c-1.3,0.7-2.3,1.3-3.2,1.9c-1.3,1.1-3.4,3.9-6.3,8.5c-0.7,0.5-0.5,2.2,0.7,5.2l-0.2,0.1c-0.2,0.1-0.9-0.2-2.1-1l-0.4,0.1
		c1,6.1,1.8,9.6,2.4,10.4c0.1,0.6,0.1,1-0.1,1.2l-0.3,0.2l-0.2-0.3c-0.9-1.3-2-4.1-3.3-8.4l-0.4-0.9c-0.4,0.3-2.5,2.4-6.3,6.4
		l-3.3,1.3l-0.3,0.2l-6.3,6l-1,0.7l-0.2-0.3c0-0.4,0.4-1.3,1.2-2.7l-0.1-0.2l-0.4,0.1l-0.2,0.1c-2.9,2.8-4.8,4.4-5.6,5l-1.3,0.9
		c-3.4,2-5.1,3-5.2,3.1l-1,0.9c-0.6,0.1-1,0.2-1.2,0.3l-0.1-0.2c-0.5-0.7,2.5-3.3,8.8-7.9c0.6-0.4,1.8-2.1,3.5-5
		c1.9-1.8,3.2-3.7,3.8-5.9c0.1-0.9,2.1-3.4,5.9-7.6c-0.1-0.1,0.3-0.7,1.1-1.9l-0.2-0.3c-0.6,0.3-1,0.3-1.1,0.1
		c1.7-2.2,2.2-3.7,1.7-4.5l-0.3,0.2c-0.2,0.5-0.4,0.7-0.6,0.9l-0.7-1c-0.8-1.1-2.3-5.5-4.7-13.1c-0.5-1.4-0.9-2.3-1.3-2.9
		c-0.9-0.6-1.4-1-1.6-1.3c-1.7-4.3-2.7-6.7-3-7.2l-0.5,0.3c-0.8,0.5-1.4,0.4-1.9-0.4l-0.1-0.4c-1.4,1-2.3,1.1-2.8,0.5
		c1.6-1.6,2.3-2.6,2.1-2.8c-4.4,2.1-6.7,2.9-7.1,2.4c-0.1-0.1-0.1-0.2,0.1-0.3l0.3-0.7l0.3-0.2c1.3-0.9,2.6-1.7,4-2.5
		c1.7-1.4,2.5-2.2,2.3-2.5l-0.7-0.3l-0.2-0.3c0.1,0,0.2-0.2,0.5-0.6l1.2-0.6c-0.1-0.6-0.2-1-0.3-1.2c-1.1-1.4-1.8-2.4-2.1-2.8
		c-0.2-1.5-0.9-3.2-2-5l0.1-1.2l-0.9-1l-0.3-0.5c-2-3.2-2.5-5.2-1.6-5.8c-0.1-0.1,0.5-1.2,1.8-3.3c0.2-3.9,0.8-6.2,1.7-6.8
		c0.4-0.3,0.5-0.8,0.3-1.6c-1.1-1.2-2.1-1.4-3.1-0.7l-0.9,0.4c0.5,0.8,0.4,1.4-0.2,1.8l-0.8,0.5c-0.3,0.2-0.8-0.1-1.5-0.9l-0.2-0.3
		l0-0.7l-0.1-0.2c-4.2,2.7-6.9,4.3-8.1,4.8l-0.1-0.2l1.1-2.6l-0.4,0.1l-1.5,1c-2.3,1.5-3.9,3.6-4.8,6.1c-0.3,0.7-1.2,1.8-2.7,3.3
		c-0.5,1.3-1,2.1-1.4,2.4l-0.4-0.2l-0.3-0.5c1.3-2.7,2.3-4.5,3-5.3c1.1-4.4,4.2-8.3,9.1-11.6c0.5-0.4,1.2-1.6,2.1-3.5l8.2-5.6
		c0.6-0.4,0.8-0.8,0.6-1.1c-0.4,0.3-0.8,0.3-1,0C148.8,165.4,149.4,164.9,150.1,164.4z M145.1,218.8l0.8-0.5l0.7,0.7
		c0.1,0.2,0.1,0.4-0.2,0.8l-0.8,0.5l-0.6-0.5C144.9,219.3,144.9,218.9,145.1,218.8z M150,165.2l0.2,0.3l0.5-0.3l-0.2-0.3L150,165.2z
		 M150.7,211.2l0.3-0.2l0.7,0.7l0.1,0.2c0.1,0.2,0.1,0.4-0.1,0.5l-0.8,0.5l-0.9-1L150.7,211.2z M151.2,220.3
		c0.8-0.5,1.5-0.6,2.2-0.3l0.4,0.6c-0.1,1-0.4,1.7-1,2.1l-0.2,0.1c-0.4,0.3-1-0.2-2-1.2C150.9,220.9,151,220.4,151.2,220.3z
		 M151.4,177c0.6,0.3,1.2,0.3,1.8,0.2l-0.5-0.8L151.4,177z M158.9,172.8l-1.1,0.8c-0.5,0.4-1.4,0.9-2.5,1.5c2,1.1,4.5,3.9,7.5,8.3
		c1.5,2.9,2.3,6.1,2.2,9.6c-0.2,0.1,0,0.8,0.5,2.1l0.2-0.1c1.8-1.5,3.1-3.1,4-4.6c-0.1-0.4,0.7-1.7,2.4-3.8c0.9-3.8,1.7-6.5,2.3-8.1
		l1.8-1.2c1.3-0.9,1.3-3.7,0-8.3l-0.1-0.2c-1.1-1.6-2.7-2.1-4.9-1.6c-0.6,0.4-1.9,0.4-3.6-0.1c-2.7,1.2-4.9,2.4-6.6,3.5l-0.3,0.2
		C160.5,170.8,159.9,171.5,158.9,172.8z M161.1,265.8l0.2,0.3l0.5-0.3l-0.2-0.3L161.1,265.8z M165.7,195.6l0.1,0.2l0.2-0.1
		c0.1-0.3,0.3-0.4,0.4-0.5l-0.1-0.2l-0.2,0.1C165.9,195.4,165.8,195.6,165.7,195.6z M172.7,215c2.3,6.9,3,10.7,1.9,11.5
		c-0.4,1.8,0.5,4.2,2.7,7.4l4.8-6.1c2.5-2.8,3.3-4.8,2.5-6c0.2-0.6,1.2-2,3.1-4.2c0.9-2.8,2.8-5.2,5.6-7.1c-1.5-0.6-4.2,0.5-8.2,3.2
		c-0.9,0.6-2.9,0.9-6.1,0.8c-0.7,0.5-2.5,0.6-5.4,0.4L172.7,215z"/>
	<path d="M208.1,133.1l0.2-0.1c0.3,0.6,0.7,1.9,1.2,3.9c0.1,0.3,0.7,0.9,1.7,1.6c0.6,1.8,0.9,2.8,1,3c1,1.4,3.1,5.6,6.1,12.7
		c0.4,2.8,0.4,6.8,0.1,12c0,0.6,0.7,3.1,2.2,7.3c-0.9,1.5-1.1,2.8-0.6,4.1c0.6,1,0.9,1.6,0.9,1.7c0.3,2.7,0.9,5.3,1.8,7.9
		c0.1,5.1,0.5,8.3,1.1,9.7c0.3,2.3,0.4,3.6,0.5,3.8l0.5,1.1c-0.4,1.3-0.5,2.3-0.5,2.9c0.6,0.5,1,0.9,1.1,1.2
		c1.2,5.7,1.4,8.7,0.6,9.1c-1.1,2.1-1.3,4.1-0.4,6.1c0,0.9-0.2,1.7-0.6,2.1c-0.2,0.1-0.7-0.4-1.3-1.6c-0.1,0.1-0.3,0.1-0.6,0
		c0.3,0.8,0.3,4.4-0.1,10.8c0.4,1,0.4,1.9-0.1,2.8l-0.4,0.2l-0.1-0.2c-0.6-1.5-1.1-5.1-1.5-10.6l-0.3-0.7c-0.1-0.3-0.3-0.5-0.5-0.6
		c-0.2-2.2-0.5-3.6-0.7-4.2c-1-1.3-1.5-1.9-1.6-1.9c-0.4-3.1-0.9-5.3-1.6-6.8l-0.3,0.3l-0.7,0.3l-0.3-0.7c-0.3-2.1-1-5.4-2.2-9.9
		c-0.4-3.3-0.9-5.6-1.4-7c-0.2,0.1-0.5-0.1-1-0.4l-0.1-0.2c-0.3-0.8-0.8-3.1-1.4-7c-0.5,0.2-0.8,0-1.1-0.6l-0.2-0.4
		c-0.4-2.7-1-4.9-1.7-6.5l-0.5-1.1c-0.5-1.2-1.1-2.4-1.9-3.5c-0.2-1.7-0.2-4.2,0.1-7.4c0.1-0.5,0-1.4-0.3-2.8
		c-0.5-0.6-0.9-0.9-1-0.9c0.1-0.2-0.1-1-0.6-2.5l-1.1-1c-0.2-0.5-0.5-2.2-0.8-5c-0.4-1-0.9-1.9-1.6-2.7c-0.3-0.7,0.2-2.1,1.4-4.2
		c-0.1-0.4,0.7-2.6,2.4-6.5l1.6-0.7l1.3-0.3c-0.1-1.2,0.1-2,0.8-2.2c0.6,0.5,1,0.8,1.1,1l0.2-0.1c-0.7-2.5-0.7-3.9-0.1-4.2
		c0.3-0.1,0.4-0.4,0.2-0.9C207.6,133.4,207.9,133.2,208.1,133.1z M200.5,135.2l1.6-0.7l0.9,1.1l0.3,0.7c0,0.7-0.4,1.2-1.1,1.5
		c-0.2,0.1-0.9-0.2-1.9-0.9C200.2,135.9,200.3,135.3,200.5,135.2z M205,129.7l0.9-0.4l0.6,0.8l0.2,0.4l-0.8,0.6l-0.5,0.2l-0.5-0.6
		C204.8,130.1,204.9,129.8,205,129.7z"/>
	<path d="M198,132l1.1-0.3l0.4,0.9l0.1,0.4l-0.9,0.4l-0.2,0c-0.3,0.1-0.4-0.1-0.5-0.5L198,132z M250.6,102.6c0.3,0,0.4,0.1,0.5,0.3
		l0,0.2c-0.1,5.4,0.2,9,0.7,10.9l6.4-1.7c2.4-0.6,3.9-0.6,4.6,0c0.6,0.1,1.3,0.1,2.2-0.2l0.4-0.1c3.3-0.9,5.3-2,6-3.4l1.1-0.5
		l0.6-0.1c0.9-0.2,2.6-0.5,4.9-0.7c0.1,0,0.9-0.3,2.4-0.8l4.2,0.7c0.8-0.2,1.1-0.2,1.2-0.1l0.9-0.4l1.1-0.3c1.7-0.3,2.5-0.3,2.7,0.1
		l0,0.2c0.1,0.3-0.4,0.7-1.5,1.2l-0.1,0.4l0,0.2c9.1-1.3,14.1-1.9,14.9-1.7l0.1,0.6c-1,0.5-1.6,0.8-2,0.9c-1.7,0.4-4.2,1-7.7,1.6
		c-3.1,1.2-5.5,2.1-7.4,2.6l-0.4,0.1c-0.5,1.2-2.1,2.2-4.7,2.9l-2.8,0.7c-1,0.3-1.5,0.7-1.5,1.2c0.2,0,0.4,0.1,0.7,0.4l0,0.2
		l-1.8,0.7L275,119c-1.4,0.4-2.2,0.7-2.6,0.9c-1.2,0.2-2.4,0.4-3.4,0.7l-8.3,2.2c-0.4,0.1-1.1,0.8-2.1,2.2c-0.7,0.2-1.1,0.4-1.3,0.5
		c-0.7,0.1-1.3,0.1-1.7,0.3l-0.2,0l-1.3,0.5l0.1,0.4c0.6-0.2,1-0.1,1,0.1c0.7,4,0.8,6.1,0.2,6.2c-1.4,0.8-1.7,2.6-1,5.3
		c0.3,1.2-0.1,3-1.2,5.6c0.1,0.3,0,1.5-0.2,3.7l0.7,1.8l0.2,0.8c0.4,1.4-0.1,2.6-1.5,3.6c1.2,4.7,1.5,8.4,0.7,10.9
		c0.1,3.1-0.2,4.7-1.1,4.9c-1,1.2-1.3,2.8-0.7,5c0.3,0.8,0.9,1.5,1.6,2.2c0.2,4.5-0.2,6.9-1.1,7.2c-0.5,0.1-0.4,3.9,0.3,11.2
		c-1.2,1.7-1.2,4.5-0.2,8.5c0.3,1,1,2.4,2.3,4.2l0.1,0.4c0.5,6.5,0.8,9.8,0.8,10.1c-1.3,1.3-1.3,4.2-0.2,8.5c0.1,1.3-0.1,2-0.6,2.2
		l0-0.2l-1.2-2.1c-0.5,0.1-0.5,1.9,0,5.3c-0.7,4.5-1.1,8-1.1,10.6l-0.3,0.3c-0.3,0.1-0.4,0-0.5-0.3l-0.1-0.6
		c-0.2-2.8-0.3-6.7-0.4-11.6c-0.6-1.1-0.9-1.9-1-2.2c-0.4-1.9-0.6-3.2-0.8-3.8c-0.1-0.2-0.7-1-2.1-2.5l0-0.2c-0.1-0.5-0.3-2-0.6-4.5
		L245,213l-0.2,0c-0.3,0.1-0.3,0.3-0.2,0.7l-0.4,0.1c-0.3,0.1-0.4,0-0.5-0.3c-0.2-0.7-1.4-8-3.5-21.9c0-0.1-0.5-0.5-1.3-1.1l0-0.2
		c-0.9-3.5-1.3-11.7-1.1-24.8c-0.8-3-0.9-5.8-0.4-8.6c-0.3-1.3-0.3-2.9,0.2-4.7c-0.9-5-0.9-7.9-0.1-8.7l0.7-2l0-0.2l-1,0.1l0-0.2
		c0.1-1.3,0.1-2.9-0.1-4.8c-0.7,0.2-1.2,0-1.5-0.4l-0.1-0.6l0.1-0.4c-0.1,0-0.2,0-0.2-0.1l-0.9,0.4l-1.3,0.3l-6.5,2.9l-1.1,0.3
		c-0.6,0.1-2.1-0.1-4.6-0.6c-1,0.3-2.3-0.1-4.1-0.9c-4.2,0-6.4-0.5-6.7-1.7c0-0.9,0-1.5-0.1-1.8l-0.1-0.4c-2.4,0.1-3.6,0-3.7-0.4
		c0.2-0.4,0.9-1,2.2-1.8l0-0.2c-4.1,0.4-6.2,0.3-6.4-0.3l-0.1-0.6c0.6-0.2,0.9-0.3,0.9-0.4l2.7-0.5c6-1.6,10.9-3.2,14.7-4.9l1.9-0.5
		c0.8-0.2,2.6-0.2,5.3,0c0.5,0,1.1-0.1,1.7-0.3l0.2,0c1.4-0.4,3.8-1.7,7.2-4.1c0.8-0.2,1.5-1,2-2.3c-0.4-0.3-0.6-0.6-0.6-0.8
		c-0.2-0.8,0.2-1.3,1.2-1.5l0.9-0.2c0.3,1,0.9,1.4,1.9,1.1l0-0.2c0.2-1.1,0.5-1.8,0.9-2l0.2,0l1.1,0.9c0.1,0,0.3,0,0.6,0
		c-0.1-3.5,0.2-5.3,0.8-5.5c0.4,0.3,0.6,0.6,0.6,0.8c0.3,1.5,0.5,2.7,0.7,3.4l0.3-0.3l0.2,0c0.2,0,0.4,0.1,0.7,0.4l0.2,0.9l0.8-0.2
		c1-4.7,1.6-8.4,1.7-11.2L250.6,102.6z M202.8,135.8l0.8-0.2c1-0.3,1.6-0.2,1.9,0.3l0.2,0.9c-0.3,0.8-0.8,1.2-1.5,1.4l-0.4,0.1
		c-0.6-0.1-0.9-0.5-1.1-1.1L202.8,135.8z M224.2,124.3l0,0.2l0.4-0.1l0-0.2L224.2,124.3z M237.3,110.3l0.6-0.1
		c1-0.3,1.6-0.2,1.9,0.3l0.2,0.9c0.1,0.9-0.1,1.4-0.8,1.6c-1.1,0-1.7-0.5-2-1.3l-0.1-0.6C237.3,110.8,237.4,110.5,237.3,110.3z
		 M242.1,109.9l1.1-0.3l0.4,0.9l0.1,0.4l-0.9,0.4l-0.4,0.1c-0.1-0.3-0.2-0.5-0.4-0.7C242.1,110.5,242.1,110.2,242.1,109.9z
		 M242.1,105.4l1.1-0.3l0.4,0.9l0.1,0.4l-0.9,0.4l-0.4,0.1c-0.1-0.3-0.2-0.5-0.4-0.7C242.2,106,242.2,105.7,242.1,105.4z
		 M254.2,227.9l0.1,0.4l0.2,0l-0.1-0.4L254.2,227.9z"/>
	<path d="M266.3,169l0.5,0c0.4,0.1,0.6,0.5,0.6,1l0,0.2l-0.9,0.2l-0.5,0l-0.2-0.7C266,169.3,266.1,169.1,266.3,169z M305.1,118
		c7-0.4,11.5,2.7,13.7,9.1c0.4,1.3,0.7,2.9,0.9,5c0.3,5.8-1.6,12.1-5.5,19l-0.7,0.6c-0.2,0-0.8-0.5-1.9-1.6c-0.6,0.7-1.6,2.2-3,4.5
		c-0.6,0.6-1.1,1-1.6,1l-0.2-0.4l0-0.1c1.2-1.7,1.8-3.1,1.7-4.2l-0.3,0c-2.5,4-4.4,6-5.7,6.1l-0.2-0.3l0-0.6
		c2.8-3.3,4.6-7.5,5.5-12.6l0-0.5c-0.3-0.8-0.4-1.3-0.4-1.6c0.6-0.6,0.8-1.2,0.8-1.7l0-0.7c-0.1-1.1-0.4-2.8-1-4.8l-0.3,0
		c0,0.2-0.6,1-1.9,2.6c-1.1,2.1-1.8,3.9-2.1,5.5c-0.9,1.4-2.1,2.3-3.7,2.7c-0.5,1-1.2,2.8-1.9,5.3c-1.1,1.6-2.2,4.1-3.2,7.4
		c-1.3,1.5-3.1,4.8-5.5,9.7c-2.3,1.4-3.4,2.6-3.4,3.6c-1.3,2.7-1.9,4.8-1.8,6.4l0.1,2.1c0,0.3-0.3,1.1-1,2.4
		c0.1,2.3-0.3,4.1-1.2,5.1c0.1,1.5-0.4,2.7-1.5,3.5l0,0.2c0.8,0.4,1.2,1.4,1.3,2.8l0.1,1.5c0,0.4-0.2,1.4-0.8,3.1l0,0.2l0.2,0
		c1-0.1,2.1-0.7,3.1-2c1.7-0.5,3.5-1.7,5.4-3.7c0.6-0.7,2.6-1.7,6-3c5.5-5.1,9.2-7.8,11.2-8.3l0,0.5c-1.6,1.6-2.4,2.6-2.6,3.2
		c0.8,0,2.6-1.2,5.3-3.5c3.1-1.8,5.8-4.1,8-7c2.3-1.6,3.8-2.7,4.4-3.3l0.2,0c0.2,0.1,0.4,0.2,0.4,0.4l0,0.5c-0.6,0-2.8,2.5-6.7,7.4
		c-3.6,2.7-5.6,4.4-5.9,5.2c0.4,0,0.5,0,0.5,0.2c1.1-0.5,2.6-1.7,4.5-3.6c1-0.4,2.1-1.2,3.5-2.5c0.2-0.1,0.5-0.2,0.7-0.2l0.2,0
		l0,0.7c-0.6,0-2.3,1.9-5.1,5.7c-1.1,0.6-1.6,1.3-1.6,2c-1.2,0.6-1.7,1.5-1.7,2.6c0,0.8-0.7,1.8-2.2,2.8c-0.6,0.6-1,1-1.2,1.5l0,0.2
		l0.8,0.7l0,0.3c-0.5,0.3-1.6,1.2-3.3,2.7c-2.3,1.3-3.5,2.2-3.5,2.9c0,0.5-0.4,1.1-1.2,1.7c0,0.9-0.8,1.6-2.6,2.3c0,0.6-1,1.2-3,2
		c-1.2,1.5-2.4,2.4-3.7,2.7c-0.5,0-2.2-0.4-5.1-1.2c-2.1,0.7-3.7,1.1-4.6,1.2l-0.7,0c-2.3,0.1-4.4-0.8-6.5-2.7
		c0.4,0.8,1.1,1.8,1.9,2.9c-0.7-0.2-1.5-0.7-2.4-1.4c-1.3-1.2-2-2.5-2.1-3.8l0-0.2c-2.4-3-3.7-6.3-3.9-10.1l-0.1-1.1
		c0-0.8,0.5-5.2,1.7-13.1c-0.2-1-0.3-1.9-0.3-2.5l0-0.7c0-0.9,0.8-4.6,2.5-11c0.1-0.5,0.1-1,0.1-1.6l0-0.2c0-0.7-0.4-1.1-1.1-1
		c-1.1,2.3-2.2,3.5-3.3,3.6l-0.2-0.3c0-0.5,0.9-2.7,2.9-6.8c1.1-5.2,2.4-7.9,3.8-8c2.2-1.7,3.3-3.3,3.2-4.9c0-0.4,0.2-1.2,0.8-2.4
		l0.2,0c0.3,0.2,0.6,0.4,0.8,0.4c1.4-0.4,2.1-0.9,2.1-1.6c0.7-0.7,1.2-1.6,1.5-2.8c0-0.1-0.1-0.9-0.3-2.4c1.1-0.9,1.9-2.1,2.3-3.7
		c1.1-0.1,2.8-2.1,5.1-6C293.3,121.7,298.7,118.4,305.1,118z M281.6,185.3l0,0.3l0.2,0l0-0.3L281.6,185.3z M301.8,159.3
		c0.6,0.2,0.9,0.4,1,0.7l0,0.2c-0.2,0.5-0.6,0.7-1,0.7c-0.4-0.4-0.6-0.8-0.6-1.2C301.4,159.4,301.6,159.3,301.8,159.3z M304.2,183.1
		l0,0.1c0.2-0.1,0.4-0.2,0.5-0.2l0-0.4l-0.1,0C304.4,182.7,304.2,182.8,304.2,183.1z M308.2,157.7l0.3,0c0.6,0,0.9,0.8,1.1,2.5
		l-0.2,0c-0.4,0.4-0.9,0.6-1.2,0.6l-0.2,0c-0.7-0.4-1.1-0.9-1.2-1.6C306.8,159.1,307.3,158.6,308.2,157.7z"/>
	<path d="M367.7,130.2l0.8,0.2c0.8,1.1,1.6,1.7,2.4,1.9l1.9,0.4c1,0.2,2.5,1.7,4.6,4.6l0.2,0c0.9-0.1,1.5-0.1,1.8,0
		c0.7,0.1,1.1,0.6,1.3,1.3c-0.1,0.3-0.6,1-1.7,2.2c1.2,2.9,1.7,5,1.5,6.1l-0.1,0.4l-1,0l-0.4-0.1c-0.5-0.1-1-0.4-1.4-0.7
		c-0.7,0.1-1.1,0.4-1.2,0.9c1.1,1.6,2.1,2.4,2.8,2.6c0.2-0.5,0.4-0.7,0.7-0.6l1.1,0.2c1.1,0.4,1.6,1.1,1.4,1.9
		c0,0.2-0.6,0.7-1.5,1.5c2.3,2.5,2.7,6.8,1.4,12.9c0.6,1.4,0.9,2.5,0.7,3.2c-1.4,2.9-2.6,5.8-3.4,8.7c-0.7,0.9-1.5,2.5-2.2,4.7
		l1.3-0.7l0.2,0l0,0.2c-0.7,3.3-4.7,8.1-11.8,14.3c-5.8,4-10.2,6.1-13.2,6.6c-5.4,1.6-8.6,2.4-9.7,2.5c-1-0.2-1.6-0.3-1.8-0.2
		c-3.2-0.7-6.7-2.8-10.6-6.5c-5.2-6.2-6.8-14.1-4.8-23.6l0.2-1c0.1-0.7,0.4-1.6,0.8-2.6l0-0.2l-0.2,0c-1.3,2.5-2.1,3.7-2.4,3.7
		l-0.3-0.7l0.3-1.5l3.2-7.5c0.9-3,1.5-4.5,1.7-4.4l0.2-1c-0.5-1.1-0.7-1.7-0.8-1.8c2-3.7,3-5.6,3.1-5.9l-1-0.2
		c-0.3-0.1-0.4-0.2-0.3-0.5l0-0.2c2.2-3.1,4.9-6,8-8.5c1.9-0.8,3-1.7,3.1-2.5l0-0.8c1.3-1.4,3.7-2.9,7.3-4.4c1.1-1,3.9-1.7,8.5-2.2
		c1.7-1.4,4.4-1.6,8.2-0.9l0.2-1c0.1-0.3,0.3-0.3,0.7-0.3l0-0.2L367.7,130.2z M374.3,149l-0.3,0.3l1.5,2.3l-0.2,0.8
		c-0.5,0-0.7,0-0.8,0l0,0.2c0.4,0.6,0.5,1.3,0.4,2.1l-0.2,1l-0.8-0.2c-0.9-2.1-1.9-4.1-3-5.8c-1.6-0.1-2.8-0.2-3.3-0.3
		c-0.3-0.1-1.2-0.7-2.6-1.9c-0.2,0.9-2.4,3.2-6.6,6.8c-1.4,2-3.9,4-7.5,6c-3.5,3.3-5.6,6.6-6.3,9.8c-1.3,4.9-2.3,7.3-3.1,7.1
		l-1.2,1.1c0.1,0.5,0,1.9-0.3,4.1c0.7,3.9,1.9,6,3.6,6.4c1.2,0.9,2.4,1.5,3.6,1.8c0.4,0.1,2.7-0.2,6.8-0.8c2,0.4,3.5,0,4.7-1.2
		c1.6-0.8,3.4-2.4,5.2-4.9c1-3.4,2-5.5,3-6.4c2.9-3.6,4.6-6.4,5-8.3c0.5-0.8,1.4-1.6,2.7-2.2c0.7-0.9,1.2-2,1.5-3.3
		c0.3-1.2,0.5-3.4,0.8-6.4c0.2-0.2,0.3-0.4,0.4-0.7l0.6,0.1c0.1,0,0.5,0.6,1.2,1.9l0.2,0c0.3,0.1,0.4,0,0.5-0.3
		c-0.4-2.9-1.7-5.8-4-8.4C375.1,149.6,374.7,149.3,374.3,149z M354.5,156.5l-0.1,0.4c0.3,0.1,0.4,0,0.5-0.3L354.5,156.5z
		 M377.2,183.8l-0.1,0.4l0.2,0l0.1-0.4L377.2,183.8z"/>
	<path d="M425.6,142.1l0.2,0.1c-0.3,0.6-0.9,1.8-2,3.6c-0.1,0.3-0.1,1.1,0.1,2.4c-0.9,1.7-1.3,2.6-1.4,2.8
		c-0.3,1.7-1.9,6.1-4.7,13.3c-1.8,2.2-4.6,5.1-8.5,8.5c-0.5,0.4-1.7,2.6-3.7,6.7c-1.7,0.4-2.8,1.2-3.3,2.4c-0.3,1.1-0.5,1.7-0.6,1.9
		c-1.7,2.1-3.2,4.3-4.4,6.8c-3.5,3.7-5.6,6.2-6.2,7.6c-1.5,1.8-2.2,2.8-2.3,3l-0.5,1.1c-1.2,0.6-2,1.2-2.4,1.7
		c0.1,0.8,0.1,1.3-0.1,1.7c-3.2,4.9-5.2,7.1-6,6.8c-2.2,0.6-3.8,2-4.6,4c-0.7,0.7-1.3,1-1.9,1.1c-0.2-0.1-0.2-0.8,0.2-2
		c-0.1-0.1-0.3-0.2-0.5-0.4c-0.3,0.8-2.9,3.3-7.8,7.5c-0.4,1-1.1,1.6-2.1,1.9l-0.4-0.2l0.1-0.2c0.6-1.5,2.8-4.4,6.5-8.5l0.3-0.7
		c0.1-0.3,0.2-0.5,0.1-0.8c1.4-1.7,2.3-2.9,2.5-3.4c0.2-1.6,0.3-2.4,0.2-2.5c1.9-2.5,3.1-4.4,3.7-5.8l-0.4,0l-0.7-0.3l0.3-0.7
		c1.3-1.7,3.1-4.5,5.5-8.5c2.1-2.6,3.4-4.6,4-5.9c-0.2-0.1-0.3-0.4-0.4-1l0.1-0.2c0.3-0.7,1.6-2.7,4-5.9c-0.5-0.2-0.6-0.6-0.3-1.2
		l0.2-0.4c1.6-2.2,2.8-4.1,3.5-5.7l0.5-1.1c0.5-1.2,0.9-2.5,1.2-3.8c1-1.4,2.8-3.1,5.4-5.2c0.4-0.3,1-1,1.8-2.2
		c0.1-0.8,0-1.3-0.1-1.3c0.2-0.1,0.6-0.8,1.3-2.2l0-1.5c0.2-0.5,1.2-1.9,3-4c0.4-1,0.7-2,0.9-3c0.3-0.7,1.6-1.4,4-1.9
		c0.2-0.4,2.3-1.3,6.3-2.9l1.6,0.7l1.2,0.7c0.8-0.9,1.5-1.3,2.1-1c0.1,0.8,0.1,1.2,0,1.5l0.2,0.1c1.3-2.3,2.3-3.3,3-3
		c0.3,0.1,0.6-0.1,0.8-0.5C425,141.9,425.3,142,425.6,142.1z M418.7,138.2l1.6,0.7l-0.2,1.4l-0.3,0.7c-0.6,0.5-1.2,0.6-1.8,0.3
		c-0.2-0.1-0.5-0.8-0.7-2C418,138.4,418.5,138,418.7,138.2z M425.8,137.5l0.9,0.4l-0.2,1l-0.2,0.4l-1-0.2l-0.5-0.2l0.1-0.8
		C425.3,137.6,425.6,137.4,425.8,137.5z"/>
	<path d="M502.3,161.9l-0.6,1.5c-4.2,4.5-7.2,7.7-9.1,9.6c-0.9,1.6-1.7,2.9-2.5,4c-1.8,1.7-3,3.1-3.7,4.1l-0.4,0.6l-1.5,3.9
		c-5.5,6.2-8.7,10-9.8,11.6l-0.1,0.2l0.2,0.1c0.7-0.3,1.1-0.6,1.1-0.6l0.2,0.1c0.2,0.2,0.2,0.4,0.1,0.5c-4.6,5-8.9,9-12.7,12.1
		c-8.3,7.5-12.6,11.5-13,12.2c-0.3,0.4-0.7,1.3-1.3,2.9c-4.2,3.9-6.5,6.1-6.9,6.6l-1.6,2.4c-0.4,0.5-1.2,0.9-2.6,1.1l-1.8,2.6
		c-1.4,0.2-3,0.6-4.8,1.2c-0.6-0.4-1.5-0.3-2.4,0.5c-0.1-0.1-1.2,0-3.4,0.1l-0.3-0.2l-1.3-1.6c-1.7-0.8-2.6-1.3-2.6-1.3l0.5-0.8
		c0.1-0.2,0.1-0.4-0.2-0.8c-0.6-0.4-1.6-0.2-2.8,0.7c-1.2,0.6-2.1,0.7-2.9,0.1l0.1-0.4l1.1-0.9c-0.3-0.5-0.4-0.8-0.3-0.9l0.4-0.6
		c0.2-0.2,0.4-0.2,0.5-0.1l0.6,0.4l0.3,0.7c1.9-1.1,3.1-2.1,3.5-2.8l-0.2-0.1c-1.1,0.2-1.7,0.3-1.8,0.2l-0.3-0.2
		c-0.2-0.1-0.2-0.3-0.1-0.5l0.2-0.3c1.9-0.7,3-1.3,3.3-1.8c0.3-2.1,0.3-5.2-0.1-9.5c0.2-1.3,0.8-3.8,1.8-7.5c0-2.5,0.4-4.5,1.4-5.9
		c0.6-3.6,0.8-5.7,0.5-6.3c-3.1,2.9-5.6,4.4-7.6,4.5c-1.4-0.1-2.9,1.1-4.5,3.5c-0.2,0.2-0.3,1.1-0.5,2.5c-4,3.4-6.5,4.8-7.5,4.1
		c-0.5-0.3-1.9,0.6-4.4,2.7l-1.2,0.1l-0.3-0.2l0.4-0.9l0.4-0.6l-0.6-0.4c-6.6,4.4-10.2,7-10.7,7.8l-0.3-0.2
		c-0.2-0.1-0.2-0.3-0.1-0.5l0.2-0.3c1.7-1.5,5.2-5.2,10.6-11l0.4-2.3c1.5-1.3,3-2.8,4.6-4.7l-0.2-0.1c-0.5,0-0.9-0.1-1.2-0.3
		l0.1-0.2c0.7-1,2.3-2.5,4.8-4.3c0.4-0.6,2.6-2.5,6.5-5.7c0.2-0.3,0.4-1,0.6-2.2l12.2-9.9c0.4-0.8,0.7-1.4,1-1.9l0.3-0.5
		c0.2-0.3,1.8-1.5,4.9-3.7c1.8-2.7,3.1-3.8,3.9-3.3l9.2-1.8l0.6-1.2l0.5-0.8l0.9,0.4c-0.4,0.6-0.3,1.3,0.5,2
		c0.4-0.6,1.1-1.4,2.2-2.5l0.1-1.1l0.2-0.3c0.7-0.5,1.4-0.5,2-0.1c0.8,0.5,0.8,1.2,0.3,2.1c-0.9,0.6-1.3,0.9-1.5,1.1l-0.4,0.6
		l-0.9,1.7l0.3,0.2c0.3-0.4,0.7-0.5,0.9-0.3l0.5,0.3c-0.3,1-0.6,1.5-0.7,1.7c1.6,0.1,3.4-0.6,5.4-2l0.5,0.3l-0.4,0.9l-0.1,0.2
		c-3.9,2.7-6.4,4.9-7.7,6.8c-0.1-0.1-0.2-0.1-0.3,0.1c-0.3,0.7-0.6,1.2-0.8,1.6l-0.1,0.2l-2.4,2.1c-0.2,0.3-0.4,2.2-0.5,5.6
		c-1.7,8.7-3.9,15.2-6.7,19.3c-0.8,3.3-1.9,6.6-3.2,9.9l0.2,0.1c6.5-6.3,10.5-9.6,11.9-9.8c2.2-0.5,5.9-3.6,11.3-9.3l0.7-1l1.8-3.3
		c5.8-5.1,8.9-7.9,9.3-8.5c0.9-1.3,3.1-2.8,6.7-4.6c1.4-1.2,4-3.8,7.7-7.8c0.7-0.4,1.2-0.6,1.3-0.5l0.2,0.1
		c-0.3,0.8-0.5,1.4-0.7,1.7l-1,1.5c0.5,0.3,2.1-1.2,5-4.6c5.8-5,8.8-7.8,9.2-8.4C501.5,162,502.1,161.7,502.3,161.9z M405.5,201.4
		l-0.2,0.3l0.2,0.1l0.2-0.3L405.5,201.4z M414.2,237.5l0.6,0.4l-0.4,0.9l-0.2,0.3l-0.9-0.4l-0.3-0.2c0.2-0.2,0.3-0.5,0.3-0.8
		C413.7,237.5,414,237.4,414.2,237.5z M420.8,238.7l1.3,0.9c-0.4,1.2-0.6,1.9-0.6,1.9c-0.4,0.4-0.9,0.5-1.5,0.4l-0.2-0.1
		c-1-0.7-1.2-1.4-0.6-2.3C420.1,239.2,420.6,238.9,420.8,238.7z M442.5,201.5l-0.2,0.3c0,0.3-0.1,0.5-0.2,0.6l0.2,0.1l0.2-0.3
		c0-0.3,0.1-0.5,0.2-0.6L442.5,201.5z M448.4,160.9l1.5,1c-0.3,0.8-0.5,1.4-0.7,1.7l-0.3,0.5c-0.5,0.3-1,0.3-1.6-0.1
		c-0.2-0.8-0.4-1.2-0.7-1.4l1-1.5C447.7,160.9,448,160.8,448.4,160.9z M455.4,160.4l0.6,0.4c0.2,0.1,0.2,0.6-0.2,1.3
		c-0.6,0-1.1,0-1.5-0.3l-0.2-0.1l0.2-0.3L455.4,160.4z M461.1,166.7l0.8,0.5l-0.4,0.9l-0.1,0.2c-0.1,0.2-0.3,0.2-0.5,0.1l-0.6-0.4
		c-0.2-0.1-0.2-0.3-0.1-0.5l0.4-0.6C460.7,166.6,460.9,166.5,461.1,166.7z M474.5,198.3c-0.2,0.2-0.4,0.4-0.6,0.5l0.3,0.2l0.4-0.6
		L474.5,198.3z M487.1,173.2l-0.4,0.6l0.2,0.1l0.4-0.6L487.1,173.2z"/>
</g>
</svg>
