<svg id="Layer_1" data-name="Layer 1" xmlns="http://www.w3.org/2000/svg" viewBox="0 0 166.14 47.99"><defs><style>.cls-1{fill:#231f20;}.cls-2{fill:#f7941f;}.cls-3{fill:#fff;}</style></defs><path class="cls-1" d="M224.27,191.08v48H209.54V220.4H198.29v18.67H183.56v-48h14.73v17.65h11.25V191.08Z" transform="translate(-183.56 -191.08)"/><path class="cls-1" d="M306.68,239.07h-12l-13.15-21.2a83.28,83.28,0,0,1-5.1-9.91,33.49,33.49,0,0,1,1.16,7.87v23.24h-12v-48h13.92l11.18,17.58a67.46,67.46,0,0,1,5.06,9.21,69.85,69.85,0,0,1-1.12-12.59v-14.2h12Z" transform="translate(-183.56 -191.08)"/><path class="cls-1" d="M349.71,239.07H333.59l-8.3-18.14-5,7.06v11.08H306.43v-48h13.89v19.84l13.23-19.84h13.24l-12.12,17.56Z" transform="translate(-183.56 -191.08)"/><g id="Layer_1-2" data-name="Layer_1"><g id="_1421344023328" data-name=" 1421344023328"><path class="cls-2" d="M268.34,220.87a23.68,23.68,0,0,1-28.74,17.46,24,24,0,0,1-17.26-29.06,23.68,23.68,0,0,1,28.73-17.47,24,24,0,0,1,17.27,29.07Z" transform="translate(-183.56 -191.08)"/><path class="cls-3" d="M255.79,211.65c.48-3.19-1.93-4.91-5.21-6.05l1.06-4.33-2.6-.65-1,4.21c-.69-.18-1.39-.34-2.09-.5l1.05-4.24-2.6-.65-1.07,4.32-1.66-.4h0l-3.59-.91-.69,2.81s1.93.45,1.89.48a1.4,1.4,0,0,1,1.21,1.53l-1.21,4.93a2.46,2.46,0,0,1,.27.08l-.28-.06-1.7,6.9a.94.94,0,0,1-1.19.62s-1.89-.48-1.89-.48l-1.29,3,3.38.85,1.86.48L237.33,228l2.6.65,1.07-4.32,2.07.54L242,229.16l2.6.65,1.08-4.36c4.43.85,7.77.5,9.17-3.55,1.14-3.27-.05-5.16-2.39-6.39a4.19,4.19,0,0,0,3.33-3.86Zm-5.94,8.43c-.8,3.27-6.24,1.5-8,1.06l1.43-5.79c1.76.44,7.42,1.32,6.58,4.73Zm.8-8.48c-.73,3-5.26,1.46-6.73,1.09l1.3-5.25c1.47.37,6.2,1.06,5.43,4.16Z" transform="translate(-183.56 -191.08)"/></g></g></svg>